<svg id="bg-03-pc" xmlns="http://www.w3.org/2000/svg" width="80" height="73.148" viewBox="0 0 80 73.148">
  <path id="パス_6" data-name="パス 6" d="M844.148,260.937s2.752,4.915,1.7,14.877" transform="translate(-828.646 -204.469)" fill="none" stroke="#080808" stroke-linecap="round" stroke-width="2"/>
  <path id="パス_7" data-name="パス 7" d="M888.89,415.034a48.152,48.152,0,0,1,.852,10.224" transform="translate(-866.965 -355.092)" fill="none" stroke="#080808" stroke-linecap="round" stroke-width="2"/>
  <path id="パス_8" data-name="パス 8" d="M982.608,415.034a42.617,42.617,0,0,1,0,12.059" transform="translate(-925.564 -355.092)" fill="none" stroke="#080808" stroke-linecap="round" stroke-width="2"/>
  <path id="パス_9" data-name="パス 9" d="M998.028,415.89a35.3,35.3,0,0,1,0,10.813" transform="translate(-935.206 -355.621)" fill="none" stroke="#080808" stroke-linecap="round" stroke-width="2"/>
  <path id="パス_5" data-name="パス 5" d="M844.148,260.937s2.752,4.915,1.7,14.877" transform="translate(-828.646 -204.469)" fill="none" stroke="#080808" stroke-linecap="round" stroke-width="1"/>
  <path id="パス_2" data-name="パス 2" d="M857.751,330.889s-10.819,3.948-13.936-6.392c0,0-15.037-.376-11.369-16.545,0,0-10.269-18.613,14.853-21.621,0,0,11.369-19.553,20.9-6.58A8.9,8.9,0,0,1,877,275.8c5.868.94,6.051,6.016,6.051,6.016s5.318-3.384,10.086,0,5.685,6.768,5.685,6.768,7.7,1.692,9.719,8.084-1.283,9.4-1.283,9.4a8.833,8.833,0,0,1,2.2,10.528c-2.934,6.392-10.636,7.9-10.636,7.9s-1.1,4.888-4.768,6.392-8.985-1.5-8.985-1.5-4.4,6.58-12.653,2.632c0,0-1.284,3.572-7.885,2.632s-6.785-3.76-6.785-3.76" transform="translate(-830.367 -269.075)" fill="#010f27"/>
  <path id="パス_3" data-name="パス 3" d="M837.762,287.83s-5.471-1.872-6.191-3.6.864-2.016.864-2.016,3.743-1.152,14.974.72,9.791.576,13.39,2.16.288,4.175-3.024,4.175h-4.031s-1.44,10.943-7.055,13.822-11.083,2.572-11.71-4.833c0,0-.5-3.643,2.783-10.429" transform="translate(-830.995 -273.124)" fill="#7a839a"/>
  <path id="パス_4" data-name="パス 4" d="M850.466,269.822s-4.771.767-5.538-2.811.767-5.793,2.045-6.3,2.556-1.193,5.879,0a3.541,3.541,0,0,1,4.175-1.534c2.982.767,3.067,2.386,3.067,2.386a5.358,5.358,0,0,1,4.43,1.874,6.5,6.5,0,0,1,.511,6.39,5.237,5.237,0,0,1-4.43,2.471c-1.96-.085-2.982-.426-3.578-1.874,0,0-2.3,1.635-4.175,1.55s-2.385-2.146-2.385-2.146" transform="translate(-839.232 -259.016)" fill="#16253f"/>
</svg>
