<svg xmlns="http://www.w3.org/2000/svg" xmlns:xlink="http://www.w3.org/1999/xlink" width="90" height="90" viewBox="0 0 90 90">
  <defs>
    <clipPath id="clip-path">
      <path id="wave" d="M1004.853,659.607a1.79,1.79,0,0,1,.191-1.444c.446-.786.658-1.168.361-1.975a1.6,1.6,0,0,1,.743-2.124,3.412,3.412,0,0,0,1.678-2.23c.064-.7.467-1.3,1.8-1.338s1.232-.764,1.763-1.019.594-.446,1.359-.255.764.425,1.7,0,1.274.3,1.338.764a2.289,2.289,0,0,0,.786,1.253,1.171,1.171,0,0,1,.318,1.614c-.382.871-.4,1.168-.318,1.55s.51,1.125-.276,1.784a2.388,2.388,0,0,0-.807,1.677c-.021.106.17,1.232-.849,1.593a2.249,2.249,0,0,0-1.423,1.359,1.413,1.413,0,0,1-1.55,1.1c-1.21-.064-1.677-.021-2.038.382s-1.932,1.168-2.7-.212-.913-1.423-1.529-1.677-.414-.669-.552-.807" transform="translate(-1004.78 -649.095)" fill="#393b40" opacity="0.31"/>
    </clipPath>
    <clipPath id="clip-path-2">
      <path id="wave-2" data-name="wave" d="M8.175,7.029A.615.615,0,0,0,8.2,6.952a1.09,1.09,0,0,0,.026-.209,1.228,1.228,0,0,0-.03-.307,1.358,1.358,0,0,0-.146-.373c-.075-.131-.139-.246-.191-.352a1.489,1.489,0,0,1-.116-.3A.911.911,0,0,1,7.718,5.1a1.422,1.422,0,0,1,.088-.36,1.469,1.469,0,0,0,.09-.4,1.071,1.071,0,0,0-.04-.386.963.963,0,0,0-.189-.346,1.246,1.246,0,0,0-.357-.284,2.195,2.195,0,0,1-.421-.3,2.653,2.653,0,0,1-.348-.387A2.267,2.267,0,0,1,6.3,2.217a1.249,1.249,0,0,1-.109-.385A1.073,1.073,0,0,0,6.106,1.5a.781.781,0,0,0-.2-.279,1.009,1.009,0,0,0-.363-.2A2.055,2.055,0,0,0,4.98.938,1.442,1.442,0,0,1,4.469.844a.8.8,0,0,1-.28-.193C4.12.578,4.067.5,4.01.431A.607.607,0,0,0,3.8.257C3.713.214,3.644.174,3.582.14A.968.968,0,0,0,3.406.06.585.585,0,0,0,3.2.035a1.553,1.553,0,0,0-.308.051C2.765.118,2.67.152,2.588.18a1.164,1.164,0,0,1-.22.061A.626.626,0,0,1,2.127.224,2.156,2.156,0,0,1,1.758.086.79.79,0,0,0,1.36,0a.46.46,0,0,0-.268.116A.649.649,0,0,0,.933.346.964.964,0,0,0,.863.6.9.9,0,0,1,.8.816a1.089,1.089,0,0,1-.109.2,2.086,2.086,0,0,1-.157.2c-.06.069-.127.141-.2.219a2.788,2.788,0,0,0-.2.218.69.69,0,0,0-.119.22.607.607,0,0,0-.015.27,1.471,1.471,0,0,0,.116.37c.064.146.113.267.149.372a1.834,1.834,0,0,1,.075.269.919.919,0,0,1,.016.208,1.056,1.056,0,0,1-.027.188c-.014.064-.043.143-.069.232a1.315,1.315,0,0,0-.057.295.738.738,0,0,0,.052.329.877.877,0,0,0,.258.336,1.444,1.444,0,0,1,.3.351,1.531,1.531,0,0,1,.157.348,1.732,1.732,0,0,1,.062.279c.01.074.013.126.016.143s0,.078,0,.162a1.351,1.351,0,0,0,.035.306.864.864,0,0,0,.16.338.811.811,0,0,0,.374.258,1.731,1.731,0,0,1,.42.212,1.338,1.338,0,0,1,.268.248,1.49,1.49,0,0,1,.162.245c.041.077.072.147.1.2s.057.134.1.217a1.046,1.046,0,0,0,.161.253.75.75,0,0,0,.292.2,1.158,1.158,0,0,0,.487.065c.2-.011.374-.017.52-.016a2.353,2.353,0,0,1,.374.027.882.882,0,0,1,.268.085.71.71,0,0,1,.2.16,1.118,1.118,0,0,0,.312.221,1.531,1.531,0,0,0,.489.155.941.941,0,0,0,1-.518c.128-.231.23-.406.317-.541a1.949,1.949,0,0,1,.231-.3.861.861,0,0,1,.212-.161,2.747,2.747,0,0,1,.262-.117.594.594,0,0,0,.218-.143.382.382,0,0,0,.086-.156,1.137,1.137,0,0,0,.026-.141.176.176,0,0,1,.039-.1" fill="#393b40" opacity="0.31"/>
    </clipPath>
  </defs>
  <g id="bg-02-pc" transform="translate(7.895 11)">
    <g id="kiwi" transform="translate(-7.895 24.989)">
      <path id="kiwi-2" data-name="kiwi" d="M54.743,12.746a9.9,9.9,0,0,0-.037-1.234A14.739,14.739,0,0,0,54.132,8.5a13.177,13.177,0,0,0-1.8-3.756,12.221,12.221,0,0,0-3.724-3.466A8.546,8.546,0,0,0,43.693.01,11.194,11.194,0,0,0,39.144,1.3,16.719,16.719,0,0,0,35.5,3.875a13.034,13.034,0,0,0-2.213,2.573s-.825-.421-2.2-.948a32.991,32.991,0,0,0-5.527-1.579,23.383,23.383,0,0,0-7.223-.316,15.2,15.2,0,0,0-7.292,2.843A35.37,35.37,0,0,0,5.4,11.6a24,24,0,0,0-3.515,5.256A18.791,18.791,0,0,0,.222,22.078a17.722,17.722,0,0,0-.079,5.048A15.537,15.537,0,0,0,1.7,32.106a16.8,16.8,0,0,0,3.338,4.539,15.443,15.443,0,0,0,5,3.241,15.9,15.9,0,0,0,6.54,1.086s.012.043.035.112.057.163.1.266a2.464,2.464,0,0,0,.162.317,1.117,1.117,0,0,0,.217.265l-.515,2.833L13.5,43.914s-.053,0-.132.007a1.41,1.41,0,0,0-.286.057.67.67,0,0,0-.278.16.39.39,0,0,0-.108.315,6.194,6.194,0,0,0,1.154,1.334c.694.705,1.633,1.623,2.623,2.611s2.03,2.045,2.927,3.028a18.533,18.533,0,0,1,2.065,2.585,5.381,5.381,0,0,0-.108-.587,9.565,9.565,0,0,0-.484-1.493,10.441,10.441,0,0,0-1.1-2,10.566,10.566,0,0,0-1.952-2.1s.3.045.835.184a16.694,16.694,0,0,1,2.19.751,20.075,20.075,0,0,1,3.072,1.618A21.61,21.61,0,0,1,27.4,53.172s-.194-.381-.567-.964A17.9,17.9,0,0,0,25.2,50.031a13.449,13.449,0,0,0-2.616-2.319,8.584,8.584,0,0,0-3.5-1.389A7.468,7.468,0,0,1,19.9,46.2a13.524,13.524,0,0,1,2.183-.045,15.1,15.1,0,0,1,3.152.523,15.573,15.573,0,0,1,3.723,1.578,6.76,6.76,0,0,0-.674-.67,11.3,11.3,0,0,0-2-1.407,12.122,12.122,0,0,0-3.313-1.241,13.543,13.543,0,0,0-4.6-.172l.5-2.351s.087-.037.232-.11.349-.184.582-.331a7.24,7.24,0,0,0,.764-.551,5.774,5.774,0,0,0,.775-.772s.144-.021.383-.062.571-.1.946-.184.794-.183,1.206-.3a8.9,8.9,0,0,0,1.163-.417s.058.058.158.145a4.838,4.838,0,0,0,.414.322,3.533,3.533,0,0,0,.58.33,1.874,1.874,0,0,0,.655.169v3.487H24.546s-.036,0-.088,0a.791.791,0,0,0-.185.019.282.282,0,0,0-.161.09.218.218,0,0,0-.018.211c.031.1.294.226.777.433s1.186.492,2.1.9,2.03.928,3.345,1.614,2.826,1.533,4.521,2.585c0,0-.145-.188-.407-.489s-.642-.716-1.112-1.171a16.514,16.514,0,0,0-1.653-1.408,10.765,10.765,0,0,0-2.03-1.2,4.755,4.755,0,0,1,.616.009,13.306,13.306,0,0,1,1.853.265,24.263,24.263,0,0,1,3.1.88,39.166,39.166,0,0,1,4.353,1.855s-.247-.221-.7-.572-1.1-.833-1.909-1.355a25.361,25.361,0,0,0-2.855-1.6,19.673,19.673,0,0,0-3.534-1.3,6.941,6.941,0,0,1,.684-.22,13.069,13.069,0,0,1,1.89-.367,15.148,15.148,0,0,1,2.851-.073,15.875,15.875,0,0,1,3.569.661,8.374,8.374,0,0,0-.894-.493,12.79,12.79,0,0,0-2.4-.88,11.747,11.747,0,0,0-3.487-.368A10.892,10.892,0,0,0,28.619,43.2V39.969a1.183,1.183,0,0,0,.159-.114,2.359,2.359,0,0,0,.369-.387,3.231,3.231,0,0,0,.416-.727,4.518,4.518,0,0,0,.3-1.135,14.656,14.656,0,0,0,1.657-.868,25.581,25.581,0,0,0,3.938-2.9,28.138,28.138,0,0,0,4.67-5.377,30.321,30.321,0,0,0,3.854-8.3,2.9,2.9,0,0,1,.173-.256,4.88,4.88,0,0,1,.528-.6,4.942,4.942,0,0,1,.9-.689,4.611,4.611,0,0,1,1.281-.525c.492-.12,1.058-.291,1.654-.5s1.222-.45,1.835-.711,1.213-.541,1.757-.822a13.318,13.318,0,0,0,1.418-.832" fill="#010f27"/>
      <path id="楕円形_53" data-name="楕円形 53" d="M1.347,0a1.343,1.343,0,1,0,.524.106A1.343,1.343,0,0,0,1.347,0Z" transform="translate(46.307 7.729)" fill="#fff"/>
      <path id="パス_40" data-name="パス 40" d="M.938,2.764h0l.018-.009.077-.028L1.2,2.667a1.533,1.533,0,0,1,.971.076A11.981,11.981,0,0,1,4.767,3.987,50.228,50.228,0,0,1,9.639,7.4c2.078,1.61,4.646,3.748,7.815,6.581,0,0,.07.034.17.072a1.7,1.7,0,0,0,.347.1.314.314,0,0,0,.282-.056c.056-.064.061-.183-.026-.387,0,0-.56-.66-1.508-1.7s-2.286-2.459-3.84-3.976A66.083,66.083,0,0,0,7.732,3.466,27.469,27.469,0,0,0,2.308,0s-.084,0-.214.01S1.786.033,1.6.062a2.978,2.978,0,0,0-.55.132A.8.8,0,0,0,.667.441,2.63,2.63,0,0,1,.422.731C.338.82.255.9.185.985a.853.853,0,0,0-.158.25A.414.414,0,0,0,.02,1.51a1.319,1.319,0,0,0,.164.32,4.129,4.129,0,0,0,.256.339c.093.112.189.222.276.323s.165.194.223.272" transform="translate(52.36 12.621)" fill="#7a839a"/>
    </g>
    <g id="fruit" transform="translate(41.816 -11)">
      <path id="down" d="M866.952,563.556s-6.874-6.239-4.693-11.9,5.328-6.156,9.137-6.487,7.509,1.9,8.558,2.567l-13,15.818" transform="translate(-861.832 -545.138)" fill="#010f27"/>
      <path id="circle" d="M957.148,604.432s-3.7-1.822-2.07-7.867,6.9-9.689,9.91-9.938,6.046.939,6.018,5.383-3.616,10.048-7.233,12.008-6.053.82-6.625.414" transform="translate(-950.703 -584.827)" fill="#16253f"/>
      <g id="group" transform="translate(6.099 4.435)" clip-path="url(#clip-path)">
        <g id="lines" transform="translate(-0.427 -0.476)">
          <path id="パス_15" data-name="パス 15" d="M1047.811,737.02l-3.561-2.015.327-.327s2.521,1.842,3.234,2.342" transform="translate(-1042.139 -730.551)" fill="#7a839a"/>
          <path id="パス_16" data-name="パス 16" d="M3.561,2.342,0,.327.327,0s2.52,1.842,3.234,2.342" transform="translate(3.185 2.786) rotate(16)" fill="#7a839a"/>
          <path id="パス_17" data-name="パス 17" d="M3.561,2.342,0,.327.327,0s2.52,1.842,3.234,2.342" transform="matrix(0.848, 0.53, -0.53, 0.848, 4.453, 1.57)" fill="#7a839a"/>
          <path id="パス_18" data-name="パス 18" d="M3.561,2.342,0,.327.327,0s2.52,1.842,3.234,2.342" transform="translate(6.124 1.01) rotate(49)" fill="#7a839a"/>
          <path id="パス_19" data-name="パス 19" d="M4.2,2.8,0,.353.34,0S3.49,2.3,4.2,2.8" transform="matrix(0.485, 0.875, -0.875, 0.485, 7.723, 0)" fill="#7a839a"/>
          <path id="パス_20" data-name="パス 20" d="M3.94,2.734,0,.248.222,0s3,2.234,3.718,2.734" transform="translate(9.324 0.403) rotate(74)" fill="#7a839a"/>
          <path id="パス_21" data-name="パス 21" d="M3.94,2.734,0,.248.222,0s3,2.234,3.718,2.734" transform="matrix(0.052, 0.999, -0.999, 0.052, 11.283, 0.199)" fill="#7a839a"/>
          <path id="パス_22" data-name="パス 22" d="M3.94,2.734,0,.248.222,0s3,2.234,3.718,2.734" transform="matrix(-0.342, 0.94, -0.94, -0.342, 12.795, 2.936)" fill="#7a839a"/>
          <path id="パス_23" data-name="パス 23" d="M3.94,2.734,0,.248.222,0s3,2.234,3.718,2.734" transform="matrix(-0.276, 0.961, -0.961, -0.276, 12.267, 2.071)" fill="#7a839a"/>
          <path id="パス_24" data-name="パス 24" d="M3.94,2.734,0,.248.222,0s3,2.234,3.718,2.734" transform="translate(12.926 4.599) rotate(121)" fill="#7a839a"/>
          <path id="パス_25" data-name="パス 25" d="M3.94,2.734,0,.248.222,0s3,2.234,3.718,2.734" transform="matrix(-0.719, 0.695, -0.695, -0.719, 12.81, 6.18)" fill="#7a839a"/>
          <path id="パス_26" data-name="パス 26" d="M3.94,2.734,0,.248.222,0s3,2.234,3.718,2.734" transform="translate(12.411 7.603) rotate(150)" fill="#7a839a"/>
          <path id="パス_27" data-name="パス 27" d="M3.94,2.734,0,.248.222,0s3,2.234,3.718,2.734" transform="translate(11.926 8.82) rotate(162)" fill="#7a839a"/>
          <path id="パス_28" data-name="パス 28" d="M3.94,2.734,0,.248.222,0s3,2.234,3.718,2.734" transform="translate(11.269 10.503) rotate(-177)" fill="#7a839a"/>
          <path id="パス_29" data-name="パス 29" d="M3.94,2.734,0,.248.222,0s3,2.234,3.718,2.734" transform="translate(10.175 11.456) rotate(-163)" fill="#7a839a"/>
          <path id="パス_30" data-name="パス 30" d="M3.94,2.734,0,.248.222,0s3,2.234,3.718,2.734" transform="translate(9.07 12.475) rotate(-147)" fill="#7a839a"/>
          <path id="パス_31" data-name="パス 31" d="M3.94,2.734,0,.248.222,0s3,2.234,3.718,2.734" transform="translate(7.469 13.628) rotate(-129)" fill="#7a839a"/>
          <path id="パス_32" data-name="パス 32" d="M3.94,2.734,0,.248.222,0s3,2.234,3.718,2.734" transform="translate(5.818 13.672) rotate(-115)" fill="#7a839a"/>
          <path id="パス_33" data-name="パス 33" d="M5.229,3.981,0,.366.091,0S4.515,3.481,5.229,3.981" transform="matrix(-0.242, -0.97, 0.97, -0.242, 3.78, 14.577)" fill="#7a839a"/>
          <path id="パス_34" data-name="パス 34" d="M5.229,3.981,0,.366.091,0S4.515,3.481,5.229,3.981" transform="matrix(-0.017, -1, 1, -0.017, 2.11, 13.738)" fill="#7a839a"/>
          <path id="パス_35" data-name="パス 35" d="M3.94,2.734,0,.248.222,0s3,2.234,3.718,2.734" transform="translate(1.222 12.221) rotate(-76)" fill="#7a839a"/>
          <path id="パス_36" data-name="パス 36" d="M4.39,3.312,0,.273.137,0S3.691,2.721,4.4,3.221" transform="translate(0 11.043) rotate(-66)" fill="#7a839a"/>
          <path id="パス_37" data-name="パス 37" d="M4.041,2.6,0,.283.266,0S3.327,2.1,4.041,2.6" transform="translate(0.886 5.616) rotate(-17)" fill="#7a839a"/>
          <path id="パス_38" data-name="パス 38" d="M4.041,2.6,0,.283.266,0S3.327,2.1,4.041,2.6" transform="translate(0.497 7.345) rotate(-34)" fill="#7a839a"/>
          <path id="パス_39" data-name="パス 39" d="M4.041,2.6,0,.283.266,0S3.327,2.1,4.041,2.6" transform="matrix(0.695, -0.719, 0.719, 0.695, 0.44, 8.88)" fill="#7a839a"/>
        </g>
      </g>
      <path id="center" d="M1085.614,731.945a2.762,2.762,0,0,0,.128-2.739,3.032,3.032,0,0,0,2.017-2.76s2.166,0,3.1-1.168c0,0-.382,1.847.51,2.421a5.544,5.544,0,0,0-2,2.909,6.53,6.53,0,0,0-3.759,1.338" transform="translate(-1076.066 -717.591)" fill="#fff"/>
      <g id="dot" transform="translate(7.303 5.196)">
        <ellipse id="楕円形_1" data-name="楕円形 1" cx="0.235" cy="0.363" rx="0.235" ry="0.363" transform="translate(2.791 2.182) rotate(-31)"/>
        <ellipse id="楕円形_2" data-name="楕円形 2" cx="0.213" cy="0.341" rx="0.213" ry="0.341" transform="translate(3.388 3.291) rotate(-31)"/>
        <ellipse id="楕円形_3" data-name="楕円形 3" cx="0.235" cy="0.363" rx="0.235" ry="0.363" transform="matrix(0.951, -0.309, 0.309, 0.951, 3.914, 2.113)"/>
        <ellipse id="楕円形_4" data-name="楕円形 4" cx="0.217" cy="0.32" rx="0.217" ry="0.32" transform="matrix(0.999, 0.035, -0.035, 0.999, 5.109, 1.664)"/>
        <ellipse id="楕円形_5" data-name="楕円形 5" cx="0.217" cy="0.32" rx="0.217" ry="0.32" transform="matrix(0.978, 0.208, -0.208, 0.978, 5.98, 2.273)"/>
        <ellipse id="楕円形_6" data-name="楕円形 6" cx="0.217" cy="0.32" rx="0.217" ry="0.32" transform="matrix(0.978, 0.208, -0.208, 0.978, 6.577, 0.354)"/>
        <ellipse id="楕円形_7" data-name="楕円形 7" cx="0.217" cy="0.32" rx="0.217" ry="0.32" transform="matrix(0.899, 0.438, -0.438, 0.899, 7.351, 1.054)"/>
        <ellipse id="楕円形_8" data-name="楕円形 8" cx="0.217" cy="0.32" rx="0.217" ry="0.32" transform="translate(8.238 0) rotate(31)"/>
        <ellipse id="楕円形_9" data-name="楕円形 9" cx="0.217" cy="0.32" rx="0.217" ry="0.32" transform="translate(8.932 1.11) rotate(39)"/>
        <ellipse id="楕円形_10" data-name="楕円形 10" cx="0.217" cy="0.32" rx="0.217" ry="0.32" transform="translate(9.146 2.322) rotate(52)"/>
        <ellipse id="楕円形_11" data-name="楕円形 11" cx="0.217" cy="0.32" rx="0.217" ry="0.32" transform="translate(9.336 3.44) rotate(62)"/>
        <ellipse id="楕円形_12" data-name="楕円形 12" cx="0.217" cy="0.32" rx="0.217" ry="0.32" transform="matrix(0.292, 0.956, -0.956, 0.292, 9.028, 4.59)"/>
        <ellipse id="楕円形_13" data-name="楕円形 13" cx="0.217" cy="0.32" rx="0.217" ry="0.32" transform="matrix(-0.052, 0.999, -0.999, -0.052, 9.486, 5.459)"/>
        <ellipse id="楕円形_14" data-name="楕円形 14" cx="0.217" cy="0.32" rx="0.217" ry="0.32" transform="translate(9.046 6.458) rotate(103)"/>
        <ellipse id="楕円形_15" data-name="楕円形 15" cx="0.217" cy="0.32" rx="0.217" ry="0.32" transform="translate(7.999 7.152) rotate(115)"/>
        <ellipse id="楕円形_16" data-name="楕円形 16" cx="0.217" cy="0.32" rx="0.217" ry="0.32" transform="translate(9.088 7.574) rotate(115)"/>
        <ellipse id="楕円形_17" data-name="楕円形 17" cx="0.217" cy="0.32" rx="0.217" ry="0.32" transform="matrix(-0.682, 0.731, -0.731, -0.682, 7.894, 8.207)"/>
        <ellipse id="楕円形_18" data-name="楕円形 18" cx="0.217" cy="0.32" rx="0.217" ry="0.32" transform="translate(7.354 9.029) rotate(148)"/>
        <ellipse id="楕円形_19" data-name="楕円形 19" cx="0.217" cy="0.32" rx="0.217" ry="0.32" transform="translate(6.255 9.055) rotate(168)"/>
        <ellipse id="楕円形_20" data-name="楕円形 20" cx="0.217" cy="0.32" rx="0.217" ry="0.32" transform="translate(5.371 9.712) rotate(-178)"/>
        <ellipse id="楕円形_21" data-name="楕円形 21" cx="0.217" cy="0.32" rx="0.217" ry="0.32" transform="translate(5.499 11.205) rotate(-178)"/>
        <ellipse id="楕円形_22" data-name="楕円形 22" cx="0.217" cy="0.32" rx="0.217" ry="0.32" transform="matrix(-0.94, -0.342, 0.342, -0.94, 4.023, 10.741)"/>
        <ellipse id="楕円形_23" data-name="楕円形 23" cx="0.217" cy="0.32" rx="0.217" ry="0.32" transform="translate(3.107 10.233) rotate(-157)"/>
        <ellipse id="楕円形_24" data-name="楕円形 24" cx="0.217" cy="0.32" rx="0.217" ry="0.32" transform="translate(2.296 11.964) rotate(-157)"/>
        <ellipse id="楕円形_25" data-name="楕円形 25" cx="0.217" cy="0.32" rx="0.217" ry="0.32" transform="translate(0.898 10.876) rotate(-133)"/>
        <ellipse id="楕円形_26" data-name="楕円形 26" cx="0.217" cy="0.32" rx="0.217" ry="0.32" transform="translate(1.297 9.018) rotate(-122)"/>
        <ellipse id="楕円形_27" data-name="楕円形 27" cx="0.217" cy="0.32" rx="0.217" ry="0.32" transform="translate(0.053 8.108) rotate(-97)"/>
        <ellipse id="楕円形_28" data-name="楕円形 28" cx="0.217" cy="0.32" rx="0.217" ry="0.32" transform="matrix(0.052, -0.999, 0.999, 0.052, 0.866, 6.859)"/>
        <ellipse id="楕円形_29" data-name="楕円形 29" cx="0.217" cy="0.32" rx="0.217" ry="0.32" transform="translate(0.125 5.761) rotate(-82)"/>
        <ellipse id="楕円形_30" data-name="楕円形 30" cx="0.217" cy="0.32" rx="0.217" ry="0.32" transform="matrix(0.259, -0.966, 0.966, 0.259, 1.685, 5.717)"/>
        <ellipse id="楕円形_31" data-name="楕円形 31" cx="0.217" cy="0.32" rx="0.217" ry="0.32" transform="translate(1.765 4.674) rotate(-72)"/>
        <ellipse id="楕円形_32" data-name="楕円形 32" cx="0.217" cy="0.32" rx="0.217" ry="0.32" transform="translate(2.401 3.767) rotate(-53)"/>
      </g>
      <g id="dot-2" data-name="dot" transform="translate(0.845 0.739)">
        <ellipse id="楕円形_33" data-name="楕円形 33" cx="0.235" cy="0.256" rx="0.235" ry="0.256" transform="translate(1.055 4.803) rotate(-50)" fill="#fff"/>
        <ellipse id="楕円形_34" data-name="楕円形 34" cx="0.235" cy="0.256" rx="0.235" ry="0.256" transform="translate(2.207 2.712) rotate(-50)" fill="#fff"/>
        <ellipse id="楕円形_35" data-name="楕円形 35" cx="0.235" cy="0.256" rx="0.235" ry="0.256" transform="translate(3.116 4.291) rotate(-50)" fill="#fff"/>
        <ellipse id="楕円形_36" data-name="楕円形 36" cx="0.235" cy="0.256" rx="0.235" ry="0.256" transform="translate(4.56 2.023) rotate(-50)" fill="#fff"/>
        <ellipse id="楕円形_37" data-name="楕円形 37" cx="0.235" cy="0.256" rx="0.235" ry="0.256" transform="translate(5.584 0.36) rotate(-50)" fill="#fff"/>
        <ellipse id="楕円形_38" data-name="楕円形 38" cx="0.235" cy="0.256" rx="0.235" ry="0.256" transform="translate(7.523 1.335) rotate(-50)" fill="#fff"/>
        <ellipse id="楕円形_39" data-name="楕円形 39" cx="0.235" cy="0.256" rx="0.235" ry="0.256" transform="translate(6.111 3.401) rotate(-50)" fill="#fff"/>
        <ellipse id="楕円形_40" data-name="楕円形 40" cx="0.235" cy="0.256" rx="0.235" ry="0.256" transform="translate(4.213 5.747) rotate(-50)" fill="#fff"/>
        <ellipse id="楕円形_41" data-name="楕円形 41" cx="0.235" cy="0.256" rx="0.235" ry="0.256" transform="translate(2.422 7.229) rotate(-50)" fill="#fff"/>
        <ellipse id="楕円形_42" data-name="楕円形 42" cx="0.235" cy="0.256" rx="0.235" ry="0.256" transform="translate(2.901 9.021) rotate(-50)" fill="#fff"/>
        <ellipse id="楕円形_43" data-name="楕円形 43" cx="0.235" cy="0.256" rx="0.235" ry="0.256" transform="translate(0.939 8.485) rotate(-50)" fill="#fff"/>
        <ellipse id="楕円形_44" data-name="楕円形 44" cx="0.235" cy="0.256" rx="0.235" ry="0.256" transform="translate(0.469 6.885) rotate(-50)" fill="#fff"/>
        <ellipse id="楕円形_45" data-name="楕円形 45" cx="0.235" cy="0.256" rx="0.235" ry="0.256" transform="translate(0 9.71) rotate(-50)" fill="#fff"/>
        <ellipse id="楕円形_46" data-name="楕円形 46" cx="0.235" cy="0.256" rx="0.235" ry="0.256" transform="translate(1.514 9.968) rotate(-50)" fill="#fff"/>
        <ellipse id="楕円形_47" data-name="楕円形 47" cx="0.235" cy="0.256" rx="0.235" ry="0.256" transform="translate(0.939 11.846) rotate(-50)" fill="#fff"/>
        <ellipse id="楕円形_48" data-name="楕円形 48" cx="0.235" cy="0.256" rx="0.235" ry="0.256" transform="translate(1.86 13.382) rotate(-50)" fill="#fff"/>
        <ellipse id="楕円形_49" data-name="楕円形 49" cx="0.235" cy="0.256" rx="0.235" ry="0.256" transform="translate(7.523 2.712) rotate(-50)" fill="#fff"/>
        <ellipse id="楕円形_50" data-name="楕円形 50" cx="0.235" cy="0.256" rx="0.235" ry="0.256" transform="translate(10.04 1.048) rotate(-50)" fill="#fff"/>
        <ellipse id="楕円形_51" data-name="楕円形 51" cx="0.235" cy="0.256" rx="0.235" ry="0.256" transform="translate(11.704 0.646) rotate(-50)" fill="#fff"/>
        <ellipse id="楕円形_52" data-name="楕円形 52" cx="0.235" cy="0.256" rx="0.235" ry="0.256" transform="translate(8.547 0.36) rotate(-50)" fill="#fff"/>
      </g>
    </g>
    <g id="fruit-2" data-name="fruit" transform="translate(68.53 17.597)">
      <path id="down-2" data-name="down" d="M8.693,12.315s.287-.261.7-.711a14.062,14.062,0,0,0,1.42-1.848A8.708,8.708,0,0,0,11.956,7.2a4.682,4.682,0,0,0-.125-2.839A8.7,8.7,0,0,0,10.62,2.117,4.837,4.837,0,0,0,9.185.855,5.589,5.589,0,0,0,7.546.261,15.441,15.441,0,0,0,5.722.022a6.788,6.788,0,0,0-1.87.112,9.654,9.654,0,0,0-1.683.5,12.4,12.4,0,0,0-1.337.621c-.37.2-.656.375-.832.486L8.693,12.315" transform="translate(1.458)" fill="#010f27"/>
      <path id="circle-2" data-name="circle" d="M9.266,11.926a2.133,2.133,0,0,0,.369-.253,3.311,3.311,0,0,0,.731-.861,4.029,4.029,0,0,0,.527-1.619,6.742,6.742,0,0,0-.243-2.527,9.658,9.658,0,0,0-1.212-2.72A10.128,10.128,0,0,0,7.683,1.89,8.9,8.9,0,0,0,5.755.561,4.921,4.921,0,0,0,4.024.021,5.242,5.242,0,0,0,2.544.1,3.327,3.327,0,0,0,1.251.644,2.782,2.782,0,0,0,.338,1.781,4.4,4.4,0,0,0,0,3.62,7.537,7.537,0,0,0,.424,5.944,11.416,11.416,0,0,0,1.518,8.257a11.641,11.641,0,0,0,1.545,2,7.566,7.566,0,0,0,1.773,1.389,6.3,6.3,0,0,0,1.658.634,4.5,4.5,0,0,0,1.32.1,3.573,3.573,0,0,0,.938-.2,2.256,2.256,0,0,0,.514-.256" transform="translate(0 1.183)" fill="#16253f"/>
      <g id="group-2" data-name="group" transform="translate(1.274 2.966)" clip-path="url(#clip-path-2)">
        <g id="lines-2" data-name="lines" transform="translate(-0.134 -0.318)">
          <path id="パス_15-2" data-name="パス 15" d="M0,1.566,2.381.219,2.162,0,1.892.2,1.26.658.539,1.18c-.225.162-.42.3-.539.386" transform="translate(4.85 2.76)" fill="#7a839a"/>
          <path id="パス_16-2" data-name="パス 16" d="M.432,2.162,2.349.21,2.079.06,1.873.325l-.48.616-.549.7c-.172.218-.32.406-.412.519" transform="translate(4.224 1.863)" fill="#7a839a"/>
          <path id="パス_17-2" data-name="パス 17" d="M.83,2.59,2.135.185l-.3-.07L1.709.427l-.292.725c-.111.276-.23.568-.334.825s-.2.479-.253.613" transform="translate(3.646 1.05)" fill="#7a839a"/>
          <path id="パス_18-2" data-name="パス 18" d="M1.182,2.824,1.727.143,1.419.165,1.39.5c-.017.2-.041.482-.067.778s-.054.611-.079.887-.047.515-.063.66" transform="translate(2.986 0.676)" fill="#7a839a"/>
          <path id="パス_19-2" data-name="パス 19" d="M1.637,3.366,1.569.115,1.253.2,1.3.612c.031.252.074.593.118.953s.09.738.129,1.062.071.595.086.739" transform="translate(2.116)" fill="#7a839a"/>
          <path id="パス_20-2" data-name="パス 20" d="M1.757,3.036.886.046l-.2.1L.826.517l.324.866c.122.327.25.672.36.969s.2.547.248.685" transform="translate(1.682 0.269)" fill="#7a839a"/>
          <path id="パス_21-2" data-name="パス 21" d="M1.826,2.727.3.009.13.148.352.482l.51.771c.193.291.395.6.568.863s.318.488.4.611" transform="translate(0.96 0.133)" fill="#7a839a"/>
          <path id="パス_22-2" data-name="パス 22" d="M2.619,2.476.156.569l-.105.2.334.22.771.51.86.572c.263.176.483.325.6.408" transform="translate(0.087 1.338)" fill="#7a839a"/>
          <path id="パス_23-2" data-name="パス 23" d="M2.483,2.532.159.458.041.647.359.89l.733.562c.277.213.568.437.818.631s.459.358.573.449" transform="translate(0.44 0.881)" fill="#7a839a"/>
          <path id="パス_24-2" data-name="パス 24" d="M2.924,2.258.142.856l-.066.213.37.153.854.353.954.4c.292.123.536.227.669.286" transform="translate(0 2.134)" fill="#7a839a"/>
          <path id="パス_25-2" data-name="パス 25" d="M3.165,1.83.115,1.2l-.008.222.4.052.916.12,1.024.137c.314.043.577.08.721.1" transform="translate(0.077 2.817)" fill="#7a839a"/>
          <path id="パス_26-2" data-name="パス 26" d="M3.2,1.317.083,1.439l.046.218.4-.046.918-.1,1.027-.115c.315-.034.579-.062.724-.075" transform="translate(0.344 3.5)" fill="#7a839a"/>
          <path id="パス_27-2" data-name="パス 27" d="M3.07.814.051,1.581l.09.2L.52,1.657,1.4,1.363l.981-.326c.3-.1.553-.181.693-.224" transform="translate(0.668 4.159)" fill="#7a839a"/>
          <path id="パス_28-2" data-name="パス 28" d="M2.631,0,.087,1.8l.157.158L.552,1.7l.713-.588c.27-.222.554-.455.8-.655S2.516.09,2.631,0" transform="translate(1.012 5.059)" fill="#7a839a"/>
          <path id="パス_29-2" data-name="パス 29" d="M2.519,0,.486,2.36l.19.115.238-.322.549-.743c.208-.281.427-.576.617-.829S2.43.115,2.519,0" transform="translate(1.305 5.141)" fill="#7a839a"/>
          <path id="パス_30-2" data-name="パス 30" d="M2.209,0,.905,2.829l.215.058.14-.375.323-.866c.123-.327.252-.671.364-.967S2.155.135,2.209,0" transform="translate(1.583 5.373)" fill="#7a839a"/>
          <path id="パス_31-2" data-name="パス 31" d="M1.658,0,1.292,3.093l.222-.011s.006-.156.017-.4.025-.574.04-.923S1.6,1.043,1.618.727,1.648.145,1.658,0" transform="translate(2.228 5.914)" fill="#7a839a"/>
          <path id="パス_32-2" data-name="パス 32" d="M1.113,0l.393,3.09.213-.064-.08-.392c-.049-.239-.115-.563-.185-.906s-.142-.7-.2-1.013S1.139.143,1.113,0" transform="translate(3.095 5.981)" fill="#7a839a"/>
          <path id="パス_33-2" data-name="パス 33" d="M.846,0l1.5,3.977H2.6l-.244-.545c-.148-.33-.347-.776-.553-1.24S1.382,1.249,1.208.851.9.136.846,0" transform="translate(3.533 5.71)" fill="#7a839a"/>
          <path id="パス_34-2" data-name="パス 34" d="M.061,0,2.417,3.538l.246-.057L2.3,3c-.218-.289-.513-.678-.818-1.083S.864,1.1.6.748.142.121.061,0" transform="translate(4.57 5.643)" fill="#7a839a"/>
          <path id="パス_35-2" data-name="パス 35" d="M0,.442,2.25,2.6l.125-.184-.309-.254-.713-.588C1.083,1.348.8,1.114.557.911S.11.538,0,.442" transform="translate(5.415 5.615)" fill="#7a839a"/>
          <path id="パス_36-2" data-name="パス 36" d="M0,.91l3.05,1.855.129-.158-.418-.228-.958-.525c-.36-.2-.735-.4-1.052-.581S.181.951.056.876" transform="translate(5.422 4.693)" fill="#7a839a"/>
          <path id="パス_37-2" data-name="パス 37" d="M0,1.663,3.037.971,2.922.738,2.543.857l-.875.276L.69,1.442,0,1.663" transform="translate(4.958 2.965)" fill="#7a839a"/>
          <path id="パス_38-2" data-name="パス 38" d="M0,1.441l3.106.226-.042-.257-.4,0-.917.008-1.026.01L0,1.441" transform="translate(5.098 3.4)" fill="#7a839a"/>
          <path id="パス_39-2" data-name="パス 39" d="M0,1.208l2.991.867L3,1.815l-.389-.079-.9-.183L.711,1.35,0,1.208" transform="translate(5.221 3.994)" fill="#7a839a"/>
        </g>
      </g>
      <path id="center-2" data-name="center" d="M3.848,4.458a1.162,1.162,0,0,1-.083-.14,1.851,1.851,0,0,1-.2-.968,1.982,1.982,0,0,1,.2-.723,1.644,1.644,0,0,1-.207-.089,2.3,2.3,0,0,1-.457-.3,1.957,1.957,0,0,1-.462-.568A1.941,1.941,0,0,1,2.414.781s-.091,0-.236-.012A4.315,4.315,0,0,1,1.612.683,3.073,3.073,0,0,1,.928.451,1.7,1.7,0,0,1,.341,0S.357.077.371.2A3.185,3.185,0,0,1,.394.666,1.807,1.807,0,0,1,.3,1.2a.785.785,0,0,1-.3.415s.075.057.189.158A5.119,5.119,0,0,1,.614,2.2a3.774,3.774,0,0,1,.452.62,2.088,2.088,0,0,1,.268.741s.086,0,.233.012a4.521,4.521,0,0,1,.6.094,4.509,4.509,0,0,1,.811.265,3.889,3.889,0,0,1,.872.523" transform="translate(3.344 5.139)" fill="#fff"/>
      <g id="dot-3" data-name="dot" transform="translate(2.314 3.474)">
        <path id="楕円形_1-2" data-name="楕円形 1" d="M.384.081A.111.111,0,0,0,.322.066a.175.175,0,0,0-.07.019A.277.277,0,0,0,.184.133.367.367,0,0,0,.087.3.277.277,0,0,0,.076.378a.175.175,0,0,0,.016.07A.107.107,0,0,0,.2.512.175.175,0,0,0,.266.493.277.277,0,0,0,.335.444.359.359,0,0,0,.394.369.359.359,0,0,0,.432.282.277.277,0,0,0,.443.2.175.175,0,0,0,.427.129.111.111,0,0,0,.384.081Z" transform="translate(3.994 1.297)"/>
        <path id="楕円形_2-2" data-name="楕円形 2" d="M.357.073A.1.1,0,0,0,.3.06.162.162,0,0,0,.236.079.265.265,0,0,0,.173.125.358.358,0,0,0,.081.278.265.265,0,0,0,.07.355.162.162,0,0,0,.084.421.1.1,0,0,0,.122.465.1.1,0,0,0,.179.478.162.162,0,0,0,.243.459.265.265,0,0,0,.307.413.349.349,0,0,0,.362.343.349.349,0,0,0,.4.261.265.265,0,0,0,.409.183.162.162,0,0,0,.4.117.1.1,0,0,0,.357.073Z" transform="translate(3.634 2.053)"/>
        <path id="楕円形_3-2" data-name="楕円形 3" d="M.3.048a.111.111,0,0,0-.064,0A.175.175,0,0,0,.172.082.277.277,0,0,0,.116.145a.367.367,0,0,0-.058.18A.277.277,0,0,0,.066.408.175.175,0,0,0,.1.473.111.111,0,0,0,.149.51a.111.111,0,0,0,.064,0A.175.175,0,0,0,.277.476.277.277,0,0,0,.332.414.359.359,0,0,0,.373.328.359.359,0,0,0,.391.234.277.277,0,0,0,.383.15.175.175,0,0,0,.351.085.111.111,0,0,0,.3.048Z" transform="translate(3.313 1.316)"/>
        <path id="楕円形_4-2" data-name="楕円形 4" d="M.145.005A.106.106,0,0,0,.089.024.158.158,0,0,0,.045.071.238.238,0,0,0,.016.14.31.31,0,0,0,.022.307.238.238,0,0,0,.055.374.158.158,0,0,0,.1.418.106.106,0,0,0,.16.433.106.106,0,0,0,.216.414.158.158,0,0,0,.261.366.238.238,0,0,0,.289.3.3.3,0,0,0,.3.214.3.3,0,0,0,.283.131.238.238,0,0,0,.25.064.158.158,0,0,0,.2.02.106.106,0,0,0,.145.005Z" transform="translate(2.672 1.113)"/>
        <path id="楕円形_5-2" data-name="楕円形 5" d="M.142.03A.106.106,0,0,0,.09.058.158.158,0,0,0,.055.113.238.238,0,0,0,.038.186.31.31,0,0,0,.073.349a.238.238,0,0,0,.045.06A.158.158,0,0,0,.172.444.1.1,0,0,0,.283.421.158.158,0,0,0,.318.366.238.238,0,0,0,.335.293.3.3,0,0,0,.329.209.3.3,0,0,0,.3.13.238.238,0,0,0,.256.07.158.158,0,0,0,.2.035.106.106,0,0,0,.142.03Z" transform="translate(2.096 1.52)"/>
        <path id="楕円形_6-2" data-name="楕円形 6" d="M.142.03A.106.106,0,0,0,.09.058.158.158,0,0,0,.055.113.238.238,0,0,0,.038.186.31.31,0,0,0,.073.349a.238.238,0,0,0,.045.06A.158.158,0,0,0,.172.444.1.1,0,0,0,.283.421.158.158,0,0,0,.318.366.238.238,0,0,0,.335.293.3.3,0,0,0,.329.209.3.3,0,0,0,.3.13.238.238,0,0,0,.256.07.158.158,0,0,0,.2.035.106.106,0,0,0,.142.03Z" transform="translate(1.697 0.236)"/>
        <path id="楕円形_7-2" data-name="楕円形 7" d="M.131.064A.106.106,0,0,0,.087.1.158.158,0,0,0,.066.165a.238.238,0,0,0,0,.075.31.31,0,0,0,.073.15A.238.238,0,0,0,.2.437.158.158,0,0,0,.26.458a.1.1,0,0,0,.1-.05A.158.158,0,0,0,.383.347a.238.238,0,0,0,0-.075A.3.3,0,0,0,.355.192.3.3,0,0,0,.308.122.238.238,0,0,0,.25.075.158.158,0,0,0,.189.054.106.106,0,0,0,.131.064Z" transform="translate(1.202 0.705)"/>
        <path id="楕円形_8-2" data-name="楕円形 8" d="M.125.075a.106.106,0,0,0-.04.044A.158.158,0,0,0,.069.181.238.238,0,0,0,.077.256.31.31,0,0,0,.163.4.238.238,0,0,0,.225.441.158.158,0,0,0,.288.456.1.1,0,0,0,.385.4.158.158,0,0,0,.4.335.238.238,0,0,0,.392.261.31.31,0,0,0,.307.118.238.238,0,0,0,.245.076.158.158,0,0,0,.182.06.106.106,0,0,0,.125.075Z" transform="translate(0.621)"/>
        <path id="楕円形_9-2" data-name="楕円形 9" d="M.113.091A.106.106,0,0,0,.08.14.158.158,0,0,0,.072.2.238.238,0,0,0,.091.277.31.31,0,0,0,.2.407.238.238,0,0,0,.263.44.158.158,0,0,0,.328.446.1.1,0,0,0,.416.375.158.158,0,0,0,.423.311.238.238,0,0,0,.4.238.31.31,0,0,0,.3.109.238.238,0,0,0,.232.075.158.158,0,0,0,.167.069.106.106,0,0,0,.113.091Z" transform="translate(0.181 0.742)"/>
        <path id="楕円形_10-2" data-name="楕円形 10" d="M.089.114A.106.106,0,0,0,.068.169.158.158,0,0,0,.076.234.238.238,0,0,0,.11.3.31.31,0,0,0,.241.4.238.238,0,0,0,.314.42.158.158,0,0,0,.379.412.1.1,0,0,0,.448.323.158.158,0,0,0,.44.258.238.238,0,0,0,.406.192a.31.31,0,0,0-.131-.1A.238.238,0,0,0,.2.072.158.158,0,0,0,.137.08.106.106,0,0,0,.089.114Z" transform="translate(0.085 1.552)"/>
        <path id="楕円形_11-2" data-name="楕円形 11" d="M.068.128A.106.106,0,0,0,.056.186.158.158,0,0,0,.075.248.238.238,0,0,0,.121.308.31.31,0,0,0,.268.386a.238.238,0,0,0,.075,0A.158.158,0,0,0,.4.371a.1.1,0,0,0,.053-.1A.158.158,0,0,0,.439.209.238.238,0,0,0,.393.15.31.31,0,0,0,.246.071a.238.238,0,0,0-.075,0A.158.158,0,0,0,.11.086.106.106,0,0,0,.068.128Z" transform="translate(0 2.3)"/>
        <path id="楕円形_12-2" data-name="楕円形 12" d="M.042.139A.106.106,0,0,0,.042.2a.158.158,0,0,0,.03.058.238.238,0,0,0,.056.05A.3.3,0,0,0,.2.34.3.3,0,0,0,.288.354.238.238,0,0,0,.362.344.158.158,0,0,0,.419.313.1.1,0,0,0,.452.205.158.158,0,0,0,.422.147.238.238,0,0,0,.366.1.31.31,0,0,0,.207.049a.238.238,0,0,0-.074.01A.158.158,0,0,0,.075.09.106.106,0,0,0,.042.139Z" transform="translate(0.257 3.069)"/>
        <path id="楕円形_13-2" data-name="楕円形 13" d="M.008.167a.106.106,0,0,0,.02.056A.158.158,0,0,0,.076.267a.238.238,0,0,0,.07.028A.3.3,0,0,0,.229.3.3.3,0,0,0,.311.286.238.238,0,0,0,.378.251.158.158,0,0,0,.421.2.106.106,0,0,0,.435.145.106.106,0,0,0,.415.089.158.158,0,0,0,.367.046.238.238,0,0,0,.3.018.31.31,0,0,0,.131.027.238.238,0,0,0,.065.062.158.158,0,0,0,.021.11.106.106,0,0,0,.008.167Z" transform="translate(0.036 3.628)"/>
        <path id="楕円形_14-2" data-name="楕円形 14" d="M.033.238A.106.106,0,0,0,.062.289.158.158,0,0,0,.117.324.238.238,0,0,0,.19.339.3.3,0,0,0,.274.331.3.3,0,0,0,.352.3.238.238,0,0,0,.412.256.158.158,0,0,0,.446.2.1.1,0,0,0,.421.09.158.158,0,0,0,.365.056.238.238,0,0,0,.292.041.31.31,0,0,0,.13.078.238.238,0,0,0,.071.124.158.158,0,0,0,.036.179.106.106,0,0,0,.033.238Z" transform="translate(0.33 4.222)"/>
        <path id="楕円形_15-2" data-name="楕円形 15" d="M.061.312A.106.106,0,0,0,.1.357.158.158,0,0,0,.162.379a.238.238,0,0,0,.075,0A.3.3,0,0,0,.317.354.3.3,0,0,0,.387.308.238.238,0,0,0,.436.251.158.158,0,0,0,.458.19.1.1,0,0,0,.41.088.158.158,0,0,0,.349.065a.238.238,0,0,0-.075,0,.31.31,0,0,0-.151.07A.238.238,0,0,0,.075.193.158.158,0,0,0,.053.254.106.106,0,0,0,.061.312Z" transform="translate(1.03 4.601)"/>
        <path id="楕円形_16-2" data-name="楕円形 16" d="M.061.312A.106.106,0,0,0,.1.357.158.158,0,0,0,.162.379a.238.238,0,0,0,.075,0A.3.3,0,0,0,.317.354.3.3,0,0,0,.387.308.238.238,0,0,0,.436.251.158.158,0,0,0,.458.19.1.1,0,0,0,.41.088.158.158,0,0,0,.349.065a.238.238,0,0,0-.075,0,.31.31,0,0,0-.151.07A.238.238,0,0,0,.075.193.158.158,0,0,0,.053.254.106.106,0,0,0,.061.312Z" transform="translate(0.302 4.883)"/>
        <path id="楕円形_17-2" data-name="楕円形 17" d="M.1.4A.106.106,0,0,0,.15.428a.158.158,0,0,0,.065,0A.238.238,0,0,0,.286.407.31.31,0,0,0,.408.293.238.238,0,0,0,.436.224a.158.158,0,0,0,0-.065A.1.1,0,0,0,.361.076.158.158,0,0,0,.3.074.238.238,0,0,0,.225.1.31.31,0,0,0,.1.211.238.238,0,0,0,.075.28a.158.158,0,0,0,0,.065A.106.106,0,0,0,.1.4Z" transform="translate(1.1 5.195)"/>
        <path id="楕円形_18-2" data-name="楕円形 18" d="M.123.44A.106.106,0,0,0,.18.456.158.158,0,0,0,.243.441.238.238,0,0,0,.306.4.31.31,0,0,0,.394.259.238.238,0,0,0,.4.185.158.158,0,0,0,.389.121a.1.1,0,0,0-.1-.06A.158.158,0,0,0,.23.076.238.238,0,0,0,.167.117.31.31,0,0,0,.079.258a.238.238,0,0,0-.01.074A.158.158,0,0,0,.084.4.106.106,0,0,0,.123.44Z" transform="translate(1.462 5.674)"/>
        <path id="楕円形_19-2" data-name="楕円形 19" d="M.142.449A.106.106,0,0,0,.2.444.158.158,0,0,0,.256.409.238.238,0,0,0,.3.349.3.3,0,0,0,.329.27.3.3,0,0,0,.335.186.238.238,0,0,0,.318.113.158.158,0,0,0,.283.058.1.1,0,0,0,.172.035.158.158,0,0,0,.118.07.238.238,0,0,0,.073.13.31.31,0,0,0,.038.293.238.238,0,0,0,.055.366.158.158,0,0,0,.09.421.106.106,0,0,0,.142.449Z" transform="translate(2.196 5.636)"/>
        <path id="楕円形_20-2" data-name="楕円形 20" d="M.16.433A.106.106,0,0,0,.216.414.158.158,0,0,0,.261.367.238.238,0,0,0,.289.3.3.3,0,0,0,.3.214.3.3,0,0,0,.283.131.238.238,0,0,0,.25.064.158.158,0,0,0,.2.02.106.106,0,0,0,.145.005.106.106,0,0,0,.089.024.158.158,0,0,0,.045.071.238.238,0,0,0,.016.14.31.31,0,0,0,.022.307.238.238,0,0,0,.055.374.158.158,0,0,0,.1.418.106.106,0,0,0,.16.433Z" transform="translate(2.772 6.056)"/>
        <path id="楕円形_21-2" data-name="楕円形 21" d="M.16.433A.106.106,0,0,0,.216.414.158.158,0,0,0,.261.367.238.238,0,0,0,.289.3.3.3,0,0,0,.3.214.3.3,0,0,0,.283.131.238.238,0,0,0,.25.064.158.158,0,0,0,.2.02.106.106,0,0,0,.145.005.106.106,0,0,0,.089.024.158.158,0,0,0,.045.071.238.238,0,0,0,.016.14.31.31,0,0,0,.022.307.238.238,0,0,0,.055.374.158.158,0,0,0,.1.418.106.106,0,0,0,.16.433Z" transform="translate(2.687 7.054)"/>
        <path id="楕円形_22-2" data-name="楕円形 22" d="M.283.452A.106.106,0,0,0,.33.417.158.158,0,0,0,.358.358.238.238,0,0,0,.364.283.3.3,0,0,0,.346.2.3.3,0,0,0,.307.127.238.238,0,0,0,.254.073.158.158,0,0,0,.2.046.1.1,0,0,0,.089.085.158.158,0,0,0,.061.144.238.238,0,0,0,.055.218.31.31,0,0,0,.112.375.238.238,0,0,0,.165.428.158.158,0,0,0,.224.455.106.106,0,0,0,.283.452Z" transform="translate(3.542 6.68)"/>
        <path id="楕円形_23-2" data-name="楕円形 23" d="M.3.451A.106.106,0,0,0,.346.413.158.158,0,0,0,.371.353a.238.238,0,0,0,0-.075A.3.3,0,0,0,.351.2.3.3,0,0,0,.308.125.238.238,0,0,0,.253.074.158.158,0,0,0,.192.05a.1.1,0,0,0-.1.044.158.158,0,0,0-.025.06.238.238,0,0,0,0,.075A.31.31,0,0,0,.127.383a.238.238,0,0,0,.055.05.158.158,0,0,0,.06.024A.106.106,0,0,0,.3.451Z" transform="translate(4.134 6.335)"/>
        <path id="楕円形_24-2" data-name="楕円形 24" d="M.3.451A.106.106,0,0,0,.346.413.158.158,0,0,0,.371.353a.238.238,0,0,0,0-.075A.3.3,0,0,0,.351.2.3.3,0,0,0,.308.125.238.238,0,0,0,.253.074.158.158,0,0,0,.192.05a.1.1,0,0,0-.1.044.158.158,0,0,0-.025.06.238.238,0,0,0,0,.075A.31.31,0,0,0,.127.383a.238.238,0,0,0,.055.05.158.158,0,0,0,.06.024A.106.106,0,0,0,.3.451Z" transform="translate(4.676 7.492)"/>
        <path id="楕円形_25-2" data-name="楕円形 25" d="M.412.4A.106.106,0,0,0,.438.345a.158.158,0,0,0,0-.065A.238.238,0,0,0,.408.211.31.31,0,0,0,.286.1.238.238,0,0,0,.215.074a.158.158,0,0,0-.065,0A.1.1,0,0,0,.073.159a.158.158,0,0,0,0,.065A.238.238,0,0,0,.1.293.31.31,0,0,0,.225.407.238.238,0,0,0,.3.43a.158.158,0,0,0,.065,0A.106.106,0,0,0,.412.4Z" transform="translate(5.465 6.767)"/>
        <path id="楕円形_26-2" data-name="楕円形 26" d="M.44.35A.106.106,0,0,0,.456.293.158.158,0,0,0,.441.23.238.238,0,0,0,.4.167.31.31,0,0,0,.259.079.238.238,0,0,0,.185.069.158.158,0,0,0,.121.084a.1.1,0,0,0-.06.1A.158.158,0,0,0,.076.243.238.238,0,0,0,.117.306.31.31,0,0,0,.258.394.238.238,0,0,0,.332.4.158.158,0,0,0,.4.389.106.106,0,0,0,.44.35Z" transform="translate(5.148 5.556)"/>
        <path id="楕円形_27-2" data-name="楕円形 27" d="M.442.2A.106.106,0,0,0,.433.138.158.158,0,0,0,.393.087.238.238,0,0,0,.329.048.31.31,0,0,0,.164.027.238.238,0,0,0,.092.05.158.158,0,0,0,.041.09.106.106,0,0,0,.018.144.106.106,0,0,0,.027.2a.158.158,0,0,0,.04.051A.238.238,0,0,0,.131.293.3.3,0,0,0,.212.314.3.3,0,0,0,.3.313.238.238,0,0,0,.368.291.158.158,0,0,0,.419.25.106.106,0,0,0,.442.2Z" transform="translate(5.918 5.08)"/>
        <path id="楕円形_28-2" data-name="楕円形 28" d="M.435.145A.106.106,0,0,0,.415.089.158.158,0,0,0,.367.046.238.238,0,0,0,.3.018.31.31,0,0,0,.131.027.238.238,0,0,0,.065.062.158.158,0,0,0,.021.11.1.1,0,0,0,.027.223.158.158,0,0,0,.076.267a.238.238,0,0,0,.07.028A.3.3,0,0,0,.229.3.3.3,0,0,0,.311.286.238.238,0,0,0,.378.251.158.158,0,0,0,.421.2.106.106,0,0,0,.435.145Z" transform="translate(5.357 4.296)"/>
        <path id="楕円形_29-2" data-name="楕円形 29" d="M.444.144A.106.106,0,0,0,.419.09.158.158,0,0,0,.368.051.238.238,0,0,0,.3.029.31.31,0,0,0,.131.053a.238.238,0,0,0-.063.04A.158.158,0,0,0,.029.145.1.1,0,0,0,.045.257.158.158,0,0,0,.1.3.238.238,0,0,0,.168.318a.3.3,0,0,0,.084,0A.3.3,0,0,0,.333.295.238.238,0,0,0,.4.254.158.158,0,0,0,.435.2.106.106,0,0,0,.444.144Z" transform="translate(5.831 3.564)"/>
        <path id="楕円形_30-2" data-name="楕円形 30" d="M.451.14A.106.106,0,0,0,.42.09.158.158,0,0,0,.364.057.238.238,0,0,0,.29.045.31.31,0,0,0,.129.088.238.238,0,0,0,.072.136.158.158,0,0,0,.039.192.1.1,0,0,0,.068.3.158.158,0,0,0,.125.334.238.238,0,0,0,.2.346.3.3,0,0,0,.282.336.3.3,0,0,0,.359.3.238.238,0,0,0,.417.256.158.158,0,0,0,.449.2.106.106,0,0,0,.451.14Z" transform="translate(4.763 3.542)"/>
        <path id="楕円形_31-2" data-name="楕円形 31" d="M.452.138A.106.106,0,0,0,.418.09.158.158,0,0,0,.361.06.238.238,0,0,0,.286.051.31.31,0,0,0,.128.1.238.238,0,0,0,.073.153.158.158,0,0,0,.043.211.1.1,0,0,0,.078.319a.158.158,0,0,0,.058.03A.238.238,0,0,0,.211.357.3.3,0,0,0,.293.342.3.3,0,0,0,.369.306.238.238,0,0,0,.424.255.158.158,0,0,0,.453.2.106.106,0,0,0,.452.138Z" transform="translate(4.702 2.849)"/>
        <path id="楕円形_32-2" data-name="楕円形 32" d="M.429.116A.106.106,0,0,0,.382.081.158.158,0,0,0,.317.072.238.238,0,0,0,.244.088a.31.31,0,0,0-.133.1A.238.238,0,0,0,.076.254.158.158,0,0,0,.067.318a.1.1,0,0,0,.068.09A.158.158,0,0,0,.2.418.238.238,0,0,0,.272.4.31.31,0,0,0,.405.3.238.238,0,0,0,.441.236.158.158,0,0,0,.45.171.106.106,0,0,0,.429.116Z" transform="translate(4.256 2.287)"/>
      </g>
      <g id="dot-4" data-name="dot" transform="translate(4.721 0.494)">
        <path id="楕円形_33-2" data-name="楕円形 33" d="M.363.12A.145.145,0,0,0,.314.082.157.157,0,0,0,.253.067.173.173,0,0,0,.19.077a.186.186,0,0,0-.1.086.173.173,0,0,0-.02.061.157.157,0,0,0,0,.062A.145.145,0,0,0,.15.378a.157.157,0,0,0,.06.015A.173.173,0,0,0,.274.384.186.186,0,0,0,.376.3.173.173,0,0,0,.4.237a.157.157,0,0,0,0-.062A.145.145,0,0,0,.363.12Z" transform="translate(7.12 2.971)" fill="#fff"/>
        <path id="楕円形_34-2" data-name="楕円形 34" d="M.363.12A.145.145,0,0,0,.314.082.157.157,0,0,0,.253.067.173.173,0,0,0,.19.077a.186.186,0,0,0-.1.086.173.173,0,0,0-.02.061.157.157,0,0,0,0,.062A.145.145,0,0,0,.15.378a.157.157,0,0,0,.06.015A.173.173,0,0,0,.274.384.186.186,0,0,0,.376.3.173.173,0,0,0,.4.237a.157.157,0,0,0,0-.062A.145.145,0,0,0,.363.12Z" transform="translate(6.349 1.573)" fill="#fff"/>
        <path id="楕円形_35-2" data-name="楕円形 35" d="M.363.12A.145.145,0,0,0,.314.082.157.157,0,0,0,.253.067.173.173,0,0,0,.19.077a.186.186,0,0,0-.1.086.173.173,0,0,0-.02.061.157.157,0,0,0,0,.062A.145.145,0,0,0,.15.378a.157.157,0,0,0,.06.015A.173.173,0,0,0,.274.384.186.186,0,0,0,.376.3.173.173,0,0,0,.4.237a.157.157,0,0,0,0-.062A.145.145,0,0,0,.363.12Z" transform="translate(5.742 2.628)" fill="#fff"/>
        <path id="楕円形_36-2" data-name="楕円形 36" d="M.363.12A.145.145,0,0,0,.314.082.157.157,0,0,0,.253.067.173.173,0,0,0,.19.077a.186.186,0,0,0-.1.086.173.173,0,0,0-.02.061.157.157,0,0,0,0,.062A.145.145,0,0,0,.15.378a.157.157,0,0,0,.06.015A.173.173,0,0,0,.274.384.186.186,0,0,0,.376.3.173.173,0,0,0,.4.237a.157.157,0,0,0,0-.062A.145.145,0,0,0,.363.12Z" transform="translate(4.776 1.113)" fill="#fff"/>
        <path id="楕円形_37-2" data-name="楕円形 37" d="M.363.12A.145.145,0,0,0,.314.082.157.157,0,0,0,.253.067.173.173,0,0,0,.19.077a.186.186,0,0,0-.1.086.173.173,0,0,0-.02.061.157.157,0,0,0,0,.062A.145.145,0,0,0,.15.378a.157.157,0,0,0,.06.015A.173.173,0,0,0,.274.384.186.186,0,0,0,.376.3.173.173,0,0,0,.4.237a.157.157,0,0,0,0-.062A.145.145,0,0,0,.363.12Z" transform="translate(4.092 0)" fill="#fff"/>
        <path id="楕円形_38-2" data-name="楕円形 38" d="M.363.12A.145.145,0,0,0,.314.082.157.157,0,0,0,.253.067.173.173,0,0,0,.19.077a.186.186,0,0,0-.1.086.173.173,0,0,0-.02.061.157.157,0,0,0,0,.062A.145.145,0,0,0,.15.378a.157.157,0,0,0,.06.015A.173.173,0,0,0,.274.384.186.186,0,0,0,.376.3.173.173,0,0,0,.4.237a.157.157,0,0,0,0-.062A.145.145,0,0,0,.363.12Z" transform="translate(2.796 0.652)" fill="#fff"/>
        <path id="楕円形_39-2" data-name="楕円形 39" d="M.363.12A.145.145,0,0,0,.314.082.157.157,0,0,0,.253.067.173.173,0,0,0,.19.077a.186.186,0,0,0-.1.086.173.173,0,0,0-.02.061.157.157,0,0,0,0,.062A.145.145,0,0,0,.15.378a.157.157,0,0,0,.06.015A.173.173,0,0,0,.274.384.186.186,0,0,0,.376.3.173.173,0,0,0,.4.237a.157.157,0,0,0,0-.062A.145.145,0,0,0,.363.12Z" transform="translate(3.739 2.033)" fill="#fff"/>
        <path id="楕円形_40-2" data-name="楕円形 40" d="M.363.12A.145.145,0,0,0,.314.082.157.157,0,0,0,.253.067.173.173,0,0,0,.19.077a.186.186,0,0,0-.1.086.173.173,0,0,0-.02.061.157.157,0,0,0,0,.062A.145.145,0,0,0,.15.378a.157.157,0,0,0,.06.015A.173.173,0,0,0,.274.384.186.186,0,0,0,.376.3.173.173,0,0,0,.4.237a.157.157,0,0,0,0-.062A.145.145,0,0,0,.363.12Z" transform="translate(5.008 3.602)" fill="#fff"/>
        <path id="楕円形_41-2" data-name="楕円形 41" d="M.363.12A.145.145,0,0,0,.314.082.157.157,0,0,0,.253.067.173.173,0,0,0,.19.077a.186.186,0,0,0-.1.086.173.173,0,0,0-.02.061.157.157,0,0,0,0,.062A.145.145,0,0,0,.15.378a.157.157,0,0,0,.06.015A.173.173,0,0,0,.274.384.186.186,0,0,0,.376.3.173.173,0,0,0,.4.237a.157.157,0,0,0,0-.062A.145.145,0,0,0,.363.12Z" transform="translate(6.206 4.593)" fill="#fff"/>
        <path id="楕円形_42-2" data-name="楕円形 42" d="M.363.12A.145.145,0,0,0,.314.082.157.157,0,0,0,.253.067.173.173,0,0,0,.19.077a.186.186,0,0,0-.1.086.173.173,0,0,0-.02.061.157.157,0,0,0,0,.062A.145.145,0,0,0,.15.378a.157.157,0,0,0,.06.015A.173.173,0,0,0,.274.384.186.186,0,0,0,.376.3.173.173,0,0,0,.4.237a.157.157,0,0,0,0-.062A.145.145,0,0,0,.363.12Z" transform="translate(5.885 5.791)" fill="#fff"/>
        <path id="楕円形_43-2" data-name="楕円形 43" d="M.363.12A.145.145,0,0,0,.314.082.157.157,0,0,0,.253.067.173.173,0,0,0,.19.077a.186.186,0,0,0-.1.086.173.173,0,0,0-.02.061.157.157,0,0,0,0,.062A.145.145,0,0,0,.15.378a.157.157,0,0,0,.06.015A.173.173,0,0,0,.274.384.186.186,0,0,0,.376.3.173.173,0,0,0,.4.237a.157.157,0,0,0,0-.062A.145.145,0,0,0,.363.12Z" transform="translate(7.198 5.433)" fill="#fff"/>
        <path id="楕円形_44-2" data-name="楕円形 44" d="M.363.12A.145.145,0,0,0,.314.082.157.157,0,0,0,.253.067.173.173,0,0,0,.19.077a.186.186,0,0,0-.1.086.173.173,0,0,0-.02.061.157.157,0,0,0,0,.062A.145.145,0,0,0,.15.378a.157.157,0,0,0,.06.015A.173.173,0,0,0,.274.384.186.186,0,0,0,.376.3.173.173,0,0,0,.4.237a.157.157,0,0,0,0-.062A.145.145,0,0,0,.363.12Z" transform="translate(7.512 4.363)" fill="#fff"/>
        <path id="楕円形_45-2" data-name="楕円形 45" d="M.363.12A.145.145,0,0,0,.314.082.157.157,0,0,0,.253.067.173.173,0,0,0,.19.077a.186.186,0,0,0-.1.086.173.173,0,0,0-.02.061.157.157,0,0,0,0,.062A.145.145,0,0,0,.15.378a.157.157,0,0,0,.06.015A.173.173,0,0,0,.274.384.186.186,0,0,0,.376.3.173.173,0,0,0,.4.237a.157.157,0,0,0,0-.062A.145.145,0,0,0,.363.12Z" transform="translate(7.825 6.252)" fill="#fff"/>
        <path id="楕円形_46-2" data-name="楕円形 46" d="M.363.12A.145.145,0,0,0,.314.082.157.157,0,0,0,.253.067.173.173,0,0,0,.19.077a.186.186,0,0,0-.1.086.173.173,0,0,0-.02.061.157.157,0,0,0,0,.062A.145.145,0,0,0,.15.378a.157.157,0,0,0,.06.015A.173.173,0,0,0,.274.384.186.186,0,0,0,.376.3.173.173,0,0,0,.4.237a.157.157,0,0,0,0-.062A.145.145,0,0,0,.363.12Z" transform="translate(6.813 6.425)" fill="#fff"/>
        <path id="楕円形_47-2" data-name="楕円形 47" d="M.363.12A.145.145,0,0,0,.314.082.157.157,0,0,0,.253.067.173.173,0,0,0,.19.077a.186.186,0,0,0-.1.086.173.173,0,0,0-.02.061.157.157,0,0,0,0,.062A.145.145,0,0,0,.15.378a.157.157,0,0,0,.06.015A.173.173,0,0,0,.274.384.186.186,0,0,0,.376.3.173.173,0,0,0,.4.237a.157.157,0,0,0,0-.062A.145.145,0,0,0,.363.12Z" transform="translate(7.198 7.68)" fill="#fff"/>
        <path id="楕円形_48-2" data-name="楕円形 48" d="M.363.12A.145.145,0,0,0,.314.082.157.157,0,0,0,.253.067.173.173,0,0,0,.19.077a.186.186,0,0,0-.1.086.173.173,0,0,0-.02.061.157.157,0,0,0,0,.062A.145.145,0,0,0,.15.378a.157.157,0,0,0,.06.015A.173.173,0,0,0,.274.384.186.186,0,0,0,.376.3.173.173,0,0,0,.4.237a.157.157,0,0,0,0-.062A.145.145,0,0,0,.363.12Z" transform="translate(6.581 8.707)" fill="#fff"/>
        <path id="楕円形_49-2" data-name="楕円形 49" d="M.363.12A.145.145,0,0,0,.314.082.157.157,0,0,0,.253.067.173.173,0,0,0,.19.077a.186.186,0,0,0-.1.086.173.173,0,0,0-.02.061.157.157,0,0,0,0,.062A.145.145,0,0,0,.15.378a.157.157,0,0,0,.06.015A.173.173,0,0,0,.274.384.186.186,0,0,0,.376.3.173.173,0,0,0,.4.237a.157.157,0,0,0,0-.062A.145.145,0,0,0,.363.12Z" transform="translate(2.796 1.573)" fill="#fff"/>
        <path id="楕円形_50-2" data-name="楕円形 50" d="M.363.12A.145.145,0,0,0,.314.082.157.157,0,0,0,.253.067.173.173,0,0,0,.19.077a.186.186,0,0,0-.1.086.173.173,0,0,0-.02.061.157.157,0,0,0,0,.062A.145.145,0,0,0,.15.378a.157.157,0,0,0,.06.015A.173.173,0,0,0,.274.384.186.186,0,0,0,.376.3.173.173,0,0,0,.4.237a.157.157,0,0,0,0-.062A.145.145,0,0,0,.363.12Z" transform="translate(1.113 0.46)" fill="#fff"/>
        <path id="楕円形_51-2" data-name="楕円形 51" d="M.363.12A.145.145,0,0,0,.314.082.157.157,0,0,0,.253.067.173.173,0,0,0,.19.077a.186.186,0,0,0-.1.086.173.173,0,0,0-.02.061.157.157,0,0,0,0,.062A.145.145,0,0,0,.15.378a.157.157,0,0,0,.06.015A.173.173,0,0,0,.274.384.186.186,0,0,0,.376.3.173.173,0,0,0,.4.237a.157.157,0,0,0,0-.062A.145.145,0,0,0,.363.12Z" transform="translate(0 0.192)" fill="#fff"/>
        <path id="楕円形_52-2" data-name="楕円形 52" d="M.363.12A.145.145,0,0,0,.314.082.157.157,0,0,0,.253.067.173.173,0,0,0,.19.077a.186.186,0,0,0-.1.086.173.173,0,0,0-.02.061.157.157,0,0,0,0,.062A.145.145,0,0,0,.15.378a.157.157,0,0,0,.06.015A.173.173,0,0,0,.274.384.186.186,0,0,0,.376.3.173.173,0,0,0,.4.237a.157.157,0,0,0,0-.062A.145.145,0,0,0,.363.12Z" transform="translate(2.111 0)" fill="#fff"/>
      </g>
    </g>
  </g>
</svg>
