<svg xmlns="http://www.w3.org/2000/svg" xmlns:xlink="http://www.w3.org/1999/xlink" width="375" height="576" viewBox="0 0 375 576">
  <defs>
    <clipPath id="clip-path">
      <rect id="frame" width="375" height="576" transform="translate(4516.42 -235.422)" fill="none"/>
    </clipPath>
  </defs>
  <g id="bg-01" transform="translate(-4516.42 235.422)" clip-path="url(#clip-path)">
    <path id="bg_white" d="M4891.42,410.028l-28.543-18.555a123.53,123.53,0,0,0-32.63-18.555l-33.271-8.318-38.389-31.351-33.911-7.678L4692.04,308.3l-36.47-5.758-30.07-17.919-35.83-10.877-38.194-8.192-33.751-21.821-1.307-407.809H4889.8l1.616,574.1" transform="translate(0 -70.982)" fill="#fff"/>
    <path id="line" d="M4893.11,274.178l-31.7-20.205s-19.946-19.3-64.242-26.163l-38.986-31.862-33.514-7.124-32.51-17.615-35.78-5.116L4625.94,147.7l-34.518-10.426-40.411-8.937-36.072-23.832" transform="translate(0 66)" fill="none" stroke="#423607" stroke-width="0.7"/>
    <g id="scissors" transform="matrix(0.891, 0.454, -0.454, 0.891, 4740.946, 101.516)">
      <g id="scissors_3" transform="translate(122.628 78.321)">
        <path id="si_5" d="M56.552,0a29.98,29.98,0,1,1-29.98,29.98c0-.48-.025-.353,0-.874l-25.48-.334L0,26.366C3.627,20.873,15.71,7.135,15.71,7.135s10.49,8.492,23.122-1.35A29.836,29.836,0,0,1,56.552,0Z" transform="translate(0.059 2.719)" fill="#b0b0b0"/>
        <path id="si_5-2" data-name="si_5" d="M55.351,0a29.98,29.98,0,1,1-29.98,29.98c0-.48-.025-.353,0-.874H0L14.509,7.135S25,15.627,37.63,5.785A29.836,29.836,0,0,1,55.351,0Z" fill="#1b6666"/>
        <circle id="si_6" cx="16.027" cy="16.027" r="16.027" transform="translate(38.826 13.848)" fill="#fff"/>
        <path id="si_6-2" data-name="si_6" d="M16.027,0A16.052,16.052,0,0,1,29.685,7.637h0S21.229,1.2,13.427,3.4,3.651,7.607,0,16.027H0A16.015,16.015,0,0,1,16.027,0Z" transform="translate(38.826 13.848)" fill="#d3d3d3"/>
      </g>
      <g id="scissors_2" transform="translate(71.884)">
        <path id="si_1" d="M59.184,0A30.506,30.506,0,0,1,71.345,58.512c-2.179.948-16.444,5.708-9.734,21.694L25.1,134.908c-4.2-.886-8.566-2.636-12.693-2.62C6.3,132.522,0,135.592,0,135.592c2.227-5.142,44.611-78.253,44.611-78.253A30.5,30.5,0,0,1,59.184,0Z" transform="translate(3.401 2.62)" fill="#b0b0b0" opacity="0.7"/>
        <g id="si_2" transform="translate(45.699 18.37)" fill="#fff" stroke="#707070" stroke-width="1">
          <circle cx="16.35" cy="16.35" r="16.35" stroke="none"/>
          <circle cx="16.35" cy="16.35" r="15.85" fill="none"/>
        </g>
        <g id="si_3" transform="translate(34.297 93.673)" fill="#fff" stroke="#707070" stroke-width="1">
          <circle cx="5.916" cy="5.916" r="5.916" stroke="none"/>
          <circle cx="5.916" cy="5.916" r="5.416" fill="none"/>
        </g>
        <path id="si_1-2" data-name="si_1" d="M60.91,0A30.507,30.507,0,0,1,73.071,58.514c-2.179.948-17.337,7.636-10.627,23.623L26.682,137.146,16.3,134.976-.419,139.529c2.227-5.142,46.756-82.188,46.756-82.188A30.5,30.5,0,0,1,60.91,0Z" fill="#5b6981"/>
        <path id="si_2-2" data-name="si_2" d="M16.35,0A16.243,16.243,0,1,1,0,16.242,16.243,16.243,0,0,1,16.35,0Z" transform="translate(43.978 14.928)" fill="#fff"/>
        <g id="si_3-2" data-name="si_3" transform="translate(32.361 90.023)" fill="#fff" stroke="#707070" stroke-width="1">
          <circle cx="5.916" cy="5.916" r="5.916" stroke="none"/>
          <circle cx="5.916" cy="5.916" r="5.416" fill="none"/>
        </g>
        <path id="si_6-3" data-name="si_6" d="M16.027,0A16.052,16.052,0,0,1,29.685,7.637h0S21.229,1.2,13.427,3.4,3.651,7.607,0,16.027H0A16.015,16.015,0,0,1,16.027,0Z" transform="matrix(0.934, -0.358, 0.358, 0.934, 38.983, 21.201)" fill="#d3d3d3"/>
      </g>
      <g id="scissors_1" transform="translate(0 84.433)">
        <path id="si_4" d="M99.079,2.481,85.658,25.643H3.376S.2,25.681,0,21.736C.666,17.569,5.619,8.959,28.508,6.377,53.326,3.578,97.986,0,97.986,0Z" transform="translate(0.095 0.015)" fill="#b0b0b0" opacity="0.7"/>
        <path id="si_4-2" data-name="si_4" d="M98.086,0,84.664,23.163s-81.357.229-82.766,0S-.259,22.209.082,20.632C1.056,16.106,5.749,6.351,27.515,3.9,56.306.649,98.086,0,98.086,0Z" fill="#4eb1ae"/>
      </g>
    </g>
  </g>
</svg>
