<svg xmlns="http://www.w3.org/2000/svg" width="3240.169" height="950.533" viewBox="0 0 3240.169 950.533">
  <g id="img-02-pc" transform="translate(250.114 -667.736)">
    <g id="img-02" transform="translate(604.386 667.826)">
      <path id="パス_23" data-name="パス 23" d="M3150.21,614.284l-102.538,76.353L2938.73,792.96,2839.4,863.307l-86.516,94.328-97.731,52.76-99.334,131.1L2377.64,1257.91l-128.553,83.74-235.681,30.289-155.335,64.141-66.062,67.7h-153.55L1474.2,1487.75c-13.482.24-141.052,16.035-141.052,16.035-21.533-.146-178.835,15.972-203.542,16.035,0,0-158.858,30.358-160.692,30.289l-203.7,14.073s380.342-678.178,581.481-950l1135.78.1" transform="translate(-765.211 -614.186)" fill="#fff"/>
      <path id="キレた部分" d="M2162.74,947.9s383.91-483.917,585.96-950H2453.17s-69.637,117.612-290.425,243.3c7.3,8.522,14.387,17.457,21.382,27.067,9.576,13.156,21.9,49.808,21.9,49.808s26.282,33.954,34.615,57.063c7.889,21.876,20.324,62.069,20.324,62.069s5.638,52.784,6.924,76.61c1.707,31.63,8.925,88.91,8.925,88.91s-19.021,63.85-24.85,91.087c-4.645,21.7-11.322,67.053-11.322,67.053s-18.081,40.22-25.547,61.177c-6.654,18.675-15.408,53.737-15.408,53.737s-26.042,49.017-36.946,72.115Z" transform="translate(-2162.742 2.104)" fill="#005465"/>
    </g>
    <g id="scissors" transform="translate(1712.819 1259.259) rotate(-12.007)">
      <g id="scissors_3" transform="translate(173.296 111.078)">
        <path id="si_5" d="M79.919,0A42.367,42.367,0,1,1,37.552,42.367c0-.679-.035-.5,0-1.235L1.541,40.663,0,37.259C5.126,29.5,22.2,10.083,22.2,10.083s14.825,12,32.675-1.908A42.164,42.164,0,0,1,79.919,0Z" transform="translate(0.083 3.843)" fill="#b0b0b0"/>
        <path id="si_5-2" data-name="si_5" d="M78.221,0A42.367,42.367,0,1,1,35.853,42.367c0-.679-.035-.5,0-1.236H0L20.5,10.083s14.826,12,32.676-1.908A42.164,42.164,0,0,1,78.221,0Z" transform="translate(0 0)" fill="#1b6666"/>
        <circle id="si_6" cx="22.649" cy="22.649" r="22.649" transform="translate(54.868 19.569)" fill="#fff"/>
        <path id="si_6-2" data-name="si_6" d="M22.649,0a22.685,22.685,0,0,1,19.3,10.792h0S30,1.7,18.975,4.8,5.157,10.75,0,22.649H0A22.633,22.633,0,0,1,22.649,0Z" transform="translate(54.868 19.569)" fill="#d3d3d3"/>
      </g>
      <g id="scissors_2" transform="translate(101.585)">
        <path id="si_1" d="M83.638,0a43.212,43.212,0,0,1,17.186,82.859C97.745,84.2,77.588,90.942,87.069,113.58l-52.63,78.452L0,192.013C3.147,184.732,63.044,81.2,63.044,81.2A43.212,43.212,0,0,1,83.638,0Z" transform="translate(4.806 3.702)" fill="#b0b0b0" opacity="0.7"/>
        <g id="si_2" transform="translate(64.581 25.959)" fill="#fff" stroke="#707070" stroke-width="1">
          <circle cx="23.105" cy="23.105" r="23.105" stroke="none"/>
          <circle cx="23.105" cy="23.105" r="22.605" fill="none"/>
        </g>
        <g id="si_3" transform="translate(48.468 132.67)" fill="#fff" stroke="#707070" stroke-width="1">
          <circle cx="8.36" cy="8.36" r="8.36" stroke="none"/>
          <circle cx="8.36" cy="8.36" r="7.86" fill="none"/>
        </g>
        <path id="si_1-2" data-name="si_1" d="M86.077,0a43.212,43.212,0,0,1,17.186,82.859c-3.079,1.343-24.5,10.813-15.017,33.451L36.212,195.746,0,196.085C3.147,188.8,65.483,81.2,65.483,81.2A43.212,43.212,0,0,1,86.077,0Z" fill="#5b6981"/>
        <path id="si_2-2" data-name="si_2" d="M23.105,0A22.954,22.954,0,1,1,0,22.953,22.954,22.954,0,0,1,23.105,0Z" transform="translate(62.149 21.095)" fill="#fff"/>
        <g id="si_3-2" data-name="si_3" transform="translate(45.731 127.502)" fill="#fff" stroke="#707070" stroke-width="1">
          <circle cx="8.36" cy="8.36" r="8.36" stroke="none"/>
          <circle cx="8.36" cy="8.36" r="7.86" fill="none"/>
        </g>
        <path id="si_6-3" data-name="si_6" d="M22.814,0A22.709,22.709,0,0,1,42.191,10.67h0S30.164,1.7,19.14,4.8,5.159,10.747,0,22.644H0a22.821,22.821,0,0,1,2.216-9.425A22.615,22.615,0,0,1,22.814,0Z" transform="matrix(0.934, -0.358, 0.358, 0.934, 55.33, 30.445)" fill="#d3d3d3"/>
      </g>
      <g id="scissors_1" transform="translate(0 119.611)">
        <path id="si_4" d="M140.017,3.506,121.049,36.239H4.771S.289,36.292,0,30.717C.941,24.828,7.943,12.66,40.288,9.01,75.36,5.056,138.472,0,138.472,0Z" transform="translate(0.134 0.021)" fill="#b0b0b0" opacity="0.7"/>
        <path id="si_4-2" data-name="si_4" d="M138.613,0,119.644,32.733s-114.972.324-116.964,0S-.365,31.385.115,29.157c1.378-6.4,8.009-20.182,38.77-23.651C79.57.918,138.613,0,138.613,0Z" transform="translate(0)" fill="#4eb1ae"/>
      </g>
    </g>
    <line id="adjustment" x1="660" transform="translate(-250.114 841.326)" fill="none"/>
    <path id="line" d="M2595.05,951.909l210.905-14.982,150.3-28.4,200.277-16.564,145.38-16.28,158.631,16H3621.92l66.254-67.484L3823,768.264l63.826-13.952,191.88-24.062,307.261-200.993,99.415-130.991,97.949-53.38,85.525-93.767L4769.7,180.251,4878.87,77.244l101.1-74.635" transform="translate(-1990.614 665.826)" fill="none" stroke="#423607" stroke-linecap="round" stroke-width="1"/>
  </g>
</svg>
