<svg xmlns="http://www.w3.org/2000/svg" xmlns:xlink="http://www.w3.org/1999/xlink" width="18" height="544" viewBox="0 0 18 544">
  <defs>
    <clipPath id="clip-path">
      <rect id="frame" width="18" height="544" transform="translate(1177 2084)" fill="none"/>
    </clipPath>
  </defs>
  <g id="bg-02" transform="translate(-1177 -2084)" clip-path="url(#clip-path)">
    <path id="bg-01" d="M-10.929-68.158-5.4-82.479H681.52s-2.141,30.063-4.993,52.053l9.264,26.819-2.45,56.533s-5.387,16.7-6.813,48.589c-.258,5.775,4.994,34.085,4.994,34.085l-8.056,50.48,3.063,55.3,12.54,31.229s-3.629,29.53-7.546,37.084c-3.423,6.6-.466,33.831-4.994,48.795,0,0,4.212,45.8,4.994,63.255v40.025H-5.944l-4.987-43.619,8.676-54.121a236.245,236.245,0,0,0-8.676-42.37s4.9-24.927,8.676-56.612c-2.275-14.242,1.122-31.357,3.275-45.22C8,174.959-5.944,142.2-5.944,142.2l-4.987-73.348S.653,36.92,1.022,26.838c.612-16.731-11.952-54.9-11.952-54.9C-7.988-57.21-10.929-68.158-10.929-68.158Z" transform="translate(505.061 2166.401)" fill="#fff"/>
  </g>
</svg>
