<svg xmlns="http://www.w3.org/2000/svg" width="240.863" height="239.212" viewBox="0 0 240.863 239.212">
  <g id="icon-01" transform="translate(-570.779 -98.079)">
    <g id="group" transform="translate(619.791 100.102) rotate(-3)">
      <path id="パス_20" data-name="パス 20" d="M21.074,0A20.863,20.863,0,0,1,41.926,20.126a24.367,24.367,0,0,0-8.156,1.148S20.55,10.468,18.123,17.487c-.057.164,2.72,16.082,2.616,16.418-1.848,5.389-1.287,7.463-1.287,7.463C7.812,41.368,0,32.813,0,21.139A21.106,21.106,0,0,1,21.074,0Z" transform="translate(5.236 6.498)" fill="#010f27"/>
      <path id="パス_12" data-name="パス 12" d="M10.478,1.555,3.192,0,0,8.186,5.648,12.2,10.478,1.555" transform="translate(0.612 12.439)" fill="#010f27"/>
      <path id="パス_13" data-name="パス 13" d="M5.716,0,0,4.069l3.488,8.283L10.22,11,5.716,0" transform="translate(0 28.735)" fill="#010f27"/>
      <path id="パス_14" data-name="パス 14" d="M0,1.744,8.67,0l3.391,8.234L5.474,12.788S1.042,4.008,0,1.744" transform="translate(39.432 11.415)" fill="#010f27"/>
      <path id="パス_17" data-name="パス 17" d="M1.006,0,0,6.856l8.123,3.353,4.1-5.883S3.064.866,1.006,0" transform="translate(10.568 41.666) rotate(7)" fill="#010f27"/>
      <path id="パス_18" data-name="パス 18" d="M1.257,10.028,0,3.391,8.817,0l3.73,5.522-11,4.506" transform="translate(10.469 3.09) rotate(-8)" fill="#010f27"/>
      <path id="パス_19" data-name="パス 19" d="M0,5.861,4.6,0l7.46,3.924-1.673,6.865S2.108,6.844,0,5.861" transform="translate(26.681 1.47) rotate(-7)" fill="#010f27"/>
      <path id="パス_223" data-name="パス 223" d="M12.123,0A12.188,12.188,0,0,1,24.279,11.473c-5.733,2.313-8.69,4.88-13.022,12.689A11.978,11.978,0,0,1,0,12.123,12.123,12.123,0,0,1,12.123,0Z" transform="translate(14.706 16.313)" fill="#fff"/>
    </g>
    <g id="group-2" data-name="group" transform="translate(677.862 95.291) rotate(46)">
      <path id="パス_20-2" data-name="パス 20" d="M33.023,0A32.693,32.693,0,0,1,65.7,31.538a38.184,38.184,0,0,0-12.78,1.8S32.2,16.4,28.4,27.4c-.09.257,4.263,25.2,4.1,25.728-2.9,8.444-2.016,11.694-2.016,11.694C12.242,64.825,0,51.419,0,33.125A33.073,33.073,0,0,1,33.023,0Z" transform="translate(8.205 10.183)" fill="#010f27"/>
      <path id="パス_12-2" data-name="パス 12" d="M16.419,2.437,5,0,0,12.828l8.851,6.286L16.419,2.437" transform="translate(0.959 19.492)" fill="#010f27"/>
      <path id="パス_13-2" data-name="パス 13" d="M8.957,0,0,6.376l5.465,12.98,10.551-2.125L8.957,0" transform="translate(0 45.029)" fill="#010f27"/>
      <path id="パス_14-2" data-name="パス 14" d="M0,2.732,13.587,0,18.9,12.9,8.577,20.039S1.632,6.281,0,2.733" transform="translate(61.792 17.888)" fill="#010f27"/>
      <path id="パス_17-2" data-name="パス 17" d="M1.577,0,0,10.744,12.728,16l6.429-9.218S4.8,1.358,1.577,0" transform="translate(16.56 65.292) rotate(7)" fill="#010f27"/>
      <path id="パス_18-2" data-name="パス 18" d="M1.971,15.715,0,5.313,13.816,0l5.844,8.653L2.427,15.715" transform="translate(16.406 4.842) rotate(-8)" fill="#010f27"/>
      <path id="パス_19-2" data-name="パス 19" d="M0,9.185,7.211,0,18.9,6.148,16.279,16.906S3.3,10.724,0,9.185" transform="translate(41.811 2.303) rotate(-7)" fill="#010f27"/>
      <path id="パス_223-2" data-name="パス 223" d="M19,0A19.1,19.1,0,0,1,38.047,17.979C29.062,21.6,24.429,25.626,17.64,37.863A18.77,18.77,0,0,1,0,19,19,19,0,0,1,19,0Z" transform="translate(23.045 25.563)" fill="#fff"/>
    </g>
    <g id="gruop" transform="translate(595.45 243.272)">
      <path id="パス_4" data-name="パス 4" d="M806.36,544.693H780.532l1.887-30.924H674.306l2.248,30.924H649.276l7.2-25.058s2.476-5.176,6.751-7.426l43.885-20.479s-2.026,14.4,22.279,16.2c0,0,18.454-1.123,19.8-16.2l42.984,20.479s5.626,2.026,6.976,7.426l7.2,25.058" transform="translate(-649.276 -491.729)" fill="#010f27"/>
      <path id="パス_1" data-name="パス 1" d="M746.976,615.279l-3.886-51.732h88.452l-3.667,51.732h-80.9" transform="translate(-708.268 -533.587)" fill="#fff" stroke="#010f27" stroke-linecap="round" stroke-linejoin="round" stroke-width="6"/>
      <path id="パス_2" data-name="パス 2" d="M756.68,746l2.025,3.6h79.667l2.477-3.6" transform="translate(-719.715 -657.582)" fill="none" stroke="#010f27" stroke-linecap="round" stroke-width="4"/>
      <ellipse id="楕円形_1" data-name="楕円形 1" cx="9.811" cy="9.365" rx="9.811" ry="9.365" transform="translate(69.055 48.897)" fill="#2cdcbf"/>
    </g>
    <g id="group-3" data-name="group" transform="translate(645.608 176.339)">
      <path id="パス_5" data-name="パス 5" d="M793.431,318.422s-11.779-10.746-2.686-14.671c0,0-6.406-20.458,7.853-22.317,0,0,2.479-12.608,22.731-8.886s20.252,20.871,20.252,20.871a29.618,29.618,0,0,1-1.24,10.332s9.092.206-1.86,12.812c0,0-3.927,17.565-15.705,25.417a37.194,37.194,0,0,1-13.639,0c-6.822-1.446-13.225-16.321-15.705-23.557" transform="translate(-787.299 -271.86)" fill="#010f27"/>
      <path id="パス_6" data-name="パス 6" d="M811.676,350s4.959-2.273,6.613-13.225a67.646,67.646,0,0,0,29.965,3.1S853,344.208,853,347.721a50.078,50.078,0,0,1-13.846,34.51,46.509,46.509,0,0,1-13.019,0S812.706,373.139,811.673,350" transform="translate(-803.889 -316.038)" fill="#fff"/>
    </g>
    <g id="group-4" data-name="group" transform="translate(720.882 184.19)">
      <path id="パス_7" data-name="パス 7" d="M985.075,373.827v-7.892h90.76V429.89h-32.918V426.6h29.39V380.278h-29.391v-2.587h11.991v-3.865H985.075" transform="translate(-985.075 -365.935)" fill="#010f27"/>
      <ellipse id="楕円形_3" data-name="楕円形 3" cx="2.423" cy="1.817" rx="2.423" ry="1.817" transform="translate(79.401 2.278)" fill="#fff"/>
      <ellipse id="楕円形_2" data-name="楕円形 2" cx="1.817" cy="1.817" rx="1.817" ry="1.817" transform="translate(74.556 2.278)" fill="#fff"/>
      <ellipse id="楕円形_4" data-name="楕円形 4" cx="1.817" cy="1.817" rx="1.817" ry="1.817" transform="translate(85.459 2.278)" fill="#2cdcbf"/>
      <rect id="長方形_1" data-name="長方形 1" width="21.806" height="19.382" transform="translate(60.019 34.987)" fill="#2cdcbf"/>
      <rect id="長方形_2" data-name="長方形 2" width="24.228" height="3.634" transform="translate(57.596 26.506)" fill="#010f27"/>
      <rect id="長方形_3" data-name="長方形 3" width="6.057" height="2.423" transform="translate(57.596 19.237)" fill="#2cdcbf"/>
      <rect id="長方形_4" data-name="長方形 4" width="15.749" height="2.423" transform="translate(66.075 19.237)" fill="#010f27"/>
    </g>
    <g id="group-5" data-name="group" transform="translate(703.628 194.919)">
      <path id="パス_8" data-name="パス 8" d="M961.8,395.788l3.318-7.277h59.4V452.3H992.083l-7.491-3.532h36.39V402.425h-64.43l2.568-2.14h44.2V395.79H961.8" transform="translate(-952.781 -388.511)" fill="#010f27"/>
      <ellipse id="楕円形_5" data-name="楕円形 5" cx="1.817" cy="1.817" rx="1.817" ry="1.817" transform="translate(55.458 1.303)" fill="#2cdcbf"/>
      <ellipse id="楕円形_6" data-name="楕円形 6" cx="1.817" cy="1.817" rx="1.817" ry="1.817" transform="translate(60.304 1.303)" fill="#fff"/>
      <ellipse id="楕円形_7" data-name="楕円形 7" cx="1.817" cy="1.817" rx="1.817" ry="1.817" transform="translate(65.149 1.303)" fill="#fff"/>
      <path id="パス_9" data-name="パス 9" d="M989.188,461.822l6.712-30.4h3.971l-6.38,30.4h-4.3" transform="translate(-967.739 -411.152)" fill="#2cdcbf"/>
      <path id="パス_10" data-name="パス 10" d="M965.817,443.489l-17.245,7.478v3.673l17.245,7.156v-4.879l-10.469-4.18,10.469-4.368v-4.876" transform="translate(-948.572 -417.516)" fill="#010f27"/>
      <path id="パス_11" data-name="パス 11" d="M1022.97,447.978v-4.623l17.542,7.409v3.863l-17.542,7.283V457.1l10.575-4.37s-8.422-3.787-10.575-4.75" transform="translate(-987.82 -417.445)" fill="#010f27"/>
    </g>
    <g id="group-6" data-name="group" transform="translate(580.446 155.662) rotate(-25)">
      <g id="group-7" data-name="group" transform="translate(11.74 50.623)">
        <path id="パス_21" data-name="パス 21" d="M0,0H8.149S6.674,2.439,4.171,2.182A5.076,5.076,0,0,1,0,0" transform="translate(2.38 8.622)" fill="#010f27"/>
        <path id="パス_22" data-name="パス 22" d="M1.987,7.668h9.147s1.7-.656,1.9-7.668H.019S-.332,5.66,1.987,7.668" transform="translate(0 0)" fill="#010f27"/>
        <line id="線_1" data-name="線 1" x2="5.319" transform="translate(7.62 2.556)" fill="none" stroke="#fefefe" stroke-linecap="round" stroke-width="1.5"/>
        <line id="線_3" data-name="線 3" x2="7.384" transform="translate(4.979 5.131)" fill="none" stroke="#fefefe" stroke-linecap="round" stroke-width="1.5"/>
      </g>
      <path id="パス_23" data-name="パス 23" d="M.029,14.8S-1.225-.063,12.632,0s12.79,14.483,12.289,15.612A128.383,128.383,0,0,0,19.153,30.6H6.049A157.6,157.6,0,0,0,.029,14.8" transform="translate(5.427 18.09)" fill="#172132"/>
      <path id="パス_24" data-name="パス 24" d="M0,3.536S.643.1,3.6,0" transform="translate(10.274 22.045)" fill="none" stroke="#fff" stroke-linecap="round" stroke-width="2"/>
      <line id="線_4" data-name="線 4" x2="5.941" y2="7.261" transform="translate(0 7.261)" fill="none" stroke="#2cdcbf" stroke-linecap="round" stroke-width="4"/>
      <line id="線_5" data-name="線 5" y2="10.892" transform="translate(17.162 0)" fill="none" stroke="#2cdcbf" stroke-linecap="round" stroke-width="4"/>
      <line id="線_6" data-name="線 6" y1="8.251" x2="6.271" transform="translate(27.724 6.931)" fill="none" stroke="#2cdcbf" stroke-linecap="round" stroke-width="4"/>
    </g>
    <g id="group-8" data-name="group" transform="translate(743.737 123.535) rotate(28)">
      <g id="group-9" data-name="group" transform="translate(8.822 38.043)">
        <path id="パス_21-2" data-name="パス 21" d="M0,0H6.124A3.437,3.437,0,0,1,3.134,1.64,3.814,3.814,0,0,1,0,0" transform="translate(1.788 6.48)" fill="#010f27"/>
        <path id="パス_22-2" data-name="パス 22" d="M1.493,5.762H8.368S9.647,5.269,9.8,0H.014S-.25,4.253,1.493,5.762" transform="translate(0 0)" fill="#010f27"/>
        <line id="線_1-2" data-name="線 1" x2="3.997" transform="translate(5.726 1.921)" fill="none" stroke="#fefefe" stroke-linecap="round" stroke-width="1.5"/>
        <line id="線_3-2" data-name="線 3" x2="5.549" transform="translate(3.742 3.856)" fill="none" stroke="#fefefe" stroke-linecap="round" stroke-width="1.5"/>
      </g>
      <path id="パス_23-2" data-name="パス 23" d="M.022,11.12S-.92-.047,9.493,0s9.612,10.884,9.235,11.732a96.479,96.479,0,0,0-4.335,11.261H4.546A118.44,118.44,0,0,0,.022,11.122" transform="translate(4.079 13.595)" fill="#172132"/>
      <path id="パス_24-2" data-name="パス 24" d="M0,2.658S.483.072,2.709,0" transform="translate(7.721 16.567)" fill="none" stroke="#fff" stroke-linecap="round" stroke-width="2"/>
      <line id="線_4-2" data-name="線 4" x2="4.465" y2="5.457" transform="translate(0 5.457)" fill="none" stroke="#2cdcbf" stroke-linecap="round" stroke-width="4"/>
      <line id="線_5-2" data-name="線 5" y2="8.185" transform="translate(12.898 0)" fill="none" stroke="#2cdcbf" stroke-linecap="round" stroke-width="4"/>
      <line id="線_6-2" data-name="線 6" y1="6.201" x2="4.712" transform="translate(20.835 5.209)" fill="none" stroke="#2cdcbf" stroke-linecap="round" stroke-width="4"/>
    </g>
    <g id="group-10" data-name="group" transform="translate(571.642 209.044) rotate(-32)">
      <g id="group-11" data-name="group" transform="translate(9.2 39.672)">
        <path id="パス_21-3" data-name="パス 21" d="M0,0H6.386A3.584,3.584,0,0,1,3.269,1.71,3.978,3.978,0,0,1,0,0" transform="translate(1.865 6.757)" fill="#010f27"/>
        <path id="パス_22-3" data-name="パス 22" d="M1.557,6.009H8.726S10.06,5.5,10.217,0H.015S-.26,4.435,1.557,6.009" transform="translate(0 0)" fill="#010f27"/>
        <line id="線_1-3" data-name="線 1" x2="4.168" transform="translate(5.972 2.003)" fill="none" stroke="#fefefe" stroke-linecap="round" stroke-width="1.5"/>
        <line id="線_3-3" data-name="線 3" x2="5.787" transform="translate(3.902 4.021)" fill="none" stroke="#fefefe" stroke-linecap="round" stroke-width="1.5"/>
      </g>
      <path id="パス_23-3" data-name="パス 23" d="M.023,11.6S-.96-.049,9.9,0s10.024,11.35,9.631,12.235a100.611,100.611,0,0,0-4.52,11.743H4.74A123.512,123.512,0,0,0,.023,11.6" transform="translate(4.253 14.177)" fill="#172132"/>
      <path id="パス_24-3" data-name="パス 24" d="M0,2.771S.5.075,2.825,0" transform="translate(8.052 17.276)" fill="none" stroke="#fff" stroke-linecap="round" stroke-width="2"/>
      <line id="線_4-3" data-name="線 4" x2="4.656" y2="5.69" transform="translate(0 5.69)" fill="none" stroke="#2cdcbf" stroke-linecap="round" stroke-width="4"/>
      <line id="線_5-3" data-name="線 5" y2="8.536" transform="translate(13.45 0)" fill="none" stroke="#2cdcbf" stroke-linecap="round" stroke-width="4"/>
      <line id="線_6-3" data-name="線 6" y1="6.466" x2="4.914" transform="translate(21.727 5.432)" fill="none" stroke="#2cdcbf" stroke-linecap="round" stroke-width="4"/>
    </g>
  </g>
</svg>
