<svg xmlns="http://www.w3.org/2000/svg" width="241" height="238.299" viewBox="0 0 241 238.299">
  <g id="icon-05" transform="translate(-714.172 -188.348)">
    <path id="path" d="M41.374,4.1V30.644h91.234v-6.8a125.543,125.543,0,0,1,9.245,13.4H78.382c.352.737,0,92.513,0,92.513h49.462c-6.319,8.946-18.432,15.485-32.085,19.143-1.365.366-.452-3.512-6.494-5.845-.864.183-44.157-20.763-44.157-20.763s8.134-5.366,14.642-28c.5-1.742,12.318-14.931,2.789-19.973-.829-.439,5.578-20.853-13.48-32.751-5.66-3.534-30.91-14.931-45.087,4.2,0,0,8.943-27.6,37.4-41.676Z" transform="translate(760.886 234.456)" fill="#010f27"/>
    <g id="group" transform="translate(843.734 276.665)">
      <path id="パス_1" data-name="パス 1" d="M795.087,322.883V240.752H905.526v82.131H795.087" transform="translate(-795.087 -240.752)" fill="#fff" stroke="#010f27" stroke-linecap="round" stroke-linejoin="round" stroke-width="2"/>
      <g id="group-2" data-name="group" transform="translate(8.375 5.798)">
        <circle id="楕円形_1" data-name="楕円形 1" cx="17.618" cy="17.618" r="17.618" transform="translate(0 0)" fill="#010f27"/>
        <path id="パス_2" data-name="パス 2" d="M817.9,253.47a6.916,6.916,0,0,0-5.626-4.355,4.912,4.912,0,0,0-5.626,4.355,3.375,3.375,0,0,0,2.722,3.085c1.815.181,7.259.726,8.529,2.178s.544,6.352-1.633,6.714a14.74,14.74,0,0,1-6.9,0c-2.54-.726-2.722-5.263-2.722-5.263" transform="translate(-794.68 -240.233)" fill="none" stroke="#fff" stroke-linecap="round" stroke-width="1.5"/>
        <line id="線_1" data-name="線 1" y2="24.665" transform="translate(17.618 4.698)" fill="none" stroke="#fff" stroke-linecap="round" stroke-width="1"/>
      </g>
      <g id="group-3" data-name="group" transform="translate(4.851 5.798)">
        <path id="パス_3" data-name="パス 3" d="M801,305.447l12.111-14.472,16.333,2.541L843.6,275.369l14.336-28.854" transform="translate(-795.445 -242.171)" fill="none" stroke="#2cdcbf" stroke-width="1"/>
        <g id="楕円形_2" data-name="楕円形 2" transform="translate(56.378 0)" fill="#fff" stroke="#010f27" stroke-width="1">
          <circle cx="5.285" cy="5.285" r="5.285" stroke="none"/>
          <circle cx="5.285" cy="5.285" r="4.785" fill="none"/>
        </g>
        <g id="楕円形_3" data-name="楕円形 3" transform="translate(42.284 28.189)" fill="#fff" stroke="#010f27" stroke-width="1">
          <circle cx="5.285" cy="5.285" r="5.285" stroke="none"/>
          <circle cx="5.285" cy="5.285" r="4.785" fill="none"/>
        </g>
        <g id="楕円形_4" data-name="楕円形 4" transform="translate(28.189 45.807)" fill="#fff" stroke="#010f27" stroke-width="1">
          <circle cx="5.285" cy="5.285" r="5.285" stroke="none"/>
          <circle cx="5.285" cy="5.285" r="4.785" fill="none"/>
        </g>
        <g id="楕円形_5" data-name="楕円形 5" transform="translate(12.92 43.458)" fill="#fff" stroke="#010f27" stroke-width="1">
          <circle cx="5.285" cy="5.285" r="5.285" stroke="none"/>
          <circle cx="5.285" cy="5.285" r="4.785" fill="none"/>
        </g>
        <g id="楕円形_6" data-name="楕円形 6" transform="translate(0 57.553)" fill="#fff" stroke="#010f27" stroke-width="1">
          <circle cx="5.285" cy="5.285" r="5.285" stroke="none"/>
          <circle cx="5.285" cy="5.285" r="4.785" fill="none"/>
        </g>
      </g>
      <g id="group-4" data-name="group" transform="translate(82.371 9.322)">
        <rect id="長方形_2" data-name="長方形 2" width="21.142" height="15.269" transform="translate(0 0)" fill="#010f27"/>
        <rect id="長方形_3" data-name="長方形 3" width="21.142" height="15.269" transform="translate(0 21.142)" fill="#010d23"/>
      </g>
      <path id="パス_4" data-name="パス 4" d="M841.432,327.595s15.062,13.066,32.484,0c0,0,11.977-2.9,7.622-39.017,0,0-5.263-7.259-9.8,0,0,0-7.078-7.44-10.888,0,0,0-5.988-9.074-10.707,0v-24.5s-5.263-7.44-10.162,0v40.65L834.119,292.1s-8.366-6.7-9.255,3.448c0,0,11.706,27.608,16.569,32.049" transform="translate(-777.738 -225.537)" fill="#010d23"/>
    </g>
    <g id="group-5" data-name="group" transform="translate(714.172 273.576)">
      <path id="パス_4-2" data-name="パス 4" d="M797.109,554.122H649.276l6.778-30.472s2.33-6.294,6.354-9.031l45.945-20.242s1.579,5.047,14.626,6.55c0,0,15.052,4.1,15.29-6.55l45.5,20.242a12.967,12.967,0,0,1,6.566,9.031l6.778,30.472" transform="translate(-649.276 -408.333)" fill="#010f27"/>
      <path id="パス_5" data-name="パス 5" d="M794.755,328.481s-14.324-13.067-3.266-17.841c0,0-7.79-24.878,9.55-27.138,0,0,3.015-15.332,27.641-10.806s24.627,25.376,24.627,25.376a36.019,36.019,0,0,1-1.508,12.564s11.056.252-2.261,15.58c0,0-4.775,21.36-19.1,30.909a45.228,45.228,0,0,1-16.585,0c-8.3-1.758-16.082-19.847-19.1-28.646" transform="translate(-747.919 -271.86)" fill="#010f27"/>
      <path id="パス_6" data-name="パス 6" d="M811.677,352.852s6.03-2.764,8.041-16.082a82.259,82.259,0,0,0,36.438,3.769s5.776,5.277,5.776,9.544a60.9,60.9,0,0,1-16.842,41.966,56.555,56.555,0,0,1-15.832,0s-16.335-11.056-17.59-39.2" transform="translate(-762.828 -311.559)" fill="#fff"/>
      <path id="パス_9" data-name="パス 9" d="M-15.412,98.941-25.555,62.077" transform="translate(42.839 47.176)" fill="none" stroke="#fff" stroke-width="1"/>
      <path id="パス_10" data-name="パス 10" d="M-25.555,98.941l5.582-36.864" transform="translate(149.894 47.176)" fill="none" stroke="#fff" stroke-width="1"/>
    </g>
    <g id="group-6" data-name="group" transform="translate(768.286 357.832)">
      <path id="パス_8" data-name="パス 8" d="M874.767,297.809a25.725,25.725,0,0,0-2.851,11.717l.792,33.109h8.4l.792-33.109a26.1,26.1,0,0,0-2.534-11.717h-4.594" transform="translate(-856.801 -280.256)" fill="#2cdcbf"/>
      <path id="パス_7" data-name="パス 7" d="M871.173,296.163l4.791,6.563h5.2l4.625-6.562-8.115-3.343s-5.225,2.514-6.505,3.343" transform="translate(-858.093 -284.048)" fill="#2cdcbf" stroke="#010d23" stroke-linecap="round" stroke-linejoin="round" stroke-width="1"/>
      <path id="パス_5-2" data-name="パス 5" d="M131.1,57.189a87.055,87.055,0,0,1,15.386-8.245c1.318-.531,3.356.983,4.182,2.7,0,0-6.036,10.271-9.717,13.951l-9.852-8.4" transform="translate(-111.901 -48.835)" fill="#2cdcbf" stroke="#010d23" stroke-linecap="round" stroke-linejoin="round" stroke-width="1"/>
      <line id="線_2" data-name="線 2" x2="14.08" transform="translate(13.2 18.701)" fill="none" stroke="#010f27" stroke-linecap="round" stroke-width="1"/>
      <g id="パス_12" data-name="パス 12" transform="translate(-0.5 -0.51)" fill="#2cdcbf" stroke-linecap="round" stroke-linejoin="round">
        <path d="M20.068,8.864s-.44-.306-1.229-.818S16.909,6.817,15.508,6s-3.063-1.748-4.9-2.678S6.771,1.454,4.682.618A1.784,1.784,0,0,0,3.589.575a3.713,3.713,0,0,0-1.182.55,5.76,5.76,0,0,0-1.09.972A5.513,5.513,0,0,0,.5,3.317s.377.642,1,1.662S2.994,7.4,3.978,8.912s2.084,3.143,3.168,4.623a33.688,33.688,0,0,0,3.071,3.732l9.852-8.4" stroke="none"/>
        <path d="M 10.21678161621094 17.76744651794434 C 10.24557113647461 17.76744651794434 10.27437686920166 17.76497268676758 10.30285835266113 17.76001358032227 C 10.33133888244629 17.75505256652832 10.35949420928955 17.74760437011719 10.38698387145996 17.73765563964844 C 10.41447257995605 17.72770690917969 10.4412956237793 17.71525764465332 10.46710968017578 17.70029449462891 C 10.49292469024658 17.68532943725586 10.51773071289062 17.66785049438477 10.54118728637695 17.64784240722656 L 20.39279747009277 9.244003295898438 C 20.42226409912109 9.218866348266602 20.44840240478516 9.190669059753418 20.47091674804688 9.16009521484375 C 20.49342918395996 9.129520416259766 20.5123176574707 9.096569061279297 20.52728652954102 9.061923980712891 C 20.54225540161133 9.027278900146484 20.55330467224121 8.990940093994141 20.56013870239258 8.953590393066406 C 20.56697082519531 8.916240692138672 20.56958961486816 8.877881050109863 20.56769752502441 8.839193344116211 C 20.5658073425293 8.800505638122559 20.5594596862793 8.762584686279297 20.54901695251465 8.726079940795898 C 20.53857421875 8.6895751953125 20.52403259277344 8.654488563537598 20.50575637817383 8.621469497680664 C 20.48748016357422 8.58845043182373 20.46546936035156 8.557498931884766 20.4400806427002 8.529266357421875 C 20.41469192504883 8.501032829284668 20.38592720031738 8.475518226623535 20.35414695739746 8.453372955322266 C 20.33645057678223 8.441040992736816 19.87912368774414 8.124149322509766 19.07324028015137 7.603751182556152 C 18.26735687255859 7.083353519439697 17.11291885375977 6.359450340270996 15.70099830627441 5.53309440612793 C 14.28907775878906 4.706738948822021 12.6196756362915 3.777931213378906 10.78386497497559 2.847724914550781 C 8.948053359985352 1.917518377304077 6.945833206176758 0.9859133362770081 4.868277549743652 0.1539633274078369 C 4.809197425842285 0.1301633417606354 4.748682022094727 0.1092845797538757 4.686859130859375 0.09135395288467407 C 4.625036239624023 0.07342332601547241 4.561905860900879 0.05844083428382874 4.497594833374023 0.04643332958221436 C 4.433283805847168 0.03442585468292236 4.367792129516602 0.02539336681365967 4.301246643066406 0.01936274766921997 C 4.234701156616211 0.01333209872245789 4.167102813720703 0.01030334830284119 4.098577499389648 0.01030334830284119 C 3.918773651123047 0.01030334830284119 3.732391357421875 0.03154832124710083 3.541805267333984 0.07306003570556641 C 3.351219177246094 0.114571750164032 3.156429290771484 0.1763502061367035 2.959806442260742 0.2574170827865601 C 2.76318359375 0.3384839594364166 2.564731597900391 0.4388392567634583 2.366819381713867 0.5575047135353088 C 2.168907165527344 0.6761702299118042 1.971534729003906 0.8131458163261414 1.777076721191406 0.9674533605575562 C 1.594196319580078 1.112575769424438 1.418689727783203 1.268743276596069 1.252325057983398 1.433776378631592 C 1.085960388183594 1.598809480667114 0.9287338256835938 1.772708296775818 0.7824153900146484 1.953293323516846 C 0.6360969543457031 2.133878231048584 0.5006828308105469 2.321149587631226 0.3779411315917969 2.512927770614624 C 0.2551994323730469 2.704705953598022 0.1451301574707031 2.900990962982178 0.04949760437011719 3.099603414535522 C 0.0314178466796875 3.137150764465332 0.01831245422363281 3.176333427429199 0.01014518737792969 3.216232299804688 C 0.001977920532226562 3.256131172180176 -0.001251220703125 3.296746492385864 0.00041961669921875 3.337159633636475 C 0.0020904541015625 3.377572774887085 0.008661270141601562 3.417783737182617 0.02009391784667969 3.456873893737793 C 0.03152656555175781 3.495964050292969 0.047821044921875 3.533933401107788 0.06893730163574219 3.569863319396973 C 0.1308860778808594 3.675265789031982 0.5437965393066406 4.375967025756836 1.185867309570312 5.425279140472412 C 1.827938079833984 6.474591255187988 2.699169158935547 7.872514247894287 3.677755355834961 9.372360229492188 C 4.656342506408691 10.87220573425293 5.742286682128906 12.47397422790527 6.813784599304199 13.93097686767578 C 7.885282516479492 15.38798046112061 8.94233512878418 16.70021820068359 9.863137245178223 17.62100410461426 C 9.887441635131836 17.64530944824219 9.913673400878906 17.6666145324707 9.941354751586914 17.68490028381348 C 9.969036102294922 17.70318603515625 9.998167037963867 17.71845245361328 10.02827262878418 17.73068237304688 C 10.05837821960449 17.74291229248047 10.08945751190186 17.75210189819336 10.12103462219238 17.75823593139648 C 10.15261077880859 17.76436996459961 10.18468570709229 17.76744651794434 10.21678161621094 17.76744651794434 Z M 19.2433967590332 8.910065650939941 L 10.24926471710205 16.58244132995605 C 9.42473030090332 15.70554542541504 8.494987487792969 14.53117752075195 7.550145149230957 13.23932647705078 C 6.605302810668945 11.94747543334961 5.645360946655273 10.53814125061035 4.760425567626953 9.191315650939941 C 3.875490188598633 7.844489574432373 3.065563201904297 6.560171127319336 2.420749664306641 5.518350601196289 C 1.775934219360352 4.476530075073242 1.296234130859375 3.677206993103027 1.071758270263672 3.300371885299683 C 1.245721817016602 2.989276885986328 1.461265563964844 2.690600156784058 1.701881408691406 2.417575836181641 C 1.942497253417969 2.144551515579224 2.208185195922852 1.897179841995239 2.482433319091797 1.688695073127747 C 2.756681442260742 1.480210304260254 3.03948974609375 1.310612320899963 3.314350128173828 1.193135499954224 C 3.589212417602539 1.075658798217773 3.856124877929688 1.010303258895874 4.098577499389648 1.010303258895874 C 4.134944915771484 1.010303258895874 4.170568466186523 1.01180899143219 4.205389022827148 1.014809846878052 C 4.24021053314209 1.017810821533203 4.274230003356934 1.022307157516479 4.307390213012695 1.0282883644104 C 4.340549468994141 1.034269571304321 4.37285041809082 1.041735887527466 4.404233932495117 1.050676822662354 C 4.435617446899414 1.059617757797241 4.466084480285645 1.070033311843872 4.495576858520508 1.081913352012634 C 6.219324111938477 1.772183299064636 7.890669822692871 2.532005786895752 9.456148147583008 3.302105665206909 C 11.02162551879883 4.072205543518066 12.48123550415039 4.852582931518555 13.78150939941406 5.583962917327881 C 15.08178520202637 6.315342903137207 16.22272491455078 6.997724533081055 17.1508617401123 7.571833610534668 C 18.07899856567383 8.145942687988281 18.79433250427246 8.611778259277344 19.2433967590332 8.910065650939941 Z" stroke="none" fill="#010d23"/>
      </g>
    </g>
    <g id="group-7" data-name="group" transform="translate(805.076 188.848)">
      <path id="パス_15" data-name="パス 15" d="M0,0H86.238V63.358H0Z" transform="translate(0 10.828)" fill="#010f27"/>
      <path id="パス_14" data-name="パス 14" d="M17.6,0A17.6,17.6,0,1,1,0,17.6,17.6,17.6,0,0,1,17.6,0Z" transform="translate(24.639 28.428)" fill="#fff"/>
      <path id="パス_13" data-name="パス 13" d="M817.9,253.47a6.916,6.916,0,0,0-5.626-4.355,4.912,4.912,0,0,0-5.626,4.355,3.375,3.375,0,0,0,2.722,3.085c1.815.181,7.259.726,8.529,2.178s.544,6.352-1.633,6.714a14.74,14.74,0,0,1-6.9,0c-2.54-.726-2.722-5.263-2.722-5.263" transform="translate(-770.344 -211.724)" fill="none" stroke="#010f27" stroke-linecap="round" stroke-width="1.5"/>
      <line id="線_3" data-name="線 3" y2="24.639" transform="translate(42.207 33.707)" fill="none" stroke="#010f27" stroke-linecap="round" stroke-width="1"/>
      <path id="パス_16" data-name="パス 16" d="M776.309,208.081s2.359,18.873,20.869,20.144" transform="translate(-770.485 -177.751)" fill="none" stroke="#fff" stroke-linecap="round" stroke-width="1"/>
      <path id="パス_17" data-name="パス 17" d="M805.8,228.617s16.877,5.762,22.321-21.051" transform="translate(-748.074 -178.143)" fill="none" stroke="#fff" stroke-linecap="round" stroke-width="1"/>
      <path id="パス_32" data-name="パス 32" d="M782.6,202.007V188.848h28.611v13.159h-5.79V192.72H787.628v9.286H782.6" transform="translate(-753.387 -188.848)" fill="#fff" stroke="#010f27" stroke-width="1"/>
    </g>
    <g id="group-8" data-name="group" transform="translate(772.681 214.635)">
      <path id="パス_34" data-name="パス 34" d="M0,0H27.931" transform="translate(1.988 33.439)" fill="none" stroke="#fff" stroke-width="5"/>
      <line id="線_4" data-name="線 4" x2="17.6" transform="translate(10.56 33.439)" fill="none" stroke="#2cdcbf" stroke-linecap="round" stroke-width="1.5"/>
      <line id="線_5" data-name="線 5" x2="28.159" transform="translate(0 16.72)" fill="none" stroke="#2cdcbf" stroke-linecap="round" stroke-width="1.5"/>
      <line id="線_6" data-name="線 6" x2="17.6" transform="translate(10.56)" fill="none" stroke="#2cdcbf" stroke-linecap="round" stroke-width="1.5"/>
    </g>
    <g id="group-9" data-name="group" transform="translate(719.977 219.178)">
      <path id="パス_19" data-name="パス 19" d="M752.965,208.081s-7.785,6.3-10.616,10.072" transform="translate(-710.884 -208.081)" fill="none" stroke="#010f27" stroke-linecap="round" stroke-width="1.5"/>
      <path id="パス_20" data-name="パス 20" d="M742.429,217.96s-6.37,7.077-8.257,12.268" transform="translate(-717.098 -200.574)" fill="none" stroke="#010f27" stroke-linecap="round" stroke-width="1.5"/>
      <path id="パス_21" data-name="パス 21" d="M734.408,228.683a96.583,96.583,0,0,0-6.134,14.391" transform="translate(-721.58 -192.425)" fill="none" stroke="#010f27" stroke-linecap="round" stroke-width="1.5"/>
      <path id="パス_22" data-name="パス 22" d="M728.283,240.921a90.072,90.072,0,0,0-3.139,15.529" transform="translate(-723.959 -183.125)" fill="none" stroke="#010f27" stroke-linecap="round" stroke-width="1.5"/>
      <path id="パス_23" data-name="パス 23" d="M724.727,253.968a112.005,112.005,0,0,0,0,14.7" transform="translate(-724.471 -173.209)" fill="none" stroke="#010f27" stroke-linecap="round" stroke-width="1.5"/>
      <path id="パス_24" data-name="パス 24" d="M724.617,266.922A65.842,65.842,0,0,0,728,281.955" transform="translate(-724.36 -163.365)" fill="none" stroke="#010f27" stroke-linecap="round" stroke-width="1.5"/>
      <path id="パス_25" data-name="パス 25" d="M727.667,279.406a53.18,53.18,0,0,0,3.056,8.343" transform="translate(-722.041 -153.878)" fill="none" stroke="#010f27" stroke-linecap="round" stroke-width="1.5"/>
    </g>
    <g id="group-10" data-name="group" transform="translate(911.182 222.174)">
      <path id="パス_26" data-name="パス 26" d="M833.411,209.783a113.931,113.931,0,0,1,10.23,10.42" transform="translate(-833.411 -209.783)" fill="none" stroke="#010f27" stroke-linecap="round" stroke-width="1.5"/>
      <path id="パス_27" data-name="パス 27" d="M841.9,218.99a89,89,0,0,1,8.7,12.962" transform="translate(-826.964 -202.787)" fill="none" stroke="#010f27" stroke-linecap="round" stroke-width="1.5"/>
    </g>
    <g id="group-11" data-name="group" transform="translate(836.004 397.457)">
      <path id="パス_28" data-name="パス 28" d="M789.619,324.811s4.575.572,14.551-.826" transform="translate(-789.619 -296.536)" fill="none" stroke="#010f27" stroke-linecap="round" stroke-width="1.5"/>
      <path id="パス_29" data-name="パス 29" d="M802.363,324.827a92.687,92.687,0,0,0,14.741-3.622" transform="translate(-779.934 -298.649)" fill="none" stroke="#010f27" stroke-linecap="round" stroke-width="1.5"/>
      <path id="パス_30" data-name="パス 30" d="M814.494,322.314a126.209,126.209,0,0,0,13.343-6.163" transform="translate(-770.716 -302.49)" fill="none" stroke="#010f27" stroke-linecap="round" stroke-width="1.5"/>
      <path id="パス_31" data-name="パス 31" d="M826.011,317.6s4.447-2.287,12.517-9.213" transform="translate(-761.963 -308.389)" fill="none" stroke="#010f27" stroke-linecap="round" stroke-width="1.5"/>
    </g>
  </g>
</svg>
