<svg xmlns="http://www.w3.org/2000/svg" xmlns:xlink="http://www.w3.org/1999/xlink" width="240" height="240" viewBox="0 0 240 240">
  <defs>
    <clipPath id="clip-path">
      <rect id="長方形_1" data-name="長方形 1" width="240" height="240" transform="translate(410 380)" fill="none"/>
    </clipPath>
  </defs>
  <g id="icon-04" transform="translate(-410 -380)" clip-path="url(#clip-path)">
    <g id="icon4" transform="translate(411.539 373.535)">
      <path id="パス_33" data-name="パス 33" d="M588.742,616.3h-53.1S516.1,599.983,506.058,571.24s-9.246-21.751-12.152-26.671-6.868-19.161-6.868-19.161,6.6-3.366,12.152,6.732,11.623,14.242,17.963,12.429,6.868-8.286,6.34-10.875-9.774-13.465-9.774-13.465-19.284-6.214-14.529-11.911c0,0,17.435.777,28,7.768l-5.812-12.17s-10.038-8.545-2.377-10.875c0,0,0-2.072,10.038,6.991,0,0,.264-9.84,21.926,16.054,0,0,8.994-.434,12.164,17.691,0,0,7.12,4.059-8.729,52.481,0,0,26.482,23.11,34.341,30.037" transform="translate(-351.789 -378.174)" fill="#010f27"/>
      <path id="パス_1" data-name="パス 1" d="M487.039,616.3h52.046s19.161-16.313,29-45.055S577.149,549.49,580,544.57s6.732-19.161,6.732-19.161-6.473-3.366-11.911,6.732-11.393,14.242-17.608,12.429-6.732-8.286-6.214-10.875,9.581-13.465,9.581-13.465,18.9-6.214,14.242-11.911c0,0-17.09.777-27.447,7.768l5.7-12.17s9.84-8.545,2.33-10.875c0,0,0-2.072-9.84,6.991,0,0-.259-9.84-21.492,16.054,0,0-8.816-.434-11.923,17.691,0,0-6.98,4.059,8.557,52.481,0,0-25.958,23.11-33.662,30.037" transform="translate(-487.039 -376.173)" fill="#010f27"/>
      <g id="group" transform="translate(84.659 122.033)">
        <path id="パス_2" data-name="パス 2" d="M703.822,547.086s-3.054,2.228-3.879-1.733,0-10.894,0-10.894,6.85-3.714,2.765-8.583c0,0,3.425-2.228,5.9-1.609s6.025.99,9.78,6.231a5.889,5.889,0,0,1,.206,4.457c-.908,2.27-1.816,4.415-5.818,7.8,0,0-5.818-.289-8.955,4.333" transform="translate(-699.576 -516.569)" fill="#2cdcbf"/>
        <circle id="楕円形_1" data-name="楕円形 1" cx="0.8" cy="0.8" r="0.8" transform="translate(5.773 10.326)" fill="#fff"/>
        <circle id="楕円形_2" data-name="楕円形 2" cx="0.8" cy="0.8" r="0.8" transform="translate(12.576 11.927)" fill="#fff"/>
        <circle id="楕円形_3" data-name="楕円形 3" cx="0.8" cy="0.8" r="0.8" transform="translate(12.176 16.729)" fill="#fff"/>
        <circle id="楕円形_4" data-name="楕円形 4" cx="0.8" cy="0.8" r="0.8" transform="translate(15.778 15.129)" fill="#fff"/>
        <circle id="楕円形_5" data-name="楕円形 5" cx="0.8" cy="0.8" r="0.8" transform="translate(5.773 15.529)" fill="#fff"/>
        <circle id="楕円形_6" data-name="楕円形 6" cx="0.8" cy="0.8" r="0.8" transform="translate(2.171 17.13)" fill="#fff"/>
        <circle id="楕円形_7" data-name="楕円形 7" cx="0.8" cy="0.8" r="0.8" transform="translate(1.37 21.532)" fill="#fff"/>
        <circle id="楕円形_8" data-name="楕円形 8" cx="0.8" cy="0.8" r="0.8" transform="translate(3.371 24.333)" fill="#fff"/>
        <circle id="楕円形_9" data-name="楕円形 9" cx="0.8" cy="0.8" r="0.8" transform="translate(2.971 28.335)" fill="#fff"/>
        <circle id="楕円形_10" data-name="楕円形 10" cx="0.8" cy="0.8" r="0.8" transform="translate(8.174 21.532)" fill="#fff"/>
        <circle id="楕円形_11" data-name="楕円形 11" cx="0.8" cy="0.8" r="0.8" transform="translate(13.777 21.932)" fill="#fff"/>
        <path id="パス_3" data-name="パス 3" d="M715.2,511.965a13.176,13.176,0,0,1,11.893,6.437s7.8-1.279,5.034-3.92c0,0,.083,3.136-6.52.784a6.787,6.787,0,0,0,4.539-5.984s-5.653,1.651-6.52,2.682v-2.393a8.661,8.661,0,0,0-2.146,2.187s-.371-4.787-2.146-6.561a10.61,10.61,0,0,0-1.155,4.085,3.458,3.458,0,0,0-1.238-1.692,10,10,0,0,1,0,2.6s-2.847-.124-2.93-4.787c0,0-2.146,4.333,1.188,6.561" transform="translate(-707.827 -505.198)" fill="#010f27"/>
      </g>
      <g id="group-2" data-name="group" transform="translate(105.916 132.261)">
        <path id="パス_4" data-name="パス 4" d="M759.552,549.082s2.65-9.554,10.112-2.929c0,0,5.021,5.858-1.255,12.2,0,0-.907.907-2.65,0s-7.038-5.917-6.207-9.275" transform="translate(-756.832 -538.605)" fill="#010f27"/>
        <circle id="楕円形_13" data-name="楕円形 13" cx="0.6" cy="0.6" r="0.6" transform="translate(4.048 10.086)" fill="#fff"/>
        <circle id="楕円形_14" data-name="楕円形 14" cx="0.6" cy="0.6" r="0.6" transform="translate(5.649 7.685)" fill="#fff"/>
        <circle id="楕円形_15" data-name="楕円形 15" cx="0.6" cy="0.6" r="0.6" transform="translate(11.251 8.085)" fill="#fff"/>
        <circle id="楕円形_16" data-name="楕円形 16" cx="0.6" cy="0.6" r="0.6" transform="translate(10.851 11.286)" fill="#fff"/>
        <circle id="楕円形_17" data-name="楕円形 17" cx="0.6" cy="0.6" r="0.6" transform="translate(7.249 12.087)" fill="#fff"/>
        <circle id="楕円形_18" data-name="楕円形 18" cx="0.6" cy="0.6" r="0.6" transform="translate(6.849 15.689)" fill="#fff"/>
        <circle id="楕円形_19" data-name="楕円形 19" cx="0.6" cy="0.6" r="0.6" transform="translate(10.051 17.69)" fill="#fff"/>
        <circle id="楕円形_20" data-name="楕円形 20" cx="0.6" cy="0.6" r="0.6" transform="translate(12.052 14.488)" fill="#fff"/>
        <path id="パス_5" data-name="パス 5" d="M756.573,538.285s1.935-4.17,6.875-2.047c0,0,3.38-2,1.476-5.439,0,0-1.367,2.71-3.321,3.638a3.921,3.921,0,0,1-3.669-1.489l.146,2.2a1.5,1.5,0,0,1-2.289-.263v1.355s-.489.592-2.906.4c0,0,.519,1.675,3.688,1.651" transform="translate(-752.886 -530.798)" fill="#010f27"/>
      </g>
      <g id="group-3" data-name="group" transform="translate(117.107 116.73)">
        <path id="パス_6" data-name="パス 6" d="M801.092,524.879s1.541-12.455,14.234-9.826c0,0,8.613,3.445,8.159,17.226,0,0-.544,4.805-5.349,3.808s-16.772-4.352-17.044-11.207" transform="translate(-793.081 -505.56)" fill="#2cdcbf"/>
        <circle id="楕円形_21" data-name="楕円形 21" cx="0.8" cy="0.8" r="0.8" transform="translate(15.178 14.056)" fill="#fff"/>
        <circle id="楕円形_22" data-name="楕円形 22" cx="0.8" cy="0.8" r="0.8" transform="translate(10.376 18.858)" fill="#fff"/>
        <circle id="楕円形_23" data-name="楕円形 23" cx="0.8" cy="0.8" r="0.8" transform="translate(20.381 10.454)" fill="#fff"/>
        <circle id="楕円形_24" data-name="楕円形 24" cx="0.8" cy="0.8" r="0.8" transform="translate(23.582 16.057)" fill="#fff"/>
        <circle id="楕円形_25" data-name="楕円形 25" cx="0.8" cy="0.8" r="0.8" transform="translate(18.38 20.459)" fill="#fff"/>
        <circle id="楕円形_26" data-name="楕円形 26" cx="0.8" cy="0.8" r="0.8" transform="translate(14.378 20.459)" fill="#fff"/>
        <circle id="楕円形_27" data-name="楕円形 27" cx="0.8" cy="0.8" r="0.8" transform="translate(15.978 24.861)" fill="#fff"/>
        <circle id="楕円形_28" data-name="楕円形 28" cx="0.8" cy="0.8" r="0.8" transform="translate(22.782 27.262)" fill="#fff"/>
        <circle id="楕円形_29" data-name="楕円形 29" cx="0.8" cy="0.8" r="0.8" transform="translate(24.783 22.46)" fill="#fff"/>
        <circle id="楕円形_30" data-name="楕円形 30" cx="0.8" cy="0.8" r="0.8" transform="translate(27.184 25.662)" fill="#fff"/>
        <path id="パス_7" data-name="パス 7" d="M789.086,507.535a11.672,11.672,0,0,1,10.146-7.355,7.527,7.527,0,0,0,.99-4.828c-.206-3.26,1.073-3.177,1.073-3.177s-5.695-.536-5.034,6.644a13.747,13.747,0,0,1-3.384-4.622,7.238,7.238,0,0,0,1.321,5.736,22.33,22.33,0,0,1-5.111-6.149c-2.243-3.941-3.708-.546-3.708-.546s2.906-2.076,3.708,4.343c0,0-2.337-3.343-5.886,1.238,0,0,.938-1.437,3.755-.867s3.281,4.168,3.281,4.168a17.1,17.1,0,0,1-5.447-1.568,9.526,9.526,0,0,0,4,2.889,24.4,24.4,0,0,1-7.717,1.114,10.247,10.247,0,0,0,8.011,2.981" transform="translate(-781.074 -491.879)" fill="#010f27"/>
        <path id="パス_34" data-name="パス 34" d="M20.35,21.553a6.094,6.094,0,0,1-2.089-3.647" transform="translate(-15.756 -17.761)" fill="none" stroke="#010f27" stroke-linecap="round" stroke-width="1"/>
      </g>
      <g id="group-4" data-name="group" transform="translate(122.051 98.606)">
        <path id="パス_8" data-name="パス 8" d="M806.084,462.8s-1.857-7.3,5.653-8.542c0,0,10.317-1.2,10.853,10.482a2.364,2.364,0,0,1-1.857,3.054c-2.558.5-12.173,1.486-14.649-4.993" transform="translate(-800.897 -451.053)" fill="#010f27"/>
        <path id="パス_9" data-name="パス 9" d="M797.955,457.433s-1.033-5.264,3.306-7.57c0,0,.376-2.165-2.7-3.564,0,0-1.277,1.362-.207,4.705,0,0-1.089-1.071-4.7-2.517a20.116,20.116,0,0,1,3.494,3.738l-2.592-.169s1.052,2.536,2.254,2.8a4.389,4.389,0,0,1-3.381-.263s1.859,1.578,2.986,1.615a7.784,7.784,0,0,0-2.986,3.588s3.437-1.273,4.527-2.362" transform="translate(-793.429 -446.299)" fill="#010f27"/>
        <circle id="楕円形_31" data-name="楕円形 31" cx="0.6" cy="0.6" r="0.6" transform="translate(7.832 12.287)" fill="#fff"/>
        <circle id="楕円形_32" data-name="楕円形 32" cx="0.6" cy="0.6" r="0.6" transform="translate(12.235 4.282)" fill="#fff"/>
        <circle id="楕円形_33" data-name="楕円形 33" cx="0.6" cy="0.6" r="0.6" transform="translate(7.032 9.085)" fill="#fff"/>
        <circle id="楕円形_34" data-name="楕円形 34" cx="0.6" cy="0.6" r="0.6" transform="translate(11.835 11.086)" fill="#fff"/>
        <circle id="楕円形_35" data-name="楕円形 35" cx="0.6" cy="0.6" r="0.6" transform="translate(14.236 7.484)" fill="#fff"/>
        <circle id="楕円形_36" data-name="楕円形 36" cx="0.6" cy="0.6" r="0.6" transform="translate(18.638 8.685)" fill="#fff"/>
        <circle id="楕円形_37" data-name="楕円形 37" cx="0.6" cy="0.6" r="0.6" transform="translate(19.438 13.087)" fill="#fff"/>
        <circle id="楕円形_38" data-name="楕円形 38" cx="0.6" cy="0.6" r="0.6" transform="translate(15.036 14.288)" fill="#fff"/>
      </g>
      <g id="group-5" data-name="group" transform="translate(91.851 74.225)">
        <path id="パス_13" data-name="パス 13" d="M720.711,391.852s-3-.907-1.6-3.626,5.649-3.905,6.9-2.162.488,2.162.488,2.162,3.069-1.743,4.045-.418,3.278,1.813,1.464,4.742-3.068,1.395-3.068,1.395,2.3,1.883.837,3.7-2.441,2.79-5.161,2.441a2.2,2.2,0,0,1-1.953-2.929,3.688,3.688,0,0,1-3.557.488c-2.092-.767-2.441-5.858,1.6-5.788" transform="translate(-717.584 -385.244)" fill="#010f27"/>
        <ellipse id="楕円形_39" data-name="楕円形 39" cx="2.801" cy="2.401" rx="2.801" ry="2.401" transform="translate(2.491 6.989) rotate(-45)" fill="#fff"/>
        <path id="パス_20" data-name="パス 20" d="M741.393,456.108A33,33,0,0,1,739.72,439.5c1.534-8.953,2.929-8.611,2.162-13.8s-.488-3.349-.488-3.349" transform="translate(-730.611 -406.61)" fill="none" stroke="#010f27" stroke-linecap="round" stroke-width="2"/>
      </g>
      <g id="group-6" data-name="group" transform="translate(103.285 87.188)">
        <path id="パス_14" data-name="パス 14" d="M762.719,425.211s-1.759,1.155-3.12,0-1.238-3.384.248-3.879,2.146,0,2.146,0-.786-2.378,0-2.936,1.486-1.19,2.806-.448.7,2.641.7,2.641,2.146-.66,2.847,0,1.9,3.095,0,3.8-2.187,0-2.187,0,1.609,1.568.5,2.517-2.889,1.114-3.466.5-.263-1.692-.47-2.187" transform="translate(-753.702 -417.61)" fill="#010f27"/>
        <ellipse id="楕円形_40" data-name="楕円形 40" cx="1.401" cy="1.601" rx="1.401" ry="1.601" transform="translate(9.103 3.806) rotate(-16)" fill="#fff"/>
        <path id="パス_21" data-name="パス 21" d="M749.151,428.076a7.032,7.032,0,0,1,4.207-1.427" transform="translate(-749.151 -421.671)" fill="none" stroke="#010f27" stroke-linecap="round" stroke-width="2"/>
      </g>
      <g id="group-7" data-name="group" transform="translate(101.351 98.969)">
        <path id="パス_10" data-name="パス 10" d="M756.544,485.274a15.706,15.706,0,0,1,4.106-13.931c6.067-6.486,4.672-22.386-3.417-20.224s-9.624,9.136-10.531,22.526" transform="translate(-744.609 -449.476)" fill="none" stroke="#010f27" stroke-linecap="round" stroke-width="2.5"/>
        <path id="パス_11" data-name="パス 11" d="M741.474,515.547" transform="translate(-741.474 -488.24)" fill="none" stroke="#707070" stroke-width="1"/>
        <path id="パス_12" data-name="パス 12" d="M757.331,509.137a16.624,16.624,0,0,0,9.206-5.44" transform="translate(-750 -482.333)" fill="none" stroke="#010f27" stroke-linecap="round" stroke-width="2"/>
        <path id="パス_15" data-name="パス 15" d="M787.82,493.285" transform="translate(-769.217 -474.888)" fill="none" stroke="#010f27" stroke-linecap="round" stroke-width="3"/>
        <path id="パス_16" data-name="パス 16" d="M782.8,449.324a41.828,41.828,0,0,1,5.009,2.367" transform="translate(-766.258 -447.315)" fill="none" stroke="#010f27" stroke-linecap="round" stroke-width="1"/>
      </g>
      <g id="group-8" data-name="group" transform="translate(86.898 90.316)">
        <path id="パス_17" data-name="パス 17" d="M709.279,431.958s-3.905-.907-4.115-3.626,2.022-2.58,2.022-2.58,3.278-1.186,5.161,1.186-1.395,5.37-3.069,5.021" transform="translate(-705.151 -425.455)" fill="#010f27"/>
        <path id="パス_18" data-name="パス 18" d="M718.8,435.564s3.26-1.486,2.765-4.581c0,0,3.879,4.457-2.765,4.581" transform="translate(-713.335 -428.771)" fill="#010f27"/>
        <path id="パス_19" data-name="パス 19" d="M727.251,438.1s.289.867,1.981,1.155a4.485,4.485,0,0,1,3.879,2.724" transform="translate(-718.406 -433.038)" fill="none" stroke="#010f27" stroke-linecap="round" stroke-width="2"/>
      </g>
      <g id="group-9" data-name="group" transform="translate(68.241 86.609)">
        <path id="パス_24" data-name="パス 24" d="M750.578,453.959s12.058-20.628,19.946-24.708,9.429-5.712,13.237-11.967" transform="translate(-714.158 -417.284)" fill="none" stroke="#010f27" stroke-linecap="round" stroke-width="2.5"/>
        <path id="パス_25" data-name="パス 25" d="M692.99,471.769s-4.53-16.9-18.2-17.609-16.213-7.183-16.213-7.183" transform="translate(-658.575 -434.693)" fill="none" stroke="#010f27" stroke-linecap="round" stroke-width="2"/>
        <path id="パス_26" data-name="パス 26" d="M670.1,472.12s-.628,2.022-5.928,1.046A6.043,6.043,0,0,1,667.1,471.7a7.784,7.784,0,0,1-7.044-4.045l3.487-.488s-2.511-4.324-2.511-7.6c0,0,3.766,3.905,6.067,4.673s1.883,4.463,3.417,5.858,2.72,2.79,13.529,4.533,8.439,4.324,8.439,4.324-.558-2.859-8.439-3.208A35.717,35.717,0,0,1,670.1,472.12h0" transform="translate(-659.461 -442.245)" fill="#010f27"/>
      </g>
      <g id="group-10" data-name="group" transform="translate(89.904 0)">
        <path id="パス_23" data-name="パス 23" d="M65.568,68.765s6.315,7.537,3.463,17.111H65.568a7.878,7.878,0,0,1-2.25,5.492s-3,.143-3.566-1.07a9.234,9.234,0,0,1-2.639,5.563s-3.138-1.712-3.709-3.637c0,0-.713,7.132-6.633,9.7A5.729,5.729,0,0,1,43.562,98a10.518,10.518,0,0,1-5.991,3.281L36.858,98s-1.854,2.461-6.49,2.318c0,0-2.639-1.355-2-5.349a17.8,17.8,0,0,1-10.484,3.637L17.245,96.4s-.2,1.195-7.471,1.6c0,0-1.355-4.8,0-5.3a12.438,12.438,0,0,1-4.565.856s-.357-3.21,1.64-4.85c0,0-4.707-1.141-6.776-3.78,0,0-.713-3.709,2.282-5.706,0,0-.713-3.923,0-4.565,0,0,2.425-2.14,3.851-1.783,0,0-.856-2.639-2-3.566,0,0,2.568-2.924,5.563-2.568A9.619,9.619,0,0,0,7.1,63s3.319-3.344,6.176-2.662c0,0-.682-2.954,1.071-4.545,0,0,2.4-1.623,6.915-.682a3.049,3.049,0,0,1-.325-2.5,15.532,15.532,0,0,1,7.759,0l-8.322-7.726a5.283,5.283,0,0,1,2.617-1.224s-8.077-4.262-9.715-7.343a4.4,4.4,0,0,1,2.709-.886s-3.619-2.057-5.265-8.177a6.184,6.184,0,0,1,2.556,0s-3.526-5.571-3.189-9.875a15.444,15.444,0,0,1,2.912,0s-1.646-5.412,3.967-14.391c0,0,5.824-.2,8.145,1.445l.338-3.5s5.36-.063,7.385,2.057L33.677,0S39.754.717,42.2,7.723l1.646-4.094s3.545,1.519,4.094,4.938c0,0,3.165.127,3.883-1.393a11.032,11.032,0,0,1,1.6,6.626l4.642-1.773a41.963,41.963,0,0,1,.422,8.44L60.771,16.8l2.152,1.73a11.03,11.03,0,0,1,3.524-5.444l3.672,1.435S68.768,8.694,72.271,4.6c0,0,2.406-.549,3.714.464A12.508,12.508,0,0,1,79.445,1.1a3.761,3.761,0,0,1,2.616,2.617S86.662.506,90.544.422c0,0,3.5,3.25,2.912,9.453L95.9,9.411s1.562,3.207-.633,9.116l4.537.253a7.3,7.3,0,0,1-1.646,7.174s3.418,3,3.967,4.473c0,0,.886,2.237-7.132,4.262,0,0,3.207,1.583,4.136,3.946,0,0-.127,3.925-4.642,7.217l3.672,2.49s-1.393,3.461-7.343,5.528l3.672,1.688s-.9,2.8-7.818,4.357l2.279,2.237s-1.266,2.574-8.9,3.081a8.1,8.1,0,0,1,1.6,3.531s-3.833,4.122-16.082,0" transform="translate(97.974 0) rotate(74)" fill="#010f27"/>
        <path id="パス_27" data-name="パス 27" d="M870.836,316.385s5.649-19.859,19.828-35.947c0,0-3.733,15.628-19.828,35.947" transform="translate(-808.143 -247.762)" fill="#2cdcbf"/>
        <path id="パス_28" data-name="パス 28" d="M0,21.353A59.884,59.884,0,0,1,13.3,0S10.8,9.284,0,21.353" transform="translate(30.344 63.227) rotate(-71)" fill="#2cdcbf"/>
        <path id="パス_29" data-name="パス 29" d="M0,21.353A59.884,59.884,0,0,1,13.3,0S10.8,9.284,0,21.353" transform="translate(71.918 90.393) rotate(-118)" fill="#2cdcbf"/>
      </g>
      <g id="group-11" data-name="group" transform="translate(16.582 44.568)">
        <path id="パス_22" data-name="パス 22" d="M577.791,362.567s4.75,5.669,2.6,12.87h-2.6a5.926,5.926,0,0,1-1.692,4.131s-2.253.107-2.682-.8a6.946,6.946,0,0,1-1.985,4.184s-2.36-1.287-2.79-2.736c0,0-.536,5.365-4.989,7.3a4.309,4.309,0,0,1-2.414-2.951,7.912,7.912,0,0,1-4.506,2.468l-.536-2.468s-1.395,1.851-4.882,1.743c0,0-1.985-1.019-1.5-4.023a13.392,13.392,0,0,1-7.886,2.736l-.483-1.663s-.148.9-5.619,1.207c0,0-1.019-3.608,0-3.983a9.356,9.356,0,0,1-3.433.644s-.268-2.414,1.234-3.648c0,0-3.541-.858-5.1-2.843a4.4,4.4,0,0,1,1.717-4.292s-.536-2.951,0-3.433c0,0,1.824-1.609,2.9-1.341a7.32,7.32,0,0,0-1.5-2.682s1.931-2.2,4.184-1.931a7.235,7.235,0,0,0-2.012-2.819s2.5-2.515,4.646-2c0,0-.513-2.222.806-3.418,0,0,1.807-1.221,5.2-.513a2.294,2.294,0,0,1-.244-1.88,11.683,11.683,0,0,1,5.836,0L543.8,344.6a3.973,3.973,0,0,1,1.968-.921s-6.075-3.206-7.307-5.523a3.309,3.309,0,0,1,2.038-.667s-2.722-1.547-3.96-6.15a4.652,4.652,0,0,1,1.922,0s-2.652-4.19-2.4-7.428a11.615,11.615,0,0,1,2.19,0s-1.238-4.071,2.984-10.824c0,0,4.381-.151,6.126,1.087l.254-2.635s4.031-.048,5.555,1.547l.635-2.246a8.366,8.366,0,0,1,6.412,5.809l1.238-3.079a5.463,5.463,0,0,1,3.079,3.714s2.381.1,2.92-1.048a8.3,8.3,0,0,1,1.206,4.984l3.492-1.333a31.563,31.563,0,0,1,.317,6.349l1.714-2.762,1.619,1.3a8.3,8.3,0,0,1,2.651-4.095l2.762,1.079s-1.016-4.381,1.619-7.46a3.967,3.967,0,0,1,2.793.349,9.409,9.409,0,0,1,2.6-2.984,2.829,2.829,0,0,1,1.968,1.968s3.46-2.413,6.38-2.476a8.8,8.8,0,0,1,2.19,7.11l1.841-.349s1.175,2.412-.476,6.857l3.412.19a5.487,5.487,0,0,1-1.238,5.4s2.571,2.254,2.984,3.365c0,0,.667,1.682-5.365,3.206,0,0,2.413,1.19,3.111,2.968,0,0-.1,2.952-3.492,5.428l2.762,1.873s-1.047,2.6-5.523,4.158l2.762,1.27s-.675,2.1-5.88,3.277l1.714,1.682s-.952,1.936-6.7,2.317a6.094,6.094,0,0,1,1.206,2.656s-2.883,3.1-12.1,0" transform="translate(-528.472 -310.845)" fill="#010f27"/>
        <path id="パス_30" data-name="パス 30" d="M0,29.5S3.252,13.2,11.417,0c0,0-2.15,12.827-11.417,29.5" transform="translate(17.503 23.998) rotate(-64)" fill="#2cdcbf"/>
        <path id="パス_31" data-name="パス 31" d="M0,24.021S2.648,10.75,9.3,0c0,0-1.75,10.443-9.3,24.021" transform="translate(28.244 65.641) rotate(-151)" fill="#2cdcbf"/>
        <path id="パス_32" data-name="パス 32" d="M0,20.123S2.148,9.006,7.541,0c0,0-1.42,8.749-7.541,20.123" transform="translate(60.048 35.68) rotate(178)" fill="#2cdcbf"/>
      </g>
    </g>
  </g>
</svg>
