<svg xmlns="http://www.w3.org/2000/svg" width="239.499" height="236.239" viewBox="0 0 239.499 236.239">
  <g id="icon-02" transform="translate(-581.224 -120.963)">
    <g id="group" transform="translate(748.383 115.202) rotate(76.992)">
      <path id="パス_20" data-name="パス 20" d="M35.766,0a35.409,35.409,0,0,1,35.39,34.161,41.355,41.355,0,0,0-13.841,1.945s-22.438-18.34-26.557-6.427c-.1.278,4.617,27.295,4.44,27.865-3.136,9.145-2.184,12.665-2.184,12.665C13.258,70.208,0,55.689,0,35.876A35.82,35.82,0,0,1,35.766,0Z" transform="translate(8.886 11.028)" fill="#010f27"/>
      <path id="パス_12" data-name="パス 12" d="M17.783,2.639,5.418,0,0,13.893,9.586,20.7l8.2-18.061" transform="translate(1.038 21.111)" fill="#010f27"/>
      <path id="パス_13" data-name="パス 13" d="M9.7,0,0,6.906,5.919,20.963l11.427-2.3L9.7,0" transform="translate(0 48.768)" fill="#010f27"/>
      <path id="パス_14" data-name="パス 14" d="M0,2.959,14.715,0,20.47,13.975,9.29,21.7S1.768,6.8,0,2.96" transform="translate(66.924 19.373)" fill="#010f27"/>
      <path id="パス_17" data-name="パス 17" d="M1.708,0,0,11.636l13.786,5.691,6.963-9.984S5.2,1.47,1.708,0" transform="translate(17.935 70.714) rotate(7)" fill="#010f27"/>
      <path id="パス_18" data-name="パス 18" d="M2.134,17.02,0,5.755,14.964,0l6.33,9.372L2.628,17.02" transform="translate(17.768 5.245) rotate(-8)" fill="#010f27"/>
      <path id="パス_19" data-name="パス 19" d="M0,9.947,7.81,0,20.47,6.659,17.631,18.31S3.578,11.615,0,9.947" transform="translate(45.283 2.495) rotate(-7)" fill="#010f27"/>
      <path id="パス_223" data-name="パス 223" d="M20.575,0A20.686,20.686,0,0,1,41.206,19.472c-9.73,3.926-14.748,8.282-22.1,21.536A20.328,20.328,0,0,1,0,20.575,20.575,20.575,0,0,1,20.575,0Z" transform="translate(24.958 27.686)" fill="#fff"/>
    </g>
    <g id="gruop" transform="translate(597.427 255.541)">
      <path id="パス_4" data-name="パス 4" d="M819.405,549.091H791.432l2.044-33.492H676.384l2.434,33.492H649.276l7.8-27.139s2.681-5.606,7.312-8.043l47.529-22.18s-2.194,15.6,24.129,17.549c0,0,19.986-1.216,21.449-17.549l46.554,22.18s6.093,2.194,7.556,8.043l7.8,27.139" transform="translate(-649.276 -491.729)" fill="#010f27"/>
      <path id="パス_1" data-name="パス 1" d="M747.3,619.576l-4.209-56.029h95.8l-3.972,56.029H747.3" transform="translate(-705.376 -531.099)" fill="#fff" stroke="#010f27" stroke-linecap="round" stroke-linejoin="round" stroke-width="6"/>
      <path id="パス_2" data-name="パス 2" d="M756.68,746l2.193,3.9h86.283l2.682-3.9" transform="translate(-716.645 -650.239)" fill="none" stroke="#010f27" stroke-linecap="round" stroke-width="4"/>
      <ellipse id="楕円形_1" data-name="楕円形 1" cx="10.626" cy="10.143" rx="10.626" ry="10.143" transform="translate(74.79 52.958)" fill="#2cdcbf"/>
    </g>
    <g id="group-2" data-name="group" transform="translate(651.733 183.06)">
      <path id="パス_5" data-name="パス 5" d="M793.94,322.288s-12.757-11.638-2.909-15.89c0,0-6.938-22.157,8.505-24.17,0,0,2.685-13.655,24.618-9.624s21.933,22.6,21.933,22.6a32.077,32.077,0,0,1-1.343,11.19s9.847.224-2.014,13.876c0,0-4.253,19.024-17.009,27.528a40.281,40.281,0,0,1-14.771,0c-7.388-1.566-14.323-17.676-17.009-25.513" transform="translate(-787.299 -271.86)" fill="#010f27"/>
      <path id="パス_6" data-name="パス 6" d="M811.676,351.093s5.371-2.462,7.162-14.323a73.263,73.263,0,0,0,32.453,3.357s5.144,4.7,5.144,8.5a54.236,54.236,0,0,1-15,37.376,50.372,50.372,0,0,1-14.1,0s-14.548-9.847-15.666-34.914" transform="translate(-803.243 -314.317)" fill="#fff"/>
    </g>
    <g id="group-3" data-name="group" transform="translate(742.27 211.709)">
      <path id="パス_7" data-name="パス 7" d="M985.075,372.757v-6.822h78.453v55.282h-28.454v-2.848h25.4V378.333h-25.406V376.1h10.365v-3.341H985.075" transform="translate(-985.075 -365.935)" fill="#010f27"/>
      <ellipse id="楕円形_3" data-name="楕円形 3" cx="2.094" cy="1.57" rx="2.094" ry="1.57" transform="translate(68.634 1.969)" fill="#fff"/>
      <circle id="楕円形_2" data-name="楕円形 2" cx="1.57" cy="1.57" r="1.57" transform="translate(64.446 1.969)" fill="#fff"/>
      <circle id="楕円形_4" data-name="楕円形 4" cx="1.57" cy="1.57" r="1.57" transform="translate(73.87 1.969)" fill="#2cdcbf"/>
      <rect id="長方形_1" data-name="長方形 1" width="18.849" height="16.754" transform="translate(51.88 30.242)" fill="#2cdcbf"/>
      <rect id="長方形_2" data-name="長方形 2" width="20.943" height="3.141" transform="translate(49.786 22.912)" fill="#010f27"/>
      <rect id="長方形_3" data-name="長方形 3" width="5.235" height="2.094" transform="translate(49.786 16.629)" fill="#2cdcbf"/>
      <rect id="長方形_4" data-name="長方形 4" width="13.613" height="2.094" transform="translate(57.115 16.629)" fill="#010f27"/>
    </g>
    <g id="group-4" data-name="group" transform="translate(727.363 220.982)">
      <path id="パス_8" data-name="パス 8" d="M961.086,394.8l2.868-6.29H1015.3v55.136H987.264l-6.476-3.053h31.455V400.538H956.551l2.22-1.85h38.207V394.8H961.086" transform="translate(-953.293 -388.511)" fill="#010f27"/>
      <circle id="楕円形_5" data-name="楕円形 5" cx="1.57" cy="1.57" r="1.57" transform="translate(47.938 1.126)" fill="#2cdcbf"/>
      <circle id="楕円形_6" data-name="楕円形 6" cx="1.57" cy="1.57" r="1.57" transform="translate(52.127 1.126)" fill="#fff"/>
      <circle id="楕円形_7" data-name="楕円形 7" cx="1.57" cy="1.57" r="1.57" transform="translate(56.315 1.126)" fill="#fff"/>
      <path id="パス_9" data-name="パス 9" d="M989.188,457.7l5.8-26.275h3.432L992.907,457.7h-3.718" transform="translate(-970.647 -413.901)" fill="#2cdcbf"/>
      <path id="パス_10" data-name="パス 10" d="M963.479,443.489l-14.907,6.463v3.175l14.907,6.186V455.1l-9.049-3.613,9.049-3.776V443.5" transform="translate(-948.572 -421.038)" fill="#010f27"/>
      <path id="パス_11" data-name="パス 11" d="M1022.97,447.351v-4l15.163,6.4V453.1l-15.163,6.3v-4.16l9.141-3.777s-7.28-3.273-9.141-4.106" transform="translate(-992.587 -420.959)" fill="#010f27"/>
    </g>
    <g id="group-5" data-name="group" transform="matrix(0.819, -0.574, 0.574, 0.819, 580.723, 177.647)">
      <g id="group-6" data-name="group" transform="translate(12.461 53.733)">
        <path id="パス_21" data-name="パス 21" d="M0,0H8.649S7.084,2.589,4.427,2.316A5.387,5.387,0,0,1,0,0" transform="translate(2.526 9.152)" fill="#010f27"/>
        <path id="パス_22" data-name="パス 22" d="M2.109,8.139h9.709s1.807-.7,2.02-8.139H.02S-.353,6.007,2.109,8.139" fill="#010f27"/>
        <line id="線_1" data-name="線 1" x2="5.646" transform="translate(8.088 2.713)" fill="none" stroke="#fefefe" stroke-linecap="round" stroke-width="1.5"/>
        <line id="線_3" data-name="線 3" x2="7.838" transform="translate(5.285 5.447)" fill="none" stroke="#fefefe" stroke-linecap="round" stroke-width="1.5"/>
      </g>
      <path id="パス_23" data-name="パス 23" d="M.031,15.707S-1.3-.066,13.408,0,26.985,15.373,26.452,16.571A136.267,136.267,0,0,0,20.33,32.477H6.42A167.285,167.285,0,0,0,.031,15.709" transform="translate(5.761 19.201)" fill="#172132"/>
      <path id="パス_24" data-name="パス 24" d="M0,3.754S.683.1,3.826,0" transform="translate(10.905 23.399)" fill="none" stroke="#fff" stroke-linecap="round" stroke-width="2"/>
      <line id="線_4" data-name="線 4" x2="6.306" y2="7.707" transform="translate(0 7.707)" fill="none" stroke="#2cdcbf" stroke-linecap="round" stroke-width="4"/>
      <line id="線_5" data-name="線 5" y2="11.561" transform="translate(18.217)" fill="none" stroke="#2cdcbf" stroke-linecap="round" stroke-width="4"/>
      <line id="線_6" data-name="線 6" y1="8.758" x2="6.656" transform="translate(29.427 7.357)" fill="none" stroke="#2cdcbf" stroke-linecap="round" stroke-width="4"/>
    </g>
  </g>
</svg>
