<svg xmlns="http://www.w3.org/2000/svg" xmlns:xlink="http://www.w3.org/1999/xlink" width="404.385" height="404.234" viewBox="0 0 404.385 404.234">
  <defs>
    <clipPath id="clip-path">
      <circle id="楕円形_9" data-name="楕円形 9" cx="84" cy="84" r="84" fill="#fff" stroke="#010f27" stroke-linecap="round" stroke-width="4" opacity="0.14"/>
    </clipPath>
  </defs>
  <g id="icon-03" transform="translate(-998.992 -276.818)">
    <ellipse id="back" cx="147.272" cy="145.659" rx="147.272" ry="145.659" transform="translate(1054.86 330.341)" fill="#2cdcbf"/>
    <g id="group" transform="translate(1144.474 279)">
      <path id="パス_16" data-name="パス 16" d="M934.382,248.19a242.979,242.979,0,0,1,25.811,3.971" transform="translate(-857.62 -248.19)" fill="none" stroke="#fff" stroke-linecap="round" stroke-width="4"/>
      <path id="パス_17" data-name="パス 17" d="M1001,261.589s14.606,4.54,24.672,9.474" transform="translate(-879.59 -252.609)" fill="none" stroke="#fff" stroke-linecap="round" stroke-width="4"/>
      <path id="パス_18" data-name="パス 18" d="M1063.522,289.416s14.067,8.465,21.387,14.885" transform="translate(-900.207 -261.785)" fill="none" stroke="#fff" stroke-linecap="round" stroke-width="4"/>
      <path id="パス_19" data-name="パス 19" d="M1117.092,330.112s10.918,10.918,17.829,19.465" transform="translate(-917.873 -275.206)" fill="none" stroke="#fff" stroke-linecap="round" stroke-width="4"/>
      <path id="パス_20" data-name="パス 20" d="M1160.716,382.37s9.16,14.323,13.576,24.413" transform="translate(-932.26 -292.363)" fill="none" stroke="#fff" stroke-linecap="round" stroke-width="4"/>
      <path id="パス_21" data-name="パス 21" d="M1191.369,444.162s3.953,8.535,7.547,26.323" transform="translate(-942.368 -312.705)" fill="none" stroke="#fff" stroke-linecap="round" stroke-width="4"/>
      <path id="パス_27" data-name="パス 27" d="M1048.374,804.31s-13.656,8.086-25.065,12.218" transform="translate(-886.945 -431.269)" fill="none" stroke="#fff" stroke-linecap="round" stroke-width="4"/>
      <path id="パス_28" data-name="パス 28" d="M983.172,831.723A166.955,166.955,0,0,1,955.95,838.1" transform="translate(-864.732 -440.309)" fill="none" stroke="#fff" stroke-linecap="round" stroke-width="4"/>
      <path id="パス_29" data-name="パス 29" d="M915.153,844.014s-16.82.708-27.611-.355" transform="translate(-842.172 -444.245)" fill="none" stroke="#fff" stroke-linecap="round" stroke-width="4"/>
      <path id="パス_39" data-name="パス 39" d="M-42.369,391.425a191.231,191.231,0,0,0,28.012,6.534" transform="translate(42.369 -0.167)" fill="none" stroke="#fff" stroke-linecap="round" stroke-width="4"/>
    </g>
    <g id="group-2" data-name="group" transform="translate(1001.02 363.358)">
      <path id="パス_31" data-name="パス 31" d="M634.921,657.7s-6.911-15.411-9.26-24.533" transform="translate(-616.901 -459.338)" fill="none" stroke="#fff" stroke-linecap="round" stroke-width="4"/>
      <path id="パス_32" data-name="パス 32" d="M616.76,592.518s-3.386-16.724-3.525-25.916" transform="translate(-612.804 -437.388)" fill="none" stroke="#fff" stroke-linecap="round" stroke-width="4"/>
      <path id="パス_33" data-name="パス 33" d="M614.872,498.7s-2.142,16.862-2.281,26.607" transform="translate(-612.591 -414.996)" fill="none" stroke="#fff" stroke-linecap="round" stroke-width="4"/>
      <path id="パス_34" data-name="パス 34" d="M622.026,458s4.285-14.858,8.569-25.155" transform="translate(-615.702 -393.276)" fill="none" stroke="#fff" stroke-linecap="round" stroke-width="4"/>
      <path id="パス_35" data-name="パス 35" d="M646.747,396.338s7.118-13.545,13.891-22.529" transform="translate(-623.855 -373.808)" fill="none" stroke="#fff" stroke-linecap="round" stroke-width="4"/>
    </g>
    <g id="group-3" data-name="group" transform="translate(1046.594 283)">
      <g id="楕円形_11" data-name="楕円形 11" transform="translate(2.406 4)" fill="#fff" stroke="#010f27" stroke-linecap="round" stroke-width="4">
        <circle cx="84" cy="84" r="84" stroke="none"/>
        <circle cx="84" cy="84" r="82" fill="none"/>
      </g>
      <g id="group-4" data-name="group" transform="translate(2.406)" clip-path="url(#clip-path)">
        <path id="パス_40" data-name="パス 40" d="M721,477.7s.262-42.966,9.432-56.327c2.934-4.276,5.311-9.952,16.411-18.075,7.476,9.968,22.654,12.2,30.583,12.2,6.8-.227,17.443-.227,26.795-12.2a43.168,43.168,0,0,1,21.574,16.766c10.218,15.457,11.266,57.637,11.266,57.637l-56.814,25.135L721,477.7" transform="translate(-692.029 -322.213)" fill="#010f27" stroke="#010f27" stroke-linecap="round" stroke-linejoin="round" stroke-width="4"/>
        <g id="パス_58" data-name="パス 58" transform="translate(50.02 18.238)" fill="#010f27">
          <path d="M 34.57883071899414 67.15770721435547 C 30.17984199523926 67.15770721435547 25.91348648071289 66.29660797119141 21.8982982635498 64.59832000732422 C 18.01907539367676 62.95753860473633 14.53475284576416 60.60820388793945 11.5421199798584 57.61557388305664 C 8.54948616027832 54.62295150756836 6.20015287399292 51.13861465454102 4.559386253356934 47.25939559936523 C 2.86109733581543 43.24419403076172 1.99999737739563 38.97784805297852 1.99999737739563 34.57884979248047 C 1.99999737739563 30.17984962463379 2.86109733581543 25.91350555419922 4.559386253356934 21.89830589294434 C 6.20015287399292 18.01908302307129 8.54948616027832 14.53476047515869 11.5421199798584 11.54212760925293 C 14.53475284576416 8.549493789672852 18.01907539367676 6.200160980224609 21.8982982635498 4.559394359588623 C 25.91348648071289 2.861105442047119 30.17984199523926 2.00000524520874 34.57883071899414 2.00000524520874 C 38.97782897949219 2.00000524520874 43.24417495727539 2.861105442047119 47.25937652587891 4.559394359588623 C 51.13859558105469 6.200160980224609 54.62292098999023 8.549493789672852 57.61554336547852 11.54212760925293 C 60.60817337036133 14.53476047515869 62.9575080871582 18.01908302307129 64.59827423095703 21.89830589294434 C 66.29656219482422 25.91350555419922 67.15766143798828 30.17984962463379 67.15766143798828 34.57884979248047 C 67.15766143798828 38.97784805297852 66.29656219482422 43.24419403076172 64.59827423095703 47.25939559936523 C 62.9575080871582 51.13862609863281 60.60817337036133 54.62295150756836 57.61554336547852 57.61557388305664 C 54.62292098999023 60.60820388793945 51.13859558105469 62.95753860473633 47.25937652587891 64.59832000732422 C 43.24417495727539 66.29660797119141 38.97782897949219 67.15770721435547 34.57883071899414 67.15770721435547 Z" stroke="none"/>
          <path d="M 34.57883071899414 4 C 30.44895553588867 4 26.44472885131836 4.807952880859375 22.67739486694336 6.401401519775391 C 19.03656768798828 7.941337585449219 15.76593017578125 10.14673614501953 12.95632934570312 12.95633697509766 C 10.14673233032227 15.76593780517578 7.941329956054688 19.03657531738281 6.401393890380859 22.67741394042969 C 4.807945251464844 26.44474792480469 3.999992370605469 30.4489631652832 3.999992370605469 34.57884979248047 C 3.999992370605469 38.70873641967773 4.807945251464844 42.71295166015625 6.401393890380859 46.48028564453125 C 7.941329956054688 50.12112426757812 10.14673233032227 53.39176177978516 12.95632934570312 56.20136260986328 C 15.76593017578125 59.01096343994141 19.03656768798828 61.21636199951172 22.67739486694336 62.75630187988281 C 26.44472885131836 64.34974670410156 30.44895553588867 65.15769958496094 34.57883071899414 65.15769958496094 C 38.70870590209961 65.15769958496094 42.71292877197266 64.34974670410156 46.48027038574219 62.75630187988281 C 50.12109375 61.21636199951172 53.39173126220703 59.01096343994141 56.20133209228516 56.20136260986328 C 59.01091766357422 53.39176177978516 61.21631622314453 50.12112426757812 62.75626754760742 46.48028564453125 C 64.34970855712891 42.71295166015625 65.15765380859375 38.70873641967773 65.15765380859375 34.57884979248047 C 65.15765380859375 30.4489631652832 64.34970855712891 26.44474792480469 62.75626754760742 22.67741394042969 C 61.21631622314453 19.03657531738281 59.01091766357422 15.76593780517578 56.20133209228516 12.95633697509766 C 53.39173126220703 10.14673614501953 50.12109375 7.941337585449219 46.48027038574219 6.401401519775391 C 42.71292877197266 4.807952880859375 38.70870590209961 4 34.57883071899414 4 M 34.57883071899414 0 C 53.67619323730469 0 69.15765380859375 15.48147583007812 69.15765380859375 34.57884979248047 C 69.15765380859375 53.67622375488281 53.67619323730469 69.15769958496094 34.57883071899414 69.15769958496094 C 15.48146820068359 69.15769958496094 -7.62939453125e-06 53.67622375488281 -7.62939453125e-06 34.57884979248047 C -7.62939453125e-06 15.48147583007812 15.48146820068359 0 34.57883071899414 0 Z" stroke="none" fill="#010f27"/>
        </g>
      </g>
      <path id="パス_41" data-name="パス 41" d="M1120.067,435.805l12.913-20.615,12.233,20.615,21.974,6.57-14.5,16.764,1.359,23.787-21.068-9.288-21.974,9.288,2.492-23.787-14.272-16.764s16.82-5.55,20.842-6.57" transform="translate(-1046.594 -283)" fill="#fff" stroke="#010f27" stroke-linecap="round" stroke-linejoin="round" stroke-width="4"/>
      <path id="パス_42" data-name="パス 42" d="M1114.321,430.121l9.353-14.931,8.86,14.931,15.916,4.758-10.5,12.142.984,17.228-15.26-6.727-15.916,6.727,1.8-17.228-10.337-12.142s12.183-4.02,15.1-4.758" transform="translate(-1099.226 -295.662)" fill="#fff" stroke="#010f27" stroke-linecap="round" stroke-linejoin="round" stroke-width="4"/>
      <path id="パス_43" data-name="パス 43" d="M1114.321,430.121l9.353-14.931,8.86,14.931,15.916,4.758-10.5,12.142.984,17.228-15.26-6.727-15.916,6.727,1.8-17.228-10.337-12.142s12.183-4.02,15.1-4.758" transform="translate(-976.226 -293.662)" fill="#fff" stroke="#010f27" stroke-linecap="round" stroke-linejoin="round" stroke-width="4"/>
    </g>
    <g id="group-5" data-name="group" transform="translate(1205.627 452)">
      <path id="パス_45" data-name="パス 45" d="M1274.921,471.443s1.743-17.158,15.55-17.292,14.343,17.292,14.343,17.292h-29.893" transform="translate(-1201 -452)" fill="none" stroke="#010f27" stroke-linecap="round" stroke-linejoin="round" stroke-width="4"/>
      <g id="長方形_6" data-name="長方形 6" transform="translate(29 18)" fill="#fff" stroke="#010f27" stroke-linecap="round" stroke-linejoin="round" stroke-width="4">
        <rect width="162" height="163" stroke="none"/>
        <rect x="2" y="2" width="158" height="159" fill="none"/>
      </g>
      <g id="group-6" data-name="group">
        <g id="楕円形_12" data-name="楕円形 12" fill="#010f27" stroke="#010f27" stroke-width="4">
          <circle cx="48" cy="48" r="48" stroke="none"/>
          <circle cx="48" cy="48" r="46" fill="none"/>
        </g>
        <path id="パス_44" data-name="パス 44" d="M1249,468.144v32.4h25.114" transform="translate(-1201 -452)" fill="none" stroke="#fff" stroke-linecap="round" stroke-linejoin="round" stroke-width="4"/>
      </g>
      <g id="group-7" data-name="group" transform="translate(125.5 1.679)">
        <path id="パス_46" data-name="パス 46" d="M1340.806,487.462V467.891s-.938-14.477,14.611-14.209,13,16.488,13,16.488" transform="translate(-1326.5 -453.679)" fill="none" stroke="#2cdcbf" stroke-linecap="round" stroke-width="4"/>
        <line id="線_4" data-name="線 4" x2="30" transform="translate(0 34.821)" fill="none" stroke="#2cdcbf" stroke-linecap="round" stroke-width="4"/>
      </g>
      <g id="楕円形_13" data-name="楕円形 13" transform="translate(132 66)" fill="#2cdcbf" stroke="#010f27" stroke-linecap="round" stroke-width="3">
        <circle cx="12" cy="12" r="12" stroke="none"/>
        <circle cx="12" cy="12" r="10.5" fill="none"/>
      </g>
      <g id="楕円形_14" data-name="楕円形 14" transform="translate(65 136)" fill="#2cdcbf" stroke="#010f27" stroke-linecap="round" stroke-width="3">
        <circle cx="12" cy="12" r="12" stroke="none"/>
        <circle cx="12" cy="12" r="10.5" fill="none"/>
      </g>
      <path id="パス_47" data-name="パス 47" d="M1264.714,562.384l9.968,10.194,14.272-15.178" transform="translate(-1201 -452)" fill="none" stroke="#010f27" stroke-linecap="round" stroke-linejoin="round" stroke-width="4"/>
      <path id="パス_48" data-name="パス 48" d="M1264.714,562.384l9.968,10.194,14.272-15.178" transform="translate(-1134 -452)" fill="none" stroke="#010f27" stroke-linecap="round" stroke-linejoin="round" stroke-width="4"/>
      <path id="パス_49" data-name="パス 49" d="M1264.714,562.384l9.968,10.194,14.272-15.178" transform="translate(-1134 -418)" fill="none" stroke="#010f27" stroke-linecap="round" stroke-linejoin="round" stroke-width="4"/>
    </g>
    <g id="group-8" data-name="group" transform="translate(1026.635 495.499)">
      <g id="group-9" data-name="group" transform="translate(14.315)">
        <path id="パス_50" data-name="パス 50" d="M1070.853,572.523l-12.233-5.21,2.945-7.929-7.929-6.57-9.062,1.586-3.625-12.007,6.8-3.625,2.039-10.194-8.835-4.078,5.663-10.874,9.288,1.586,4.3-5.664v-8.155l10.647-5.89,4.078,7.249h9.515l5.89-7.249,10.194,5.89-2.492,6.117,8.835,7.7,8.155-1.586,4.078,10.874-8.156,4.078v10.194l8.156,4.984-4.078,10.647-8.155-2.719-8.835,7.7,2.492,7.929-10.194,5.21-5.89-7.023-9.515-1.359-4.078,8.382" transform="translate(-1040.95 -495.499)" fill="#010f27" stroke="#fff" stroke-width="3"/>
        <g id="楕円形_15" data-name="楕円形 15" transform="translate(19.05 18.501)" fill="#010f27" stroke="#fff" stroke-width="3">
          <circle cx="20" cy="20" r="20" stroke="none"/>
          <circle cx="20" cy="20" r="18.5" fill="none"/>
        </g>
      </g>
      <g id="group-10" data-name="group" transform="translate(0 10.891)">
        <path id="パス_51" data-name="パス 51" d="M1026.635,605.349s113.678-5.375,146.662-98.953" transform="translate(-1026.635 -506.39)" fill="none" stroke="#010f27" stroke-linecap="round" stroke-width="10"/>
        <path id="パス_52" data-name="パス 52" d="M1146.08,515.774l27.325-9.383,9.177,24.747" transform="translate(-1026.635 -506.39)" fill="none" stroke="#010f27" stroke-linecap="round" stroke-linejoin="round" stroke-width="10"/>
      </g>
      <g id="group-11" data-name="group" transform="translate(0 10.891)">
        <path id="パス_51-2" data-name="パス 51" d="M1026.635,605.349s113.678-5.375,146.662-98.953" transform="translate(-1026.635 -506.39)" fill="none" stroke="#fff" stroke-linecap="round" stroke-width="4"/>
        <path id="パス_52-2" data-name="パス 52" d="M1146.08,515.774l27.325-9.383,9.177,24.747" transform="translate(-1026.635 -506.39)" fill="none" stroke="#fff" stroke-linecap="round" stroke-linejoin="round" stroke-width="4"/>
      </g>
      <path id="パス_53" data-name="パス 53" d="M1026.635,655.573h164.183" transform="translate(-1026.635 -495.499)" fill="none" stroke="#010f27" stroke-linecap="round" stroke-width="4"/>
      <path id="パス_54" data-name="パス 54" d="M1190.818,654.654V550.145H1159.19V654.654h31.628" transform="translate(-1026.635 -495.499)" fill="#fff" stroke="#010f27" stroke-linecap="round" stroke-linejoin="round" stroke-width="4"/>
      <path id="パス_55" data-name="パス 55" d="M1190.818,607.081V550.145H1159.19v56.936h31.628" transform="translate(-1071.635 -447.926)" fill="#fff" stroke="#010f27" stroke-linecap="round" stroke-linejoin="round" stroke-width="4"/>
      <path id="パス_56" data-name="パス 56" d="M1190.818,595.057V550.145H1159.19v44.912h31.628" transform="translate(-1115.635 -435.901)" fill="#fff" stroke="#010f27" stroke-linecap="round" stroke-linejoin="round" stroke-width="4"/>
      <path id="パス_57" data-name="パス 57" d="M1190.818,587.829V550.145H1159.19v37.684h31.628" transform="translate(-1159.19 -427.755)" fill="#2cdcbf" stroke="#010f27" stroke-linecap="round" stroke-linejoin="round" stroke-width="4"/>
    </g>
  </g>
</svg>
