<svg xmlns="http://www.w3.org/2000/svg" width="404.038" height="404.234" viewBox="0 0 404.038 404.234">
  <g id="icon-02" transform="translate(-610.563 -246.008)">
    <ellipse id="back" cx="144.959" cy="145.659" rx="144.959" ry="145.659" transform="translate(667.571 302.669)" fill="#2cdcbf"/>
    <g id="group" transform="translate(667.208 282.369)">
      <path id="パス_1" data-name="パス 1" d="M694.082,308.14V467.72h145.7V308.14h-145.7" transform="translate(-694.082 -308.14)" fill="#fff" stroke="#010f27" stroke-linecap="round" stroke-linejoin="round" stroke-width="4"/>
      <rect id="長方形_1" data-name="長方形 1" width="145" height="23" transform="translate(0.362 0.3)" fill="#010f27"/>
      <path id="パス_2" data-name="パス 2" d="M721,433.99s.117-19.154,4.2-25.11,11.8-10.161,20.906-10.044,17.052,2.569,21.607,9.46,5.022,25.694,5.022,25.694H721" transform="translate(-702.959 -338.048)" fill="#010f27" stroke="#fff" stroke-linecap="round" stroke-linejoin="round" stroke-width="4"/>
      <g id="楕円形_1" data-name="楕円形 1" transform="translate(27.362 34.3)" fill="#010f27" stroke="#fff" stroke-width="4">
        <circle cx="15.5" cy="15.5" r="15.5" stroke="none"/>
        <circle cx="15.5" cy="15.5" r="13.5" fill="none"/>
      </g>
      <line id="線_1" data-name="線 1" x2="43.564" transform="translate(79.366 71.285)" fill="none" stroke="#010f27" stroke-linecap="round" stroke-width="4"/>
      <line id="線_2" data-name="線 2" x2="43.564" transform="translate(79.366 91.392)" fill="none" stroke="#010f27" stroke-linecap="round" stroke-width="4"/>
      <line id="線_3" data-name="線 3" x2="98.522" transform="translate(24.408 112.168)" fill="none" stroke="#010f27" stroke-linecap="round" stroke-width="4"/>
      <g id="長方形_2" data-name="長方形 2" transform="translate(45.362 126.3)" fill="#fff" stroke="#010f27" stroke-linecap="round" stroke-linejoin="round" stroke-width="4">
        <rect width="56" height="18" stroke="none"/>
        <rect x="2" y="2" width="52" height="14" fill="none"/>
      </g>
    </g>
    <g id="group-2" data-name="group" transform="translate(830.688 345.061)">
      <path id="パス_5" data-name="パス 5" d="M721,444.805s.153-25.046,5.5-32.835,15.425-13.287,27.337-13.134,22.3,3.36,28.253,12.37,6.567,33.6,6.567,33.6H721" transform="translate(-720.999 -364.26)" fill="#fff" stroke="#010f27" stroke-linecap="round" stroke-linejoin="round" stroke-width="4"/>
      <g id="楕円形_2" data-name="楕円形 2" transform="translate(12.271 0.54)" fill="#fff" stroke="#010f27" stroke-width="4">
        <ellipse cx="20.157" cy="20.157" rx="20.157" ry="20.157" stroke="none"/>
        <ellipse cx="20.157" cy="20.157" rx="18.157" ry="18.157" fill="none"/>
      </g>
      <path id="パス_7" data-name="パス 7" d="M721,444.805s.153-25.046,5.5-32.835,15.425-13.287,27.337-13.134,22.3,3.36,28.253,12.37,6.567,33.6,6.567,33.6H721" transform="translate(-633.87 -364.8)" fill="#fff" stroke="#010f27" stroke-linecap="round" stroke-linejoin="round" stroke-width="4"/>
      <g id="楕円形_4" data-name="楕円形 4" transform="translate(99.399)" fill="#fff" stroke="#010f27" stroke-width="4">
        <ellipse cx="20.157" cy="20.157" rx="20.157" ry="20.157" stroke="none"/>
        <ellipse cx="20.157" cy="20.157" rx="18.157" ry="18.157" fill="none"/>
      </g>
      <path id="パス_6" data-name="パス 6" d="M721,444.805s.153-25.046,5.5-32.835,15.425-13.287,27.337-13.134,22.3,3.36,28.253,12.37,6.567,33.6,6.567,33.6H721" transform="translate(-678.105 -341.814)" fill="#fff" stroke="#010f27" stroke-linecap="round" stroke-linejoin="round" stroke-width="4"/>
      <g id="楕円形_3" data-name="楕円形 3" transform="translate(55.165 22.986)" fill="#fff" stroke="#010f27" stroke-width="4">
        <ellipse cx="20.157" cy="20.157" rx="20.157" ry="20.157" stroke="none"/>
        <ellipse cx="20.157" cy="20.157" rx="18.157" ry="18.157" fill="none"/>
      </g>
    </g>
    <g id="group-3" data-name="group" transform="translate(852.488 457.882)">
      <g id="パス_9" data-name="パス 9" transform="translate(53.751 12.325)" fill="#010f27" stroke-linecap="round" stroke-linejoin="round">
        <path d="M53.121,2.319s.395,2.221.706,5.841A99.5,99.5,0,0,1,54.034,22.4a71.476,71.476,0,0,1-3.161,17.721,41.639,41.639,0,0,1-9.4,16.278A69.5,69.5,0,0,1,28.313,67.158a55.322,55.322,0,0,1-11.756,5.576,47.408,47.408,0,0,1-9.166,2.1A42.121,42.121,0,0,1,2,75.152V50.48s.864-.086,2.264-.358a40.879,40.879,0,0,0,5.483-1.468,32.9,32.9,0,0,0,6.742-3.17,21.928,21.928,0,0,0,6.039-5.465,30.146,30.146,0,0,0,3.729-6.251,24.247,24.247,0,0,0,1.675-6.751,93.042,93.042,0,0,0,.453-9.675c.04-3.982.015-8.854.065-15.022H53.121" stroke="none"/>
        <path d="M 1.999992370605469 77.15206909179688 C 2.471633911132812 77.15206909179688 3.184181213378906 77.15206909179688 4.105850219726562 77.11268615722656 C 5.027519226074219 77.07330322265625 6.158313751220703 76.99453735351562 7.466453552246094 76.83700561523438 C 8.774589538574219 76.67947387695312 10.26007080078125 76.44317626953125 11.89111709594727 76.08872985839844 C 13.52216339111328 75.73427581787109 15.29877471923828 75.26167297363281 17.18917083740234 74.63154602050781 C 18.22694778442383 74.28562164306641 19.26142883300781 73.90472412109375 20.29083633422852 73.48970794677734 C 21.32024383544922 73.07469177246094 22.34457397460938 72.62554931640625 23.36205101013184 72.14311981201172 C 24.3795280456543 71.66069030761719 25.39015197753906 71.14498138427734 26.39214515686035 70.59683227539062 C 27.39413833618164 70.04867553710938 28.38749694824219 69.46808624267578 29.37044715881348 68.85589599609375 C 30.55348968505859 68.11909484863281 31.72554016113281 67.33383941650391 32.88462066650391 66.50175476074219 C 34.04370498657227 65.66967010498047 35.1898193359375 64.79075622558594 36.32098770141602 63.86662673950195 C 37.45215606689453 62.94249725341797 38.56838226318359 61.97314834594727 39.66767883300781 60.96019744873047 C 40.76698303222656 59.94724655151367 41.84935760498047 58.89069366455078 42.91283798217773 57.79216003417969 C 43.99043273925781 56.67903900146484 45.00600433349609 55.48567962646484 45.95811462402344 54.21456909179688 C 46.91022491455078 52.94346237182617 47.79887008666992 51.5946044921875 48.62261581420898 50.17048645019531 C 49.44636154174805 48.74636840820312 50.20520401000977 47.24699020385742 50.897705078125 45.67484283447266 C 51.59020233154297 44.10269165039062 52.21636199951172 42.45777130126953 52.77473831176758 40.74256896972656 C 53.21562194824219 39.38826751708984 53.61475372314453 37.98938369750977 53.97164916992188 36.54857635498047 C 54.32854461669922 35.10777282714844 54.64321136474609 33.62504196166992 54.91516494750977 32.10305023193359 C 55.1871223449707 30.58105850219727 55.4163703918457 29.01980590820312 55.60243606567383 27.42195129394531 C 55.78850173950195 25.8240966796875 55.93138122558594 24.18964195251465 56.03060531616211 22.52124786376953 C 56.1987190246582 19.69442749023438 56.2281494140625 17.01977157592773 56.17669677734375 14.59205722808838 C 56.125244140625 12.16434288024902 55.99290466308594 9.983570098876953 55.83748626708984 8.144519805908203 C 55.68206405639648 6.305468559265137 55.50356292724609 4.808139801025391 55.35977935791016 3.747312545776367 C 55.21599578857422 2.686485290527344 55.10693359375 2.062159538269043 55.09039306640625 1.969115138053894 C 55.04796600341797 1.730476140975952 54.96427917480469 1.508035898208618 54.84746551513672 1.308609843254089 C 54.73064804077148 1.109183788299561 54.58070373535156 0.9327719211578369 54.40576553344727 0.7861900329589844 C 54.23082733154297 0.6396081447601318 54.03089141845703 0.5228559970855713 53.8140983581543 0.4427493810653687 C 53.59730529785156 0.362642765045166 53.36365127563477 0.3191816806793213 53.12126922607422 0.3191816806793213 L 28.44884872436523 0.3191816806793213 C 28.17426681518555 0.3191816806793213 27.91253089904785 0.3745379447937012 27.67424011230469 0.4747331142425537 C 27.43594932556152 0.5749282836914062 27.22110366821289 0.7199623584747314 27.04030609130859 0.8993178606033325 C 26.8595085144043 1.078673362731934 26.71275901794434 1.29235053062439 26.61066055297852 1.529831767082214 C 26.50856018066406 1.767313003540039 26.45111083984375 2.028598546981812 26.44891548156738 2.303170680999756 C 26.4425163269043 3.102912425994873 26.43735504150391 3.882243633270264 26.43313217163086 4.640983581542969 C 26.42891120910645 5.399723529815674 26.42562866210938 6.137872695922852 26.42298889160156 6.855249404907227 C 26.42034912109375 7.57262659072876 26.41835021972656 8.269231796264648 26.41669273376465 8.944884300231934 C 26.41503524780273 9.620536804199219 26.41372108459473 10.27523708343506 26.41244888305664 10.90880393981934 C 26.40390777587891 15.16023445129395 26.39705657958984 18.56999206542969 26.306396484375 21.4084529876709 C 26.21573829650879 24.24691390991211 26.0412712097168 26.51408004760742 25.6974925994873 28.4803295135498 C 25.35371398925781 30.44657897949219 24.84062576293945 32.11190795898438 24.07272720336914 33.74670028686523 C 23.30483055114746 35.38149261474609 22.2821216583252 36.98574829101562 20.91910171508789 38.82983779907227 C 20.13348388671875 39.89273834228516 19.23345565795898 40.83943557739258 18.26878356933594 41.68125915527344 C 17.30410766601562 42.52308654785156 16.27478790283203 43.26004028320312 15.23059463500977 43.90345764160156 C 14.1864013671875 44.54687118530273 13.12732696533203 45.09674453735352 12.10314559936523 45.56440734863281 C 11.07896423339844 46.03207015991211 10.08967590332031 46.41752243041992 9.185047149658203 46.73209381103516 C 8.175750732421875 47.08306121826172 7.211524963378906 47.36819458007812 6.3323974609375 47.59852600097656 C 5.453273773193359 47.828857421875 4.659248352050781 48.00438690185547 3.9903564453125 48.13615417480469 C 3.321464538574219 48.26792144775391 2.777702331542969 48.35592269897461 2.399097442626953 48.41119384765625 C 2.020492553710938 48.46646499633789 1.807048797607422 48.48900604248047 1.798793792724609 48.48984909057617 C 1.543674468994141 48.51593780517578 1.303688049316406 48.5892333984375 1.087215423583984 48.70053100585938 C 0.8707427978515625 48.81182861328125 0.6777801513671875 48.96113204956055 0.5167121887207031 49.13922882080078 C 0.3556442260742188 49.31732940673828 0.2264633178710938 49.52422332763672 0.1375503540039062 49.75070571899414 C 0.04863739013671875 49.97718811035156 -7.62939453125e-06 50.2232551574707 -7.62939453125e-06 50.47970581054688 L -7.62939453125e-06 75.15206909179688 C -7.62939453125e-06 75.42820739746094 0.05595779418945312 75.6912841796875 0.15716552734375 75.93055725097656 C 0.2583694458007812 76.16983032226562 0.404815673828125 76.38531494140625 0.5857772827148438 76.5662841796875 C 0.7667427062988281 76.74724578857422 0.9822235107421875 76.89369201660156 1.221500396728516 76.99489593505859 C 1.460777282714844 77.09609985351562 1.723850250244141 77.15206909179688 1.999992370605469 77.15206909179688 Z M 51.39657211303711 4.3191819190979 C 51.49785995483398 5.079808235168457 51.61880111694336 6.083164691925049 51.73560333251953 7.286667823791504 C 51.85240173339844 8.490171432495117 51.96505737304688 9.893821716308594 52.04977416992188 11.45503616333008 C 52.13448715209961 13.01625061035156 52.19125747680664 14.73502826690674 52.19628524780273 16.56878471374512 C 52.20131301879883 18.40254211425781 52.15460205078125 20.35128021240234 52.0323486328125 22.37241554260254 C 51.88335037231445 24.83567047119141 51.61132049560547 27.53689002990723 51.14906692504883 30.34570121765137 C 50.68681716918945 33.15451049804688 50.03434753417969 36.07091522216797 49.12447357177734 38.96453857421875 C 48.214599609375 41.85816192626953 47.04732513427734 44.72900390625 45.55546188354492 47.44669723510742 C 44.0635986328125 50.16439056396484 42.24714660644531 52.72893524169922 40.03892517089844 55.00996017456055 C 37.35023498535156 57.78728485107422 34.53855133056641 60.26839065551758 31.63714599609375 62.43739318847656 C 28.73573684692383 64.60639953613281 25.74460220336914 66.46330261230469 22.6970043182373 67.99223327636719 C 19.64940643310547 69.52116394042969 16.54534912109375 70.72211456298828 13.4180908203125 71.57920837402344 C 10.29083633422852 72.43630218505859 7.140380859375 72.94953918457031 3.999992370605469 73.10305023193359 L 3.999992370605469 52.20529937744141 C 4.374794006347656 52.13917922973633 4.79974365234375 52.05833053588867 5.266944885253906 51.96025085449219 C 5.734142303466797 51.86216735839844 6.24359130859375 51.74685668945312 6.787384033203125 51.61181259155273 C 7.3311767578125 51.47676849365234 7.909320831298828 51.32198715209961 8.513908386230469 51.14496994018555 C 9.118499755859375 50.96795272827148 9.749538421630859 50.76869964599609 10.39912414550781 50.54470443725586 C 11.05829620361328 50.31740570068359 11.70310211181641 50.07611846923828 12.33249282836914 49.82133483886719 C 12.96188354492188 49.56655120849609 13.57585906982422 49.29827117919922 14.17338180541992 49.01699066162109 C 14.77090454101562 48.73571014404297 15.35196685791016 48.44142532348633 15.91552734375 48.13462829589844 C 16.47908782958984 47.82783126831055 17.025146484375 47.50852203369141 17.55265808105469 47.17719268798828 C 18.22478485107422 46.75503158569336 18.8673095703125 46.3128776550293 19.47927093505859 45.85160064697266 C 20.09123611450195 45.39032745361328 20.67263793945312 44.90993118286133 21.22251510620117 44.41128540039062 C 21.77239227294922 43.91263961791992 22.29074859619141 43.39574432373047 22.77661895751953 42.86147308349609 C 23.26248931884766 42.32720184326172 23.71587562561035 41.77555084228516 24.13581466674805 41.20739364624023 C 24.94275856018066 40.11563873291016 25.64081192016602 39.09506988525391 26.24598693847656 38.11089706420898 C 26.85116004943848 37.12672424316406 27.36345291137695 36.1789436340332 27.79887390136719 35.2327766418457 C 28.23429298400879 34.2866096496582 28.59283828735352 33.34205627441406 28.8905200958252 32.36432647705078 C 29.18820190429688 31.38659477233887 29.42502021789551 30.37569046020508 29.61698150634766 29.29682540893555 C 29.80878067016602 28.21885108947754 29.95329666137695 27.07941818237305 30.06245803833008 25.83955192565918 C 30.17161750793457 24.59968566894531 30.24542236328125 23.2593879699707 30.29580307006836 21.77968597412109 C 30.34618377685547 20.29998397827148 30.37313842773438 18.68087768554688 30.38859939575195 16.88339424133301 C 30.40406227111816 15.08590984344482 30.40803146362305 13.11004829406738 30.41243743896484 10.91683769226074 C 30.4134407043457 10.41871738433838 30.41446876525879 9.907515525817871 30.41566848754883 9.383352279663086 C 30.41686820983887 8.859189987182617 30.41823959350586 8.322065353393555 30.41992950439453 7.772100448608398 C 30.4216194152832 7.222135543823242 30.42362594604492 6.659329414367676 30.42609596252441 6.083803176879883 C 30.42856597900391 5.508276462554932 30.43149948120117 4.920029640197754 30.4350414276123 4.3191819190979 L 51.39657211303711 4.3191819190979 Z" stroke="none" fill="#010f27"/>
      </g>
      <path id="パス_8" data-name="パス 8" d="M976.911,582.592s-6.316,35.528,11.645,54.082,35.331,18.751,39.476,18.751V630.753s-13.817-1.382-20.527-10.461-5.724-13.027-5.921-37.7H976.911" transform="translate(-972.361 -567.948)" fill="#fff" stroke="#010f27" stroke-width="4"/>
      <g id="長方形_3" data-name="長方形 3" fill="#fff" stroke="#010f27" stroke-linecap="round" stroke-linejoin="round" stroke-width="4">
        <rect width="34" height="20" stroke="none"/>
        <rect x="2" y="2" width="30" height="16" fill="none"/>
      </g>
      <g id="長方形_4" data-name="長方形 4" transform="translate(78)" fill="#fff" stroke="#010f27" stroke-linecap="round" stroke-linejoin="round" stroke-width="4">
        <rect width="33" height="20" stroke="none"/>
        <rect x="2" y="2" width="29" height="16" fill="none"/>
      </g>
    </g>
    <g id="group-4" data-name="group" transform="translate(796.786 248.19)">
      <path id="パス_16" data-name="パス 16" d="M934.382,248.19a242.979,242.979,0,0,1,25.811,3.971" transform="translate(-902.988 -248.19)" fill="none" stroke="#fff" stroke-linecap="round" stroke-width="4"/>
      <path id="パス_17" data-name="パス 17" d="M1001,261.589s14.606,4.54,24.672,9.474" transform="translate(-924.959 -252.609)" fill="none" stroke="#fff" stroke-linecap="round" stroke-width="4"/>
      <path id="パス_18" data-name="パス 18" d="M1063.522,289.416s14.067,8.465,21.387,14.885" transform="translate(-945.576 -261.785)" fill="none" stroke="#fff" stroke-linecap="round" stroke-width="4"/>
      <path id="パス_19" data-name="パス 19" d="M1117.092,330.112s10.918,10.918,17.829,19.465" transform="translate(-963.242 -275.206)" fill="none" stroke="#fff" stroke-linecap="round" stroke-width="4"/>
      <path id="パス_20" data-name="パス 20" d="M1160.716,382.37s9.16,14.323,13.576,24.413" transform="translate(-977.629 -292.363)" fill="none" stroke="#fff" stroke-linecap="round" stroke-width="4"/>
      <path id="パス_21" data-name="パス 21" d="M1191.369,444.162s3.953,8.535,7.547,26.323" transform="translate(-987.737 -312.705)" fill="none" stroke="#fff" stroke-linecap="round" stroke-width="4"/>
      <path id="パス_22" data-name="パス 22" d="M1207.186,511.185s1.887,4.514,1.527,26.862" transform="translate(-992.953 -334.77)" fill="none" stroke="#fff" stroke-linecap="round" stroke-width="4"/>
      <path id="パス_23" data-name="パス 23" d="M1204.821,580.286s-1.662,17.429-4.807,27.491" transform="translate(-990.588 -357.518)" fill="none" stroke="#fff" stroke-linecap="round" stroke-width="4"/>
      <path id="パス_24" data-name="パス 24" d="M1186.233,647.61s-5.391,15.093-11.05,25.155" transform="translate(-982.399 -379.683)" fill="none" stroke="#fff" stroke-linecap="round" stroke-width="4"/>
      <path id="パス_25" data-name="パス 25" d="M1152.151,709.875s-9.792,14.195-17.249,22.64" transform="translate(-969.115 -400.183)" fill="none" stroke="#fff" stroke-linecap="round" stroke-width="4"/>
      <path id="パス_26" data-name="パス 26" d="M1105.308,762.287a179.259,179.259,0,0,1-22.55,18.777" transform="translate(-951.919 -417.41)" fill="none" stroke="#fff" stroke-linecap="round" stroke-width="4"/>
      <path id="パス_27" data-name="パス 27" d="M1048.374,804.31s-13.656,8.086-25.065,12.218" transform="translate(-932.314 -431.269)" fill="none" stroke="#fff" stroke-linecap="round" stroke-width="4"/>
      <path id="パス_28" data-name="パス 28" d="M983.172,831.723A166.955,166.955,0,0,1,955.95,838.1" transform="translate(-910.101 -440.309)" fill="none" stroke="#fff" stroke-linecap="round" stroke-width="4"/>
      <path id="パス_29" data-name="パス 29" d="M915.153,844.014s-16.82.708-27.611-.355" transform="translate(-887.541 -444.245)" fill="none" stroke="#fff" stroke-linecap="round" stroke-width="4"/>
    </g>
    <g id="group-5" data-name="group" transform="translate(612.591 332.547)">
      <path id="パス_30" data-name="パス 30" d="M667.629,717.78S658.006,705.755,652.7,695.6" transform="translate(-625.819 -479.927)" fill="none" stroke="#fff" stroke-linecap="round" stroke-width="4"/>
      <path id="パス_31" data-name="パス 31" d="M634.921,657.7s-6.911-15.411-9.26-24.533" transform="translate(-616.901 -459.338)" fill="none" stroke="#fff" stroke-linecap="round" stroke-width="4"/>
      <path id="パス_32" data-name="パス 32" d="M616.76,592.518s-3.386-16.724-3.525-25.916" transform="translate(-612.804 -437.388)" fill="none" stroke="#fff" stroke-linecap="round" stroke-width="4"/>
      <path id="パス_33" data-name="パス 33" d="M614.872,498.7s-2.142,16.862-2.281,26.607" transform="translate(-612.591 -414.996)" fill="none" stroke="#fff" stroke-linecap="round" stroke-width="4"/>
      <path id="パス_34" data-name="パス 34" d="M622.026,458s4.285-14.858,8.569-25.155" transform="translate(-615.702 -393.276)" fill="none" stroke="#fff" stroke-linecap="round" stroke-width="4"/>
      <path id="パス_35" data-name="パス 35" d="M646.747,396.338s7.118-13.545,13.891-22.529" transform="translate(-623.855 -373.808)" fill="none" stroke="#fff" stroke-linecap="round" stroke-width="4"/>
    </g>
    <g id="group-6" data-name="group" transform="translate(753.62 249.401)">
      <path id="パス_3" data-name="パス 3" d="M834.984,319.565H823.071V298.659h11.913l3.5-8.876-8.409-8.993,15.65-13.548,8.526,7.358,8.292-3.5V258.95h20.088V271.1l8.993,4.088,9.343-7.942,13.9,14.365-7.591,7.358,3.27,9.694h11.446v20.906H910.548l-3.854,8.409,8.175,8.643-13.9,14.716-7.942-7.358-8.876,3.037v11.446H862.547V347.011l-9.343-4.2-8.292,8.526-14.249-14.716,7.825-8.059-3.5-8.993" transform="translate(-823.071 -258.95)" fill="#fff" stroke="#010f27" stroke-linecap="round" stroke-linejoin="round" stroke-width="4"/>
      <g id="パス_38" data-name="パス 38" transform="translate(21.88 28.801)" fill="#2cdcbf" stroke-linecap="round" stroke-linejoin="round">
        <path d="M28.338,9.579a16.128,16.128,0,0,1,1.454-2A17.475,17.475,0,0,1,33.957,3.9a11.65,11.65,0,0,1,6.582-1.822,15.184,15.184,0,0,1,8.688,3.55,12.42,12.42,0,0,1,5.127,8.237,16.792,16.792,0,0,1-1.4,8.674,35.839,35.839,0,0,1-4.2,7.281c-1.455,1.992-2.762,3.45-3.3,4.071a39.518,39.518,0,0,1-3.582,3.2c-1.7,1.407-3.766,3.05-5.762,4.615s-3.922,3.051-5.35,4.146-2.356,1.8-2.356,1.8-.5-.313-1.41-.92-2.213-1.506-3.818-2.679-3.51-2.619-5.61-4.319-4.4-3.655-6.785-5.843a27.741,27.741,0,0,1-5.694-7.3,24.934,24.934,0,0,1-2.716-7.96,17.9,17.9,0,0,1,.307-7.4,11.237,11.237,0,0,1,3.376-5.6,14.2,14.2,0,0,1,5.527-2.985A14.454,14.454,0,0,1,17.725,2.3,14.745,14.745,0,0,1,23.606,4.6a15.918,15.918,0,0,1,4.732,4.974" stroke="none"/>
        <path d="M 28.40506362915039 49.63703536987305 C 28.31339263916016 49.63703536987305 28.22165679931641 49.63079071044922 28.13053321838379 49.61825561523438 C 28.03940963745117 49.6057243347168 27.94889450073242 49.5869026184082 27.85966300964355 49.561767578125 C 27.77043342590332 49.53663635253906 27.68249130249023 49.50518798828125 27.59650802612305 49.46739196777344 C 27.51052093505859 49.42958831787109 27.4264965057373 49.38544464111328 27.34510612487793 49.33491897583008 C 27.26110458374023 49.28277206420898 26.69790267944336 48.93111419677734 25.75104713439941 48.29623413085938 C 24.80403518676758 47.66125106811523 23.47310256958008 46.74286270141602 21.85368919372559 45.5572509765625 C 20.23376846313477 44.37126922607422 18.3249568939209 42.9177360534668 16.22268295288086 41.2127571105957 C 14.11946773529053 39.50701522827148 11.82233238220215 37.54936599731445 9.426788330078125 35.35587310791016 C 8.687617301940918 34.67904281616211 7.982097148895264 33.96345520019531 7.31431245803833 33.21471786499023 C 6.646396636962891 32.46582794189453 6.016219615936279 31.68375587463379 5.427870273590088 30.87410736083984 C 4.839395523071289 30.06428337097168 4.292758464813232 29.22685623168945 3.792056083679199 28.36743927001953 C 3.291239738464355 27.5078239440918 2.836373329162598 26.62619781494141 2.431559562683105 25.72817230224609 C 2.045813798904419 24.87245559692383 1.706561207771301 24.00590705871582 1.415164947509766 23.13459205627441 C 1.123702168464661 22.26308059692383 0.8801169395446777 21.38679504394531 0.6857749819755554 20.51181411743164 C 0.4913885891437531 19.63663291931152 0.3462680876255035 18.76275825500488 0.2517810463905334 17.89626693725586 C 0.1572724878787994 17.02958297729492 0.1134209483861923 16.1702880859375 0.1215944364666939 15.32448291778564 C 0.132879301905632 14.15670776367188 0.2434353083372116 13.03213691711426 0.4486017227172852 11.96225833892822 C 0.6538256406784058 10.8920783996582 0.9537071585655212 9.876651763916016 1.343571662902832 8.927475929260254 C 1.733533263206482 7.978065490722656 2.213509082794189 7.094974040985107 2.778807878494263 6.289710998535156 C 3.344226121902466 5.484279632568359 3.994980096817017 4.756742477416992 4.726361274719238 4.118618011474609 C 5.466500759124756 3.472849369049072 6.259444236755371 2.899521350860596 7.094231605529785 2.402763605117798 C 7.92912769317627 1.905940771102905 8.805843353271484 1.485727429389954 9.713407516479492 1.146245718002319 C 10.62105178833008 0.8067341446876526 11.55951118469238 0.5479826331138611 12.51780128479004 0.3741059899330139 C 13.47613620758057 0.2002215087413788 14.45426177978516 0.1112272888422012 15.44118881225586 0.1112272888422012 C 16.14767074584961 0.1112272888422012 16.85302734375 0.1569939255714417 17.55250358581543 0.2472884058952332 C 18.2519645690918 0.3375805616378784 18.94552993774414 0.4723965525627136 19.62844848632812 0.6504949927330017 C 20.31133079528809 0.8285850882530212 20.98355293273926 1.049949645996094 21.64035606384277 1.313344240188599 C 22.2971134185791 1.576720476150513 22.93844795227051 1.882115840911865 23.55960273742676 2.228283166885376 C 24.00789642333984 2.478114366531372 24.44538688659668 2.749346494674683 24.87084197998047 3.040778398513794 C 25.29626274108887 3.332188129425049 25.70964241027832 3.643791437149048 26.1097526550293 3.974387168884277 C 26.50982093811035 4.304954051971436 26.8966236114502 4.654506683349609 27.26891899108887 5.021843910217285 C 27.64117622375488 5.389145851135254 27.99892997741699 5.774225234985352 28.3409481048584 6.175880908966064 C 28.87316131591797 5.546572685241699 29.52383804321289 4.850277900695801 30.28862953186035 4.159758567810059 C 31.05356407165527 3.469114780426025 31.93264961242676 2.784249305725098 32.92148590087891 2.178001403808594 C 33.91048049926758 1.571657419204712 35.00923156738281 1.043981075286865 36.21326446533203 0.6678685545921326 C 37.41740417480469 0.2917189002037048 38.72675704956055 0.0671931579709053 40.13674545288086 0.0671931579709053 C 40.99059677124023 0.0671931579709053 41.84800338745117 0.1508186757564545 42.70743942260742 0.3174830973148346 C 43.56684112548828 0.4841403663158417 44.42823028564453 0.7338221669197083 45.29007720947266 1.06593132019043 C 46.15185165405273 1.398011565208435 47.01403045654297 1.812490463256836 47.87510681152344 2.308761119842529 C 48.73606491088867 2.804966926574707 49.59586715698242 3.382921457290649 50.45298004150391 4.042007446289062 C 51.34476852416992 4.727756500244141 52.13894271850586 5.455782890319824 52.83465194702148 6.224576473236084 C 53.53022003173828 6.993216037750244 54.12733840942383 7.802589893341064 54.62517547607422 8.651190757751465 C 55.12289428710938 9.499603271484375 55.52135467529297 10.38720607757568 55.81972122192383 11.31249046325684 C 56.11801910400391 12.23755264282227 56.31625366210938 13.20025730133057 56.41360092163086 14.19909954071045 C 56.51039505004883 15.19221210479736 56.50595092773438 16.21456146240234 56.40084075927734 17.26419830322266 C 56.29576110839844 18.31354713439941 56.09007263183594 19.39015007019043 55.78436279296875 20.4920597076416 C 55.4787483215332 21.59365272521973 55.07316207885742 22.72052001953125 54.56820678710938 23.8707218170166 C 54.06339263916016 25.02057456970215 53.45927047729492 26.19372940063477 52.75641250610352 27.38824081420898 C 52.21571350097656 28.30716705322266 51.65205383300781 29.17646980285645 51.09586334228516 29.98044204711914 C 50.5397834777832 30.78423881530762 49.99115753173828 31.52275848388672 49.48037719726562 32.18030548095703 C 48.96968841552734 32.83773422241211 48.49680328369141 33.41424179077148 48.09212875366211 33.89413452148438 C 47.68750762939453 34.37397384643555 47.35105514526367 34.75724792480469 47.11314010620117 35.02826690673828 C 47.09938049316406 35.04394149780273 47.08593368530273 35.05925750732422 47.07280349731445 35.07422256469727 C 47.05966949462891 35.08918380737305 47.04685592651367 35.10379028320312 47.03435897827148 35.11803817749023 C 47.0218620300293 35.13228988647461 47.00968551635742 35.14617919921875 46.99783706665039 35.15970611572266 C 46.98598098754883 35.17323303222656 46.97446441650391 35.18640518188477 46.96327209472656 35.19921493530273 C 46.40363693237305 35.83964538574219 45.13435363769531 36.965087890625 43.52155685424805 38.31091690063477 C 41.90933227539062 39.65627288818359 39.95402526855469 41.22169876098633 38.02118682861328 42.74304962158203 C 36.08911895751953 44.26379013061523 34.17945861816406 45.74051284790039 32.65694046020508 46.9096794128418 C 31.1348876953125 48.07848358154297 29.99949836730957 48.94010543823242 29.61505889892578 49.23131942749023 C 29.52614212036133 49.29867172241211 29.43280220031738 49.35770416259766 29.33611869812012 49.40836715698242 C 29.23944091796875 49.45903778076172 29.13941955566406 49.5013313293457 29.03714179992676 49.53520584106445 C 28.93486404418945 49.5690803527832 28.83033180236816 49.59454345703125 28.72462272644043 49.61153030395508 C 28.61891937255859 49.62852096557617 28.51203727722168 49.63703536987305 28.40506362915039 49.63703536987305 Z M 15.45470237731934 4.125891208648682 C 14.71061992645264 4.125891208648682 13.97320365905762 4.192922115325928 13.25072956085205 4.323893547058105 C 12.52828311920166 4.454860687255859 11.82080078125 4.649760246276855 11.13656234741211 4.905495643615723 C 10.45236873626709 5.161214351654053 9.791435241699219 5.477752685546875 9.162032127380371 5.852009773254395 C 8.532690048217773 6.226230621337891 7.93488883972168 6.658148288726807 7.376892566680908 7.144658088684082 C 6.862789154052734 7.592895984649658 6.405208587646484 8.112088203430176 6.007470607757568 8.693778991699219 C 5.609792709350586 9.27538013458252 5.271950721740723 9.919441223144531 4.997252464294434 10.617506980896 C 4.722604751586914 11.31544208526611 4.511085510253906 12.06734371185303 4.365993499755859 12.8647575378418 C 4.220932483673096 13.66200542449951 4.142274856567383 14.50472927093506 4.133312225341797 15.38448333740234 C 4.118168830871582 16.87089347839355 4.298710823059082 18.39419364929199 4.656104564666748 19.91446876525879 C 5.013354778289795 21.43414115905762 5.547317028045654 22.95079231262207 6.239189147949219 24.42460441589355 C 6.930794715881348 25.89784622192383 7.780203819274902 27.32831573486328 8.768671035766602 28.67627716064453 C 9.75678825378418 30.02376174926758 10.88390636444092 31.28885459899902 12.13134956359863 32.4318962097168 C 13.94072723388672 34.08984756469727 15.69860458374023 35.61308670043945 17.35711479187012 36.99166107177734 C 19.01502227783203 38.36972808837891 20.57375717163086 39.60332870483398 21.98549270629883 40.68246841430664 C 23.39682769775391 41.76130294799805 24.6613597869873 42.68585205078125 25.73127746582031 43.44609832763672 C 26.80097961425781 44.20619964599609 27.67624092102051 44.80213928222656 28.30922698974609 45.2238655090332 C 29.74459457397461 44.12939453125 31.35200500488281 42.89229965209961 32.97762298583984 41.6273078918457 C 34.60378265380859 40.36188888549805 36.24818420410156 39.06853485107422 37.75670623779297 37.86220169067383 C 39.26570129394531 36.65548706054688 40.63865661621094 35.5359001159668 41.72118759155273 34.61859130859375 C 42.80398178100586 33.70106506347656 43.59608840942383 32.98601531982422 43.94300842285156 32.58868789672852 C 43.95464324951172 32.57536315917969 43.96661758422852 32.5616569519043 43.97893905639648 32.54758453369141 C 43.99126052856445 32.53350448608398 44.00391387939453 32.51905059814453 44.01690292358398 32.50422286987305 C 44.0298957824707 32.48939514160156 44.04322052001953 32.47420120239258 44.05686950683594 32.45863723754883 C 44.07051849365234 32.44306564331055 44.08449935913086 32.42712783813477 44.09880447387695 32.41083145141602 C 45.96791839599609 30.27994918823242 47.44350051879883 28.31510925292969 48.60027694702148 26.51296806335449 C 49.75760269165039 24.70997428894043 50.5957145690918 23.06998252868652 51.18954467773438 21.5896053314209 C 51.78361129760742 20.10865020751953 52.13315200805664 18.78755569458008 52.31323623657227 17.62287902832031 C 52.49338531494141 16.45784950256348 52.50395965576172 15.44942188262939 52.42015075683594 14.5941162109375 C 52.34929275512695 13.87102317810059 52.20585632324219 13.17797470092773 51.98852920532227 12.51283550262451 C 51.77116775512695 11.84757995605469 51.47987747192383 11.2102518081665 51.11337280273438 10.59871196746826 C 50.74681854248047 9.987075805664062 50.30501556396484 9.401244163513184 49.78667449951172 8.839075088500977 C 49.26826095581055 8.276823997497559 48.67328262329102 7.738248348236084 48.00044250488281 7.221205711364746 C 47.32298278808594 6.70061206817627 46.64951324462891 6.244117736816406 45.98120880126953 5.852203845977783 C 45.31283950805664 5.460250377655029 44.64965057373047 5.132903575897217 43.9928092956543 4.870639801025391 C 43.33592224121094 4.608356952667236 42.68540573120117 4.411174297332764 42.04243087768555 4.279560565948486 C 41.39943695068359 4.147942543029785 40.76399993896484 4.081902980804443 40.13729095458984 4.081902980804443 C 39.50457763671875 4.081902980804443 38.87766647338867 4.147995948791504 38.25763702392578 4.279720306396484 C 37.63763427734375 4.411439895629883 37.02452850341797 4.608781337738037 36.41939544677734 4.871275901794434 C 35.81430816650391 5.133752346038818 35.21720886230469 5.461362838745117 34.62918472290039 5.853634357452393 C 34.04121398925781 6.245864868164062 33.46233749389648 6.702727794647217 32.89360046386719 7.22374153137207 C 32.44976043701172 7.630352020263672 32.05409622192383 8.039707183837891 31.70963478088379 8.426067352294922 C 31.36520767211914 8.812390327453613 31.07197570800781 9.175726890563965 30.83295822143555 9.490354537963867 C 30.59395980834961 9.804956436157227 30.40916442871094 10.07086658477783 30.28158760070801 10.26236629486084 C 30.15402030944824 10.45385646820068 30.08366775512695 10.57095336914062 30.07355117797852 10.58793830871582 C 29.98540878295898 10.74108028411865 29.87882995605469 10.87947273254395 29.75746726989746 11.00106334686279 C 29.63610649108887 11.12264919281006 29.49996948242188 11.22743511199951 29.35271072387695 11.31337070465088 C 29.20545959472656 11.39930534362793 29.04708671569824 11.46639060974121 28.88125228881836 11.51257514953613 C 28.71542167663574 11.55875873565674 28.54212760925293 11.58404445648193 28.36503410339355 11.58638095855713 C 28.36284637451172 11.58640956878662 28.36065292358398 11.58643341064453 28.35846138000488 11.58645439147949 C 28.35626983642578 11.58647632598877 28.35407638549805 11.58649444580078 28.35188293457031 11.58650875091553 C 28.34968948364258 11.58652305603027 28.34749603271484 11.58653354644775 28.34530830383301 11.58654117584229 C 28.34311866760254 11.58654880523682 28.34093475341797 11.58655166625977 28.3387508392334 11.58655166625977 C 28.16389274597168 11.58655738830566 27.99226379394531 11.56355476379395 27.82745742797852 11.51971626281738 C 27.66265106201172 11.47587871551514 27.50466537475586 11.41120433807373 27.35711097717285 11.32787322998047 C 27.20954513549805 11.24453639984131 27.07241058349609 11.14253807067871 26.94929695129395 11.02405166625977 C 26.82618522644043 10.90556335449219 26.71710014343262 10.77058410644531 26.62563896179199 10.62128829956055 C 26.00319862365723 9.605212211608887 25.275390625 8.691272735595703 24.46340942382812 7.891870498657227 C 23.6512565612793 7.092301845550537 22.75494003295898 6.407365322113037 21.79568481445312 5.849459171295166 C 20.8362922668457 5.291472434997559 19.81400871276855 4.86059045791626 18.75009346008301 4.569195747375488 C 17.68609428405762 4.277778148651123 16.58053779602051 4.125891208648682 15.45470237731934 4.125891208648682 Z" stroke="none" fill="#010f27"/>
      </g>
    </g>
    <g id="group-7" data-name="group" transform="translate(677.547 457.364)">
      <g id="パス_15" data-name="パス 15" transform="translate(7.008 90.446)" fill="#fff" stroke-linecap="round">
        <path d="M 150.8103485107422 63.68163299560547 L 136.8500366210938 63.68163299560547 C 136.5767211914062 61.05866241455078 135.6044616699219 56.38928985595703 132.2203674316406 52.22554779052734 C 129.6019287109375 49.00388336181641 123.6515884399414 46.57442474365234 118.3793640136719 46.57442474365234 C 118.2185516357422 46.57442474365234 118.0563812255859 46.57663345336914 117.8973617553711 46.58100891113281 C 112.3975143432617 46.73104476928711 107.4904098510742 48.64137649536133 104.7522277832031 51.69530868530273 C 100.8819427490234 55.54788970947266 100.0498580932617 60.77109909057617 99.91021728515625 63.68163299560547 L 52.77032852172852 63.68163299560547 C 52.21645355224609 60.46183013916016 50.64196395874023 53.69474411010742 46.77167510986328 49.73917388916016 C 43.89583969116211 46.79994583129883 38.76436233520508 44.97407150268555 33.37977981567383 44.97407150268555 C 28.71115303039551 44.97407150268555 24.53694534301758 46.33050918579102 21.62609100341797 48.79354858398438 C 16.57758712768555 53.06532669067383 15.14988136291504 60.23561477661133 14.74874591827393 63.68163299560547 L 2.000007629394531 63.68163299560547 L 2.000007629394531 2.00000786781311 L 150.8103485107422 2.00000786781311 L 150.8103485107422 63.68163299560547 Z" stroke="none"/>
        <path d="M 4 4.000003814697266 L 4 61.681640625 L 13.01821899414062 61.681640625 C 13.16061401367188 60.84757995605469 13.35064697265625 59.91830825805664 13.60411071777344 58.9322509765625 C 14.90553283691406 53.86909484863281 17.16987609863281 49.94427490234375 20.33419799804688 47.26677703857422 C 23.605712890625 44.49856948852539 28.23871612548828 42.97406768798828 33.37979125976562 42.97406768798828 C 39.37271881103516 42.97406768798828 44.91344451904297 44.98020935058594 48.20121765136719 48.3404541015625 C 50.61719512939453 50.80966186523438 52.50045013427734 54.44104766845703 53.79867553710938 59.13372802734375 C 54.05032348632812 60.04335403442383 54.25475311279297 60.90592956542969 54.41925811767578 61.681640625 L 98.0806884765625 61.681640625 C 98.12800598144531 61.30913543701172 98.18605804443359 60.92079162597656 98.25694274902344 60.52011489868164 C 98.98122406005859 56.42634582519531 100.7242050170898 52.90202713012695 103.3008804321289 50.31819915771484 C 106.4480895996094 46.83720779418945 111.7383499145508 44.748291015625 117.8425598144531 44.58175277709961 C 118.0200805664062 44.57688903808594 118.2006759643555 44.57440948486328 118.3793563842773 44.57440948486328 C 124.2894897460938 44.57440948486328 130.7631988525391 47.26168441772461 133.7723846435547 50.96413803100586 C 136.0167388916016 53.72554779052734 137.6224670410156 57.13706970214844 138.4159698486328 60.82986450195312 C 138.4788818359375 61.12265396118164 138.5345153808594 61.40688323974609 138.5837249755859 61.681640625 L 148.8103637695312 61.681640625 L 148.8103637695312 4.000003814697266 L 4 4.000003814697266 M 0 0 L 152.8103485107422 0 L 152.8103485107422 65.681640625 L 134.9515075683594 65.681640625 C 134.9515075683594 65.681640625 135.1891937255859 59.04938888549805 130.6683044433594 53.48698043823242 C 128.4937591552734 50.81145858764648 123.0096435546875 48.4410400390625 117.9524002075195 48.58025360107422 C 112.9106750488281 48.71779632568359 108.5371551513672 50.43589019775391 106.2040100097656 53.07229614257812 C 101.2282638549805 57.97900390625 101.9193344116211 65.681640625 101.9193344116211 65.681640625 L 51.04106140136719 65.681640625 C 51.04106140136719 65.681640625 50.01383209228516 55.91254806518555 45.34213256835938 51.13788986206055 C 40.67043304443359 46.36320877075195 28.99115753173828 45.18145370483398 22.91795349121094 50.32032012939453 C 16.84474182128906 55.45918273925781 16.59330749511719 65.681640625 16.59330749511719 65.681640625 L 0 65.681640625 L 0 0 Z" stroke="none" fill="#010f27"/>
      </g>
      <path id="パス_10" data-name="パス 10" d="M785.318,608.83V582.4s1.026-8.981,9.237-9.237,48.5,0,48.5,0,9.75,1.283,10.007,9.237,0,26.429,0,26.429H785.318" transform="translate(-733.862 -573.05)" fill="#fff" stroke="#010f27" stroke-linecap="round" stroke-linejoin="round" stroke-width="4"/>
      <g id="長方形_5" data-name="長方形 5" transform="translate(0 28.826)" fill="#010f27" stroke="#010f27" stroke-linecap="round" stroke-linejoin="round" stroke-width="4">
        <rect width="168" height="67" stroke="none"/>
        <rect x="2" y="2" width="164" height="63" fill="none"/>
      </g>
      <g id="group-8" data-name="group" transform="translate(27 49.826)">
        <path id="パス_13" data-name="パス 13" d="M831.9,745.932l.759,53.292" transform="translate(-776.225 -679.889)" fill="none" stroke="#010f27" stroke-width="4"/>
        <path id="パス_14" data-name="パス 14" d="M859.541,743.893v13.361l19.586,21.864" transform="translate(-785.339 -679.216)" fill="none" stroke="#010f27" stroke-linecap="round" stroke-linejoin="round" stroke-width="4"/>
        <g id="楕円形_5" data-name="楕円形 5" transform="translate(22)" fill="#fff" stroke="#010f27" stroke-width="4">
          <circle cx="35.5" cy="35.5" r="35.5" stroke="none"/>
          <circle cx="35.5" cy="35.5" r="33.5" fill="none"/>
        </g>
        <path id="パス_12" data-name="パス 12" d="M797.564,743.893v12.754L779.8,777.6" transform="translate(-759.042 -679.216)" fill="none" stroke="#010f27" stroke-linecap="round" stroke-linejoin="round" stroke-width="4"/>
        <g id="楕円形_6" data-name="楕円形 6" transform="translate(0 91)" fill="#2cdcbf" stroke="#010f27" stroke-width="4">
          <circle cx="13.5" cy="13.5" r="13.5" stroke="none"/>
          <circle cx="13.5" cy="13.5" r="11.5" fill="none"/>
        </g>
        <g id="楕円形_7" data-name="楕円形 7" transform="translate(44 114)" fill="#2cdcbf" stroke="#010f27" stroke-width="4">
          <ellipse cx="13" cy="13.5" rx="13" ry="13.5" stroke="none"/>
          <ellipse cx="13" cy="13.5" rx="11" ry="11.5" fill="none"/>
        </g>
        <g id="楕円形_8" data-name="楕円形 8" transform="translate(85 92)" fill="#2cdcbf" stroke="#010f27" stroke-width="4">
          <circle cx="13.5" cy="13.5" r="13.5" stroke="none"/>
          <circle cx="13.5" cy="13.5" r="11.5" fill="none"/>
        </g>
        <path id="パス_37" data-name="パス 37" d="M19.281,5.5a11.832,11.832,0,0,1,1.067-1.469A12.826,12.826,0,0,1,23.406,1.34,8.557,8.557,0,0,1,28.236.005a11.151,11.151,0,0,1,6.375,2.6,9.111,9.111,0,0,1,3.765,6.04,12.311,12.311,0,0,1-1.022,6.364,26.3,26.3,0,0,1-3.083,5.345c-1.069,1.463-2.028,2.534-2.426,2.99A29.027,29.027,0,0,1,29.214,25.7c-1.25,1.034-2.767,2.241-4.234,3.391S22.1,31.33,21.048,32.135s-1.732,1.322-1.732,1.322-.371-.23-1.036-.676-1.626-1.107-2.8-1.969-2.578-1.925-4.119-3.174-3.228-2.685-4.981-4.292A20.337,20.337,0,0,1,2.2,17.985,18.272,18.272,0,0,1,.212,12.142,13.121,13.121,0,0,1,.445,6.716,8.252,8.252,0,0,1,2.928,2.607,10.44,10.44,0,0,1,6.986.419,10.62,10.62,0,0,1,11.5.164a10.819,10.819,0,0,1,4.314,1.69A11.666,11.666,0,0,1,19.281,5.5" transform="translate(37.799 19.198)" fill="#010f27"/>
      </g>
    </g>
  </g>
</svg>
