<svg xmlns="http://www.w3.org/2000/svg" xmlns:xlink="http://www.w3.org/1999/xlink" width="400" height="400" viewBox="0 0 400 400">
  <defs>
    <clipPath id="clip-path">
      <rect id="square" width="400" height="400" transform="translate(769 266)" fill="none"/>
    </clipPath>
    <clipPath id="clip-path-2">
      <path id="パス_78" data-name="パス 78" d="M30.5,96.955a11.26,11.26,0,0,1-.016,2.027,12.6,12.6,0,0,1-1.2,4.434,10.078,10.078,0,0,1-4.124,4.368,16.7,16.7,0,0,1-8.777,1.83,18.123,18.123,0,0,1-8.809-2.126,10.7,10.7,0,0,1-4.2-4.335A12.078,12.078,0,0,1,2.1,98.884a10.18,10.18,0,0,1-.049-1.929V12.031a10.987,10.987,0,0,1,.574-1.615A14.875,14.875,0,0,1,4.776,6.888a13.033,13.033,0,0,1,4.37-3.461,15.251,15.251,0,0,1,7.232-1.418,12.636,12.636,0,0,1,6.973,2.126,12.3,12.3,0,0,1,3.8,4.335,16.96,16.96,0,0,1,1.58,4.269,13.906,13.906,0,0,1,.315,1.929,29.449,29.449,0,0,1,3.829.6,29.5,29.5,0,0,1,7.956,2.912,15.726,15.726,0,0,1,6.788,6.868c1.48,3.132,1.882,7.2.324,12.473A32.443,32.443,0,0,1,56.665,48.95a18.126,18.126,0,0,1,1.09,11.714c-1.09,4.286-4,8.857-9.812,13.429a12.131,12.131,0,0,1,1.042,2.582,12.952,12.952,0,0,1,.282,6.209,13.482,13.482,0,0,1-4.74,7.528C41.635,92.889,37.2,95.2,30.5,96.955" transform="translate(-2.027 -2.001)" fill="#fff" stroke="#010f27" stroke-linecap="round" stroke-linejoin="round" stroke-width="4"/>
    </clipPath>
  </defs>
  <g id="icon-05" transform="translate(-769 -266)" clip-path="url(#clip-path)">
    <g id="icon-05-2" data-name="icon-05" transform="translate(-38.629 20.646)">
      <g id="group" transform="translate(637 -154)">
        <ellipse id="back" cx="144.959" cy="145.659" rx="144.959" ry="145.659" transform="translate(222.938 455.69)" fill="#2cdcbf"/>
        <g id="group-2" data-name="group" transform="translate(352.153 401.21)">
          <path id="パス_19" data-name="パス 19" d="M1117.09,330.112s10.918,10.918,17.829,19.465" transform="translate(-963.242 -275.206)" fill="none" stroke="#fff" stroke-linecap="round" stroke-width="4"/>
          <path id="パス_20" data-name="パス 20" d="M1160.72,382.37s9.16,14.323,13.576,24.413" transform="translate(-977.629 -292.363)" fill="none" stroke="#fff" stroke-linecap="round" stroke-width="4"/>
          <path id="パス_21" data-name="パス 21" d="M1191.37,444.162s3.953,8.535,7.547,26.323" transform="translate(-987.737 -312.705)" fill="none" stroke="#fff" stroke-linecap="round" stroke-width="4"/>
          <path id="パス_22" data-name="パス 22" d="M1207.19,511.185s1.887,4.514,1.527,26.862" transform="translate(-992.953 -334.77)" fill="none" stroke="#fff" stroke-linecap="round" stroke-width="4"/>
        </g>
        <g id="group-3" data-name="group" transform="matrix(0.682, 0.731, -0.731, 0.682, 319.584, 381.098)">
          <path id="パス_30" data-name="パス 30" d="M667.629,717.78s-9.623-12.025-14.929-22.18" transform="translate(-625.819 -479.927)" fill="none" stroke="#fff" stroke-linecap="round" stroke-width="4"/>
          <path id="パス_31" data-name="パス 31" d="M634.921,657.7s-6.911-15.411-9.26-24.533" transform="translate(-616.901 -459.338)" fill="none" stroke="#fff" stroke-linecap="round" stroke-width="4"/>
          <path id="パス_32" data-name="パス 32" d="M616.76,592.518s-3.386-16.724-3.525-25.916" transform="translate(-612.804 -437.388)" fill="none" stroke="#fff" stroke-linecap="round" stroke-width="4"/>
          <path id="パス_33" data-name="パス 33" d="M614.872,498.7s-2.142,16.862-2.281,26.607" transform="translate(-612.591 -414.996)" fill="none" stroke="#fff" stroke-linecap="round" stroke-width="4"/>
          <path id="パス_34" data-name="パス 34" d="M622.026,458s4.285-14.858,8.569-25.155" transform="translate(-615.702 -393.276)" fill="none" stroke="#fff" stroke-linecap="round" stroke-width="4"/>
          <path id="パス_35" data-name="パス 35" d="M646.747,396.338s7.118-13.545,13.891-22.529" transform="translate(-623.855 -373.808)" fill="none" stroke="#fff" stroke-linecap="round" stroke-width="4"/>
        </g>
        <g id="group-4" data-name="group" transform="matrix(0.829, -0.559, 0.559, 0.829, 136.648, 610.662)">
          <path id="パス_30-2" data-name="パス 30" d="M667.629,717.78s-9.623-12.025-14.929-22.18" transform="translate(-625.819 -479.927)" fill="none" stroke="#fff" stroke-linecap="round" stroke-width="4"/>
          <path id="パス_31-2" data-name="パス 31" d="M634.921,657.7s-6.911-15.411-9.26-24.533" transform="translate(-616.901 -459.338)" fill="none" stroke="#fff" stroke-linecap="round" stroke-width="4"/>
          <path id="パス_32-2" data-name="パス 32" d="M616.76,592.518s-3.386-16.724-3.525-25.916" transform="translate(-612.804 -437.388)" fill="none" stroke="#fff" stroke-linecap="round" stroke-width="4"/>
        </g>
      </g>
      <g id="group-5" data-name="group" transform="translate(848.444 340.346) rotate(-14)">
        <path id="パス_39" data-name="パス 39" d="M878.077,354.673l18.977-6.1s-12.538-25.754,12.877-31.176l-2.372,11.183,39.987-13.216L918.4,284.188l-2.711,11.183s-25.416-.678-37.615,22.027,0,37.276,0,37.276" transform="translate(-872.655 -284.188)" fill="#fff" stroke="#005465" stroke-linecap="round" stroke-linejoin="round" stroke-width="4"/>
      </g>
      <g id="group-6" data-name="group" transform="translate(821.826 424.119)">
        <g id="group-7" data-name="group" transform="translate(0 1.527)">
          <path id="パス_40" data-name="パス 40" d="M841.337,475.942s-1.412,12.642,13.72,12.3,13.922-12.3,13.922-12.3V393.428a13.42,13.42,0,0,0-13.922-9.738c-11.5.342-12.307,12.3-12.307,12.3S818.337,397.7,824.39,418.2c0,0-22.6,17.767,0,35.534,0,0-9.079,15.375,16.948,22.209" transform="translate(-814.345 -383.682)" fill="#fff" stroke="#010f27" stroke-linecap="round" stroke-linejoin="round" stroke-width="4"/>
          <path id="パス_41" data-name="パス 41" d="M876.169,413.806s-4.191,10.323-17.507,10.664" transform="translate(-821.722 -392.055)" fill="none" stroke="#010f27" stroke-linecap="round" stroke-width="4"/>
          <path id="パス_42" data-name="パス 42" d="M841.264,420.947s8.4-.72,13.927,5.461a17.763,17.763,0,0,1,4.03,9.914" transform="translate(-819.161 -394.032)" fill="none" stroke="#010f27" stroke-linecap="round" stroke-width="4"/>
          <path id="パス_43" data-name="パス 43" d="M835.31,442.251s-3.632,12.984,17.957,14.009" transform="translate(-818.25 -399.96)" fill="none" stroke="#010f27" stroke-linecap="round" stroke-width="4"/>
          <path id="パス_44" data-name="パス 44" d="M857.693,481.657s13.213,2.981,18.459-12.053" transform="translate(-821.579 -407.563)" fill="none" stroke="#010f27" stroke-linecap="round" stroke-width="4"/>
          <path id="パス_45" data-name="パス 45" d="M841.264,481.938s17.554-2.733,18.966,14.692" transform="translate(-819.161 -410.948)" fill="none" stroke="#010f27" stroke-linecap="round" stroke-width="4"/>
        </g>
        <g id="group-8" data-name="group" transform="translate(65.084)">
          <path id="パス_40-2" data-name="パス 40" d="M28.473,94.954a11.26,11.26,0,0,1-.016,2.027,12.6,12.6,0,0,1-1.2,4.434,10.078,10.078,0,0,1-4.124,4.368,16.7,16.7,0,0,1-8.777,1.83,18.123,18.123,0,0,1-8.809-2.126,10.7,10.7,0,0,1-4.2-4.335A12.078,12.078,0,0,1,.072,96.883a10.18,10.18,0,0,1-.049-1.929V10.031A10.987,10.987,0,0,1,.6,8.415,14.875,14.875,0,0,1,2.749,4.888,13.033,13.033,0,0,1,7.12,1.426,15.251,15.251,0,0,1,14.352.009a12.636,12.636,0,0,1,6.973,2.126,12.3,12.3,0,0,1,3.8,4.335A16.96,16.96,0,0,1,26.7,10.74a13.906,13.906,0,0,1,.315,1.929,29.45,29.45,0,0,1,3.829.6A29.5,29.5,0,0,1,38.8,16.185a15.726,15.726,0,0,1,6.788,6.868c1.48,3.132,1.882,7.2.324,12.473a30.061,30.061,0,0,1,3.271,3.143,30.153,30.153,0,0,1,5.451,8.286,18.126,18.126,0,0,1,1.09,11.714c-1.09,4.286-4,8.857-9.812,13.429a12.131,12.131,0,0,1,1.042,2.582,12.952,12.952,0,0,1,.282,6.209,13.482,13.482,0,0,1-4.74,7.528c-2.891,2.473-7.33,4.78-14.027,6.538" fill="#010f27"/>
          <g id="group-9" data-name="group" clip-path="url(#clip-path-2)">
            <g id="パス_41-2" data-name="パス 41" transform="translate(-8.989 14.788)">
              <path id="パス_39-2" data-name="パス 39" d="M2.608,2.608h0c0,.005.686.984,1.924,2.454a52.89,52.89,0,0,0,5.252,5.4A38.278,38.278,0,0,0,17.6,15.934a22.421,22.421,0,0,0,9.621,2.64" fill="none"/>
              <path id="パス_40-3" data-name="パス 40" d="M27.224,20.574a2,2,0,0,0,.05-4,17.988,17.988,0,0,1-4.664-.767,24.213,24.213,0,0,1-4.31-1.775,32.587,32.587,0,0,1-3.816-2.363c-1.174-.839-2.243-1.706-3.182-2.532C10.262,8.226,9.316,7.31,8.479,6.446S6.911,4.767,6.305,4.058,5.217,2.745,4.873,2.3s-.549-.73-.6-.8A1.993,1.993,0,0,0,3.547.842,2.005,2.005,0,0,0,2.608.608q-.095,0-.19.009t-.19.028q-.095.019-.189.047T1.851.757A2,2,0,0,0,.757,3.366c.021.051.039.095.064.145a1.842,1.842,0,0,0,.107.182c.049.076.116.172.211.3s.216.292.376.5c.078.1.168.219.269.35s.216.276.34.432.261.326.408.5.3.369.471.567c.293.348.631.74,1.011,1.165s.8.885,1.261,1.367.957.987,1.488,1.5,1.1,1.045,1.694,1.575q1.014.9,2.039,1.713t2.057,1.533q1.032.721,2.067,1.348t2.07,1.158q1.324.679,2.645,1.2a25.714,25.714,0,0,0,2.635.878,22.957,22.957,0,0,0,2.615.555,20.945,20.945,0,0,0,2.587.229h.052Z" fill="#fff"/>
            </g>
            <g id="パス_42-2" data-name="パス 42" transform="translate(12.797 25.658)">
              <path id="パス_41-3" data-name="パス 41" d="M20.706,2.043a13.447,13.447,0,0,0-1.44-.016,20.8,20.8,0,0,0-3.594.441A18.8,18.8,0,0,0,11.012,4.1,15.9,15.9,0,0,0,6.373,7.664,13.81,13.81,0,0,0,4.989,9.5a16.373,16.373,0,0,0-1.2,2.3,19.806,19.806,0,0,0-.946,2.78,24.514,24.514,0,0,0-.616,3.282" fill="none"/>
              <path id="パス_42-3" data-name="パス 42" d="M2.227,19.868a1.988,1.988,0,0,0,.714-.132,2,2,0,0,0,1.27-1.629,22.246,22.246,0,0,1,.626-3.238,17.4,17.4,0,0,1,.913-2.554A14.106,14.106,0,0,1,6.806,10.38,11.648,11.648,0,0,1,7.863,9a13.746,13.746,0,0,1,1.66-1.572,14.049,14.049,0,0,1,1.908-1.285,15.332,15.332,0,0,1,2.15-.993,17.638,17.638,0,0,1,2.385-.7c.42-.092.824-.165,1.206-.223s.743-.1,1.076-.132.639-.051.911-.062.51-.016.709-.016c.106,0,.2,0,.283,0l.21.006.132.006.049,0h-.006l.171-1.993L20.877.05,20.789.044l-.2-.011c-.086,0-.19-.008-.31-.011s-.257,0-.409,0c-.25,0-.542.005-.869.019s-.69.037-1.081.073S17.1.194,16.657.26s-.914.148-1.4.251q-.69.147-1.36.334t-1.316.414q-.646.227-1.267.493t-1.214.57q-.75.384-1.454.829T7.289,4.1q-.654.5-1.256,1.061T4.882,6.331A15.814,15.814,0,0,0,3.189,8.615a18.677,18.677,0,0,0-1.349,2.671A22.31,22.31,0,0,0,.851,14.3a26.549,26.549,0,0,0-.612,3.325,2,2,0,0,0,1.746,2.225l.061.006.061,0,.06,0Z" fill="#fff"/>
            </g>
            <g id="パス_43-2" data-name="パス 43" transform="translate(18.121 41.061)">
              <path id="パス_43-3" data-name="パス 43" d="M20.574,2.465a8.663,8.663,0,0,1,.237,2.1,9.976,9.976,0,0,1-1.145,4.709,11.723,11.723,0,0,1-5.311,4.907c-2.774,1.4-6.707,2.434-12.261,2.7" fill="none"/>
              <path id="パス_44-2" data-name="パス 44" d="M2.091,18.882h.1a45.16,45.16,0,0,0,6.23-.7,28.223,28.223,0,0,0,5.152-1.451,18.121,18.121,0,0,0,4.057-2.2A13.269,13.269,0,0,0,20.572,11.6a11.665,11.665,0,0,0,1.7-3.411A12.155,12.155,0,0,0,22.8,5.124a12.311,12.311,0,0,0-.108-2.243,7.992,7.992,0,0,0-.187-.955l-1.926.539L18.648,3l0-.015s.015.058.035.159.046.248.069.432.045.407.055.66a8.4,8.4,0,0,1-.006.842,8.27,8.27,0,0,1-.146,1.147,7.757,7.757,0,0,1-.3,1.089A7.625,7.625,0,0,1,17.9,8.346a7.907,7.907,0,0,1-.606.963,8.588,8.588,0,0,1-.889,1.026,10.11,10.11,0,0,1-1.09.929,12.323,12.323,0,0,1-1.286.83,15.315,15.315,0,0,1-1.478.728,19.967,19.967,0,0,1-2.191.786q-1.172.348-2.495.607t-2.789.427q-1.467.168-3.074.244a2,2,0,0,0,.093,4Z" fill="#fff"/>
            </g>
            <g id="パス_44-3" data-name="パス 44" transform="translate(-6.65 57.61)">
              <path id="パス_45-2" data-name="パス 45" d="M25.734,18.649a23.722,23.722,0,0,1-2.864-.34,32.455,32.455,0,0,1-6.7-1.908,25.676,25.676,0,0,1-7.717-4.81,21.933,21.933,0,0,1-5.9-9.043" fill="none"/>
              <path id="パス_46" data-name="パス 46" d="M25.735,20.649a2,2,0,0,0,.072-4c-.019,0-.3-.013-.774-.062s-1.158-.134-1.983-.281-1.8-.354-2.856-.647A29.332,29.332,0,0,1,16.8,14.5a25.424,25.424,0,0,1-4.254-2.231A21.059,21.059,0,0,1,9.063,9.416,19.59,19.59,0,0,1,6.355,5.952,20.835,20.835,0,0,1,4.436,1.888,2,2,0,0,0,2.547.547q-.082,0-.165.007T2.218.574q-.083.014-.165.035t-.164.05A2,2,0,0,0,.659,3.206,25.238,25.238,0,0,0,1.818,5.988,24.04,24.04,0,0,0,3.281,8.564a23.618,23.618,0,0,0,1.76,2.361,23.99,23.99,0,0,0,2.052,2.137q.871.8,1.83,1.53t2,1.378q1.042.65,2.164,1.221t2.321,1.061a33.607,33.607,0,0,0,3.848,1.3c1.2.327,2.294.557,3.226.719s1.7.254,2.252.307.878.066.927.068h.072Z" fill="#fff"/>
            </g>
            <g id="パス_45-3" data-name="パス 45" transform="translate(11.829 70.843)">
              <path id="パス_47" data-name="パス 47" d="M21.675,2.221a19.223,19.223,0,0,0-2.846-.159,21.4,21.4,0,0,0-6.369.995A14.35,14.35,0,0,0,5.818,7.414a17.11,17.11,0,0,0-3.663,9.929" fill="none"/>
              <path id="パス_48" data-name="パス 48" d="M2.157,19.342A2,2,0,0,0,4.148,17.5a20.714,20.714,0,0,1,.518-3.278,15.376,15.376,0,0,1,.986-2.834A12.328,12.328,0,0,1,7.1,9.012,11.241,11.241,0,0,1,9.008,7.094a12.53,12.53,0,0,1,2.584-1.562,15.394,15.394,0,0,1,2.691-.923,18.883,18.883,0,0,1,2.559-.44,21.343,21.343,0,0,1,2.189-.112c.349,0,.668.008.95.021s.529.03.732.047.364.035.475.048.173.023.18.023l.078.011.078.008.077,0h.077a1.986,1.986,0,0,0,.7-.126,2,2,0,0,0-.39-3.851c-.032,0-.126-.019-.275-.037S21.353.166,21.1.144,20.544.1,20.2.085,19.471.059,19.051.059A25.354,25.354,0,0,0,16.344.2,22.889,22.889,0,0,0,13.17.768,19.294,19.294,0,0,0,9.806,1.952a16.423,16.423,0,0,0-3.275,2,15.361,15.361,0,0,0-2.513,2.5A16.036,16.036,0,0,0,2.115,9.5a19.06,19.06,0,0,0-1.287,3.58,24.762,24.762,0,0,0-.666,4.1,2,2,0,0,0,1.832,2.155l.041,0,.041,0h.082Z" fill="#fff"/>
            </g>
          </g>
        </g>
      </g>
      <g id="group-10" data-name="group" transform="translate(20.568 -6.22)">
        <g id="group-11" data-name="group" transform="translate(956.381 425.226)">
          <rect id="長方形_8" data-name="長方形 8" width="51.547" height="16.401" transform="translate(0 58.576)" fill="#fff"/>
          <path id="パス_56" data-name="パス 56" d="M1058.36,464.06s-.6,2.492.748.962c.74-.868,3.808-4.633,7.32-5.664,1.594-.478,8.817-.588,11.488,1.443s8.152,4.794,5.405,11.851-16.617,19.836-16.473,20.6c1.74,9.193,2.555,20.691.068,32.018l-15.349,1.378V550h41.166s19.447-1.174,17.435-24.727-9.053-48.7-27.493-67.476c0,0-17.182-14.134-24.316,6.268" transform="translate(-919.638 -400.852)" fill="#0d2125"/>
          <path id="パス_57" data-name="パス 57" d="M1073.04,465.156s7.343-7.335,13.887-5.818,8.9,3.919,8.74,8.82-9.473,16.468-28.644,28.606-47.235,3.56-48.763,2.379-4.515-5-1.876-10.767,6.946-7.016,17.644-5.349,24.59-2.431,30.425-8.544,8.587-9.328,8.587-9.328l9.132-8.757" transform="translate(-933.774 -399.444)" fill="#0d2125"/>
          <circle id="楕円形_16" data-name="楕円形 16" cx="26.945" cy="26.945" r="26.945" transform="translate(106.608 0)" fill="#010f27"/>
          <path id="パス_67" data-name="パス 67" d="M1047.09,505.354c-23.229,3.235-22.129,18.621-17.77,78.888,0,0,8.577,10.235,16.911,0V505.354" transform="translate(-928.979 -379.023)" fill="#0d2125"/>
        </g>
        <g id="group-12" data-name="group" transform="translate(1053.494 480.609)">
          <path id="パス_58" data-name="パス 58" d="M1024.66,480.917l10.3-19.686" transform="translate(-1024.656 -450.469)" fill="none" stroke="#0d2125" stroke-linecap="round" stroke-width="3"/>
          <path id="パス_59" data-name="パス 59" d="M1029.12,457.87s9.572-2.89,11.558,5.418" transform="translate(-1022.795 -452.074)" fill="none" stroke="#0d2125" stroke-linecap="round" stroke-width="2"/>
          <path id="パス_60" data-name="パス 60" d="M1025.48,455.189s18.964-6.953,22.4,8.579" transform="translate(-1024.31 -453.637)" fill="none" stroke="#0d2125" stroke-linecap="round" stroke-width="2"/>
        </g>
        <g id="group-13" data-name="group" transform="translate(1043.674 425.5) rotate(-9)">
          <path id="パス_61" data-name="パス 61" d="M6.562,8.9,0,0" transform="translate(8.851)" fill="none" stroke="#0d2125" stroke-linecap="round" stroke-width="2"/>
          <path id="パス_62" data-name="パス 62" d="M10.149,7.173,0,0" transform="translate(1.984 5.036)" fill="none" stroke="#0d2125" stroke-linecap="round" stroke-width="2"/>
          <path id="パス_63" data-name="パス 63" d="M10.835,1.068,0,0" transform="translate(0 14.498)" fill="none" stroke="#0d2125" stroke-linecap="round" stroke-width="2"/>
        </g>
        <g id="group-14" data-name="group" transform="matrix(0.53, -0.848, 0.848, 0.53, 1070.737, 416.137)">
          <path id="パス_64" data-name="パス 64" d="M6.562,8.9,0,0" transform="translate(15.364 13.437) rotate(109)" fill="none" stroke="#0d2125" stroke-linecap="round" stroke-width="2"/>
          <path id="パス_65" data-name="パス 65" d="M10.149,7.173,0,0" transform="translate(12.838 5.304) rotate(109)" fill="none" stroke="#0d2125" stroke-linecap="round" stroke-width="2"/>
          <path id="パス_66" data-name="パス 66" d="M10.835,1.068,0,0" transform="translate(4.538 0.348) rotate(109)" fill="none" stroke="#0d2125" stroke-linecap="round" stroke-width="2"/>
        </g>
        <path id="パス_68" data-name="パス 68" d="M965.956,600.134h6.19V509.349h105.228v90.785h6.19v-101.1h6.964v-8.511h-133.6v8.511h9.027v101.1" transform="translate(0.587 37.672)" fill="#fff" stroke="#010f27" stroke-width="3"/>
        <g id="group-15" data-name="group" transform="translate(955.522 483.458)">
          <g id="group-16" data-name="group">
            <path id="パス_69" data-name="パス 69" d="M1007.45,462.434H954.522V479.8h52.931" transform="translate(-954.522 -462.434)" fill="none" stroke="#0d2125" stroke-linecap="round" stroke-linejoin="round" stroke-width="3"/>
            <path id="パス_70" data-name="パス 70" d="M954.866,464.688h50.222" transform="translate(-954.379 -460.257)" fill="none" stroke="#0d2125" stroke-linecap="round" stroke-width="2"/>
            <path id="パス_71" data-name="パス 71" d="M954.866,464.688h50.222" transform="translate(-954.379 -456.006)" fill="none" stroke="#0d2125" stroke-linecap="round" stroke-width="2"/>
            <path id="パス_72" data-name="パス 72" d="M954.866,464.688h50.222" transform="translate(-954.379 -451.754)" fill="none" stroke="#0d2125" stroke-linecap="round" stroke-width="2"/>
          </g>
          <g id="group-17" data-name="group" transform="translate(2.834 21.431)">
            <rect id="長方形_9" data-name="長方形 9" width="51.547" height="16.401" transform="translate(0.953)" fill="#fff"/>
            <path id="パス_69-2" data-name="パス 69" d="M1007.45,462.434H954.522V479.8h52.931" transform="translate(-954.522 -462.001)" fill="none" stroke="#0d2125" stroke-linecap="round" stroke-linejoin="round" stroke-width="3"/>
            <path id="パス_70-2" data-name="パス 70" d="M954.866,464.688h50.222" transform="translate(-954.379 -459.824)" fill="none" stroke="#0d2125" stroke-linecap="round" stroke-width="2"/>
            <path id="パス_71-2" data-name="パス 71" d="M954.866,464.688h50.222" transform="translate(-954.379 -455.573)" fill="none" stroke="#0d2125" stroke-linecap="round" stroke-width="2"/>
            <path id="パス_72-2" data-name="パス 72" d="M954.866,464.688h50.222" transform="translate(-954.379 -451.322)" fill="none" stroke="#0d2125" stroke-linecap="round" stroke-width="2"/>
          </g>
        </g>
        <g id="group-18" data-name="group" transform="translate(1093.457 506.009)">
          <path id="パス_73" data-name="パス 73" d="M1051.2,525.443h70.63" transform="translate(-1051.202 -451.427)" fill="none" stroke="#fff" stroke-linecap="round" stroke-width="5"/>
          <path id="パス_74" data-name="パス 74" d="M1076.12,526.3v43.04" transform="translate(-1040.807 -451.067)" fill="none" stroke="#fff" stroke-width="2"/>
          <path id="パス_75" data-name="パス 75" d="M1057.32,570.121v-6.506l26.865-6.888,26.878,7.3V569.2" transform="translate(-1048.652 -438.377)" fill="none" stroke="#fff" stroke-width="2"/>
          <circle id="楕円形_18" data-name="楕円形 18" cx="5.1" cy="5.1" r="5.1" transform="translate(57.307 129.918)" fill="#0d2125"/>
          <path id="パス_76" data-name="パス 76" d="M1097.46,473.214v41.358" transform="translate(-1031.905 -473.214)" fill="none" stroke="#fff" stroke-linecap="round" stroke-width="5"/>
          <path id="パス_77" data-name="パス 77" d="M1097.46,504.12v28.538" transform="translate(-1031.905 -460.321)" fill="none" stroke="#fff" stroke-width="2"/>
          <circle id="楕円形_19" data-name="楕円形 19" cx="5.1" cy="5.1" r="5.1" transform="translate(3.677 129.918)" fill="#0d2125"/>
        </g>
      </g>
      <g id="group-19" data-name="group" transform="translate(36.764 -29.222)">
        <g id="長方形_11" data-name="長方形 11" transform="translate(953.866 475.576)" fill="#010f27" stroke="#0d2125" stroke-linecap="round" stroke-linejoin="round" stroke-width="2">
          <rect width="22" height="27" stroke="none"/>
          <rect x="1" y="1" width="20" height="25" fill="none"/>
        </g>
        <line id="線_4" data-name="線 4" x2="7.244" transform="translate(960.64 470.158)" fill="none" stroke="#fff" stroke-linecap="round" stroke-width="2"/>
        <line id="線_5" data-name="線 5" x2="9.658" transform="translate(959.433 465.329)" fill="none" stroke="#fff" stroke-linecap="round" stroke-width="2"/>
        <line id="線_6" data-name="線 6" x2="14.487" transform="translate(957.018 460.5)" fill="none" stroke="#fff" stroke-linecap="round" stroke-width="2"/>
      </g>
      <g id="group-20" data-name="group" transform="translate(947.046 261.147)">
        <g id="group-21" data-name="group" transform="translate(0 19.985)">
          <path id="パス_46-2" data-name="パス 46" d="M1020.02,383.2s-15.992,6.424-19.682-9.431c0,0-16.948-1.5-15.718-15.992s11.208-14.488,11.208-14.488-9.978-15.035,0-22.142,18.042-2.46,18.042-2.46-1.059-14.967,14.386-18.11,18.042,7.791,18.042,7.791,4.784-17.085,20.639-14.488,16.4,18.589,16.4,18.589,8.611-9.158,18.315-1.367,3.964,15.855,3.964,15.855,7.62-2.324,15.684,7.791,2.324,15.992,2.324,15.992a10.772,10.772,0,0,1,8.748,8.748c1.5,7.791-3.28,10.8-3.28,10.8s10.251,13.668-2.46,21.322-18.315,0-18.315,0-4.271,12.609-19.443,5.091c0,0-.273,15.172-17.905,13.395s-12.985-15.718-12.985-15.718-13.873,13.873-27.678,6.219-10.285-17.393-10.285-17.393" transform="translate(-984.56 -293.611)" fill="#fff" stroke="#010f27" stroke-linecap="round" stroke-linejoin="round" stroke-width="4"/>
          <path id="パス_47-2" data-name="パス 47" d="M1020.94,384.2s.574-16.463,17.42-19.478" transform="translate(-985.421 -295.294)" fill="none" stroke="#010f27" stroke-linecap="round" stroke-width="4"/>
        </g>
        <path id="パス_50" data-name="パス 50" d="M1074.57,286.606V344.56h-60.79" transform="translate(-985.251 -273.46)" fill="none" stroke="#010f27" stroke-linecap="round" stroke-width="3"/>
        <path id="パス_51" data-name="パス 51" d="M1031.98,320.983v15.035h95.951v-20.5" transform="translate(-985.682 -274.145)" fill="none" stroke="#010f27" stroke-linecap="round" stroke-linejoin="round" stroke-width="3"/>
        <path id="パス_52" data-name="パス 52" d="M1102.54,425.716l-23.1-31.027V354.5h27.61v18.589" transform="translate(-986.805 -275.067)" fill="none" stroke="#010f27" stroke-linecap="round" stroke-linejoin="round" stroke-width="3"/>
        <path id="パス_53" data-name="パス 53" d="M1058.48,357.864v22.553H1042.9" transform="translate(-985.941 -275.147)" fill="none" stroke="#010f27" stroke-linecap="round" stroke-linejoin="round" stroke-width="3"/>
        <g id="楕円形_9" data-name="楕円形 9" transform="translate(16.552 62.364)" fill="#010f27" stroke="#010f27" stroke-width="2">
          <circle cx="8.753" cy="8.753" r="8.753" stroke="none"/>
          <circle cx="8.753" cy="8.753" r="7.753" fill="none"/>
        </g>
        <g id="楕円形_10" data-name="楕円形 10" transform="translate(37.34 35.011)" fill="#010f27" stroke="#010f27" stroke-width="2">
          <circle cx="8.753" cy="8.753" r="8.753" stroke="none"/>
          <circle cx="8.753" cy="8.753" r="7.753" fill="none"/>
        </g>
        <g id="楕円形_11" data-name="楕円形 11" transform="translate(132.183 28.197)" fill="#fff" stroke="#005465" stroke-width="2">
          <circle cx="10.19" cy="10.19" r="10.19" stroke="none"/>
          <circle cx="10.19" cy="10.19" r="9.19" fill="none"/>
        </g>
        <g id="楕円形_12" data-name="楕円形 12" transform="translate(111.739 94.093)" fill="#010f27" stroke="#010f27" stroke-width="2">
          <circle cx="8.753" cy="8.753" r="8.753" stroke="none"/>
          <circle cx="8.753" cy="8.753" r="7.753" fill="none"/>
        </g>
        <g id="楕円形_13" data-name="楕円形 13" transform="translate(43.904 96.281)" fill="#010f27" stroke="#010f27" stroke-width="2">
          <circle cx="8.753" cy="8.753" r="8.753" stroke="none"/>
          <circle cx="8.753" cy="8.753" r="7.753" fill="none"/>
        </g>
        <g id="パス_55" data-name="パス 55" transform="translate(52.657 48.578)">
          <path id="パス_49" data-name="パス 49" d="M60.022,42.635H1.5V1.5H60.022Z" fill="#010f27"/>
          <path id="パス_50-2" data-name="パス 50" d="M3,3V41.135H58.522V3H3M0,0H61.522V44.135H0Z" fill="#fff"/>
        </g>
        <rect id="長方形_6" data-name="長方形 6" width="21.098" height="17.581" transform="translate(78.35 57.907)" fill="#2cdcbf"/>
        <g id="長方形_7" data-name="長方形 7" transform="translate(66.043 63.181)" fill="#2cdcbf" stroke="#010f27" stroke-width="1">
          <rect width="29.888" height="21.098" stroke="none"/>
          <rect x="0.5" y="0.5" width="28.888" height="20.098" fill="none"/>
        </g>
        <g id="パス_79" data-name="パス 79" transform="translate(79.07 -6.935)">
          <path id="パス_51-2" data-name="パス 51" d="M10.24,19.375a9.188,9.188,0,1,1,9.24-9.188A9.224,9.224,0,0,1,10.24,19.375Z" fill="#fff"/>
          <path id="パス_52-2" data-name="パス 52" d="M10.24,2a8.188,8.188,0,1,0,8.24,8.188A8.223,8.223,0,0,0,10.24,2m0-2A10.188,10.188,0,1,1,0,10.188,10.214,10.214,0,0,1,10.24,0Z" fill="#005465"/>
        </g>
        <g id="楕円形_14" data-name="楕円形 14" transform="translate(102.637 136.613)">
          <path id="パス_53-2" data-name="パス 53" d="M8.8,0a8.815,8.815,0,0,1,6.221,2.55,8.608,8.608,0,0,1,1.868,9.521A8.688,8.688,0,0,1,15,14.825a8.851,8.851,0,0,1-12.412,0A8.622,8.622,0,0,1,.7,5.314,8.687,8.687,0,0,1,2.581,2.55,8.814,8.814,0,0,1,8.8,0Z" fill="#fff"/>
          <path id="パス_54" data-name="パス 54" d="M8.8,15.389A6.808,6.808,0,0,0,13.6,13.428,6.725,6.725,0,0,0,15.053,11.3a6.628,6.628,0,0,0,.006-5.214A6.724,6.724,0,0,0,13.6,3.952a6.828,6.828,0,0,0-9.6,0A6.724,6.724,0,0,0,2.546,6.086,6.628,6.628,0,0,0,2.553,11.3,6.726,6.726,0,0,0,4.01,13.428,6.809,6.809,0,0,0,8.8,15.389m0,1.97A8.816,8.816,0,0,1,2.6,14.824,8.689,8.689,0,0,1,.712,12.071,8.61,8.61,0,0,1,.7,5.314,8.687,8.687,0,0,1,2.581,2.55a8.851,8.851,0,0,1,12.442,0A8.688,8.688,0,0,1,16.9,5.314a8.61,8.61,0,0,1-.01,6.757,8.688,8.688,0,0,1-1.885,2.754A8.815,8.815,0,0,1,8.8,17.359Z" fill="#010f27"/>
        </g>
      </g>
    </g>
  </g>
</svg>
