<svg xmlns="http://www.w3.org/2000/svg" xmlns:xlink="http://www.w3.org/1999/xlink" width="400" height="400" viewBox="0 0 400 400">
  <defs>
    <clipPath id="clip-path">
      <rect id="長方形_9" data-name="長方形 9" width="400" height="400" transform="translate(1027.318 389.318)" fill="none"/>
    </clipPath>
  </defs>
  <g id="icon-04" transform="translate(-1027.318 -389.318)" clip-path="url(#clip-path)">
    <g id="icon-04-2" data-name="icon-04" transform="translate(984.778 368.558)">
      <g id="group">
        <ellipse id="back" cx="140.975" cy="141.656" rx="140.975" ry="141.656" transform="translate(101.505 81.439)" fill="#2cdcbf"/>
        <g id="group-2" data-name="group" transform="translate(257.7 28.457)">
          <path id="パス_16" data-name="パス 16" d="M934.382,248.19a236.292,236.292,0,0,1,25.1,3.862" transform="translate(-934.382 -248.19)" fill="none" stroke="#fff" stroke-linecap="round" stroke-width="4"/>
          <path id="パス_17" data-name="パス 17" d="M1001,261.589s14.21,4.411,24,9.211" transform="translate(-957.58 -252.855)" fill="none" stroke="#fff" stroke-linecap="round" stroke-width="4"/>
          <path id="パス_22" data-name="パス 22" d="M1207.19,511.185s1.835,4.39,1.485,26.124" transform="translate(-1029.372 -339.618)" fill="none" stroke="#fff" stroke-linecap="round" stroke-width="4"/>
          <path id="パス_23" data-name="パス 23" d="M1204.69,580.286s-1.616,16.95-4.675,26.736" transform="translate(-1026.875 -363.64)" fill="none" stroke="#fff" stroke-linecap="round" stroke-width="4"/>
          <path id="パス_24" data-name="パス 24" d="M1185.93,647.61s-5.242,14.678-10.747,24.464" transform="translate(-1018.228 -387.046)" fill="none" stroke="#fff" stroke-linecap="round" stroke-width="4"/>
          <path id="パス_25" data-name="パス 25" d="M1151.68,709.875s-9.523,13.8-16.775,22.018" transform="translate(-1004.202 -408.693)" fill="none" stroke="#fff" stroke-linecap="round" stroke-width="4"/>
          <path id="パス_26" data-name="パス 26" d="M1104.69,762.287a174.333,174.333,0,0,1-21.93,18.261" transform="translate(-986.046 -426.888)" fill="none" stroke="#fff" stroke-linecap="round" stroke-width="4"/>
          <path id="パス_27" data-name="パス 27" d="M1047.69,804.31s-13.281,7.863-24.377,11.883" transform="translate(-965.346 -441.52)" fill="none" stroke="#fff" stroke-linecap="round" stroke-width="4"/>
        </g>
        <g id="group-3" data-name="group" transform="matrix(0.602, 0.799, -0.799, 0.602, 213.44, 0)">
          <path id="パス_30" data-name="パス 30" d="M14.517,21.574S5.158,9.88,0,0" transform="translate(26.144 209.742)" fill="none" stroke="#fff" stroke-linecap="round" stroke-width="4"/>
          <path id="パス_31" data-name="パス 31" d="M9.006,23.859S2.285,8.872,0,0" transform="translate(8.519 169.047)" fill="none" stroke="#fff" stroke-linecap="round" stroke-width="4"/>
          <path id="パス_32" data-name="パス 32" d="M3.428,25.2S.134,8.939,0,0" transform="translate(0.42 125.664)" fill="none" stroke="#fff" stroke-linecap="round" stroke-width="4"/>
          <path id="パス_33" data-name="パス 33" d="M2.218,0S.134,16.4,0,25.876" transform="translate(0 81.407)" fill="none" stroke="#fff" stroke-linecap="round" stroke-width="4"/>
          <path id="パス_34" data-name="パス 34" d="M0,24.464S4.167,10.014,8.334,0" transform="translate(6.15 38.477)" fill="none" stroke="#fff" stroke-linecap="round" stroke-width="4"/>
          <path id="パス_35" data-name="パス 35" d="M0,21.91S6.923,8.737,13.509,0" transform="translate(22.263)" fill="none" stroke="#fff" stroke-linecap="round" stroke-width="4"/>
          <path id="パス_63" data-name="パス 63" d="M14.517,21.574S5.158,9.88,0,0" transform="translate(55.352 246.625) rotate(-17)" fill="none" stroke="#fff" stroke-linecap="round" stroke-width="4"/>
        </g>
        <g id="group-4" data-name="group" transform="matrix(0.766, -0.643, 0.643, 0.766, 73.701, 324.15)">
          <path id="パス_30-2" data-name="パス 30" d="M14.517,21.574S5.158,9.88,0,0" transform="translate(26.144 128.336)" fill="none" stroke="#fff" stroke-linecap="round" stroke-width="4"/>
          <path id="パス_31-2" data-name="パス 31" d="M9.006,23.859S2.285,8.872,0,0" transform="translate(8.519 87.641)" fill="none" stroke="#fff" stroke-linecap="round" stroke-width="4"/>
          <path id="パス_32-2" data-name="パス 32" d="M3.428,25.2S.134,8.939,0,0" transform="translate(0.42 44.257)" fill="none" stroke="#fff" stroke-linecap="round" stroke-width="4"/>
          <path id="パス_33-2" data-name="パス 33" d="M2.218,0S.134,16.4,0,25.876" fill="none" stroke="#fff" stroke-linecap="round" stroke-width="4"/>
        </g>
      </g>
      <g id="group-5" data-name="group" transform="translate(226.692 80.38)">
        <path id="パス_48" data-name="パス 48" d="M1294.933,602.468v19.326h-20.385s-2.631-19.29-24.99-31.712l-33.174-1.169s-24.844-3.8-25.574-33.466c0,0-30.1,1.535-36.68-24.624s7.6-40.627,15.491-44.572,18.853-3.068,18.853-3.068,6.393-34.854,42.781-16.441c0,0,8.915-15.053,29.52-13.444l.731,83.153h76.95s-3.654,10.3-10.376,14.979c0,0,5.809,17.135,0,29.118,0,0-3.034,20.313-33.138,21.921" transform="translate(-1151.366 -450.112)" fill="#fff"/>
        <path id="パス_39" data-name="パス 39" d="M1220.77,549.763s21.237,13.451,25.035,32.985h20.619V562.112" transform="translate(-1122.855 -409.811)" fill="none" stroke="#010f27" stroke-linecap="round" stroke-linejoin="round" stroke-width="4"/>
        <path id="パス_40" data-name="パス 40" d="M1240.233,502.659h-35.25s-26.427,7.656-25.438,31.366,10.619,31.366,25.438,34.823h57.3s6.181,15.066,29.39,11.854,29.884-25.438,29.389-32.107-4.445-17.535-4.445-17.535" transform="translate(-1140.067 -429.466)" fill="none" stroke="#010f27" stroke-linecap="round" stroke-linejoin="round" stroke-width="4"/>
        <path id="パス_41" data-name="パス 41" d="M1191.133,545.948s-20.474,4.939-32.328-13.336-7.9-39.016,4.445-50.136,24.45-8.4,24.45-8.4" transform="translate(-1151.681 -441.514)" fill="none" stroke="#010f27" stroke-linecap="round" stroke-linejoin="round" stroke-width="4"/>
        <path id="パス_42" data-name="パス 42" d="M1176.76,494.8s-3.21-53.594,45.2-30.624" transform="translate(-1141.237 -447.911)" fill="none" stroke="#010f27" stroke-linecap="round" stroke-width="4"/>
        <path id="パス_43" data-name="パス 43" d="M1208.64,497.133V466.508s5.923-16.053,29.389-13.336V536.4h77.549s-6.669,18.523-25.685,19.511-61,0-61,0" transform="translate(-1127.916 -450.244)" fill="none" stroke="#010f27" stroke-linecap="round" stroke-linejoin="round" stroke-width="4"/>
        <path id="パス_44" data-name="パス 44" d="M1215.63,517.295l10.376,11.837-10.376,11.4" transform="translate(-1124.999 -423.359)" fill="none" stroke="#010f27" stroke-linecap="round" stroke-linejoin="round" stroke-width="4"/>
        <path id="パス_45" data-name="パス 45" d="M1195.362,508.476,1183.671,494.3" transform="translate(-1138.334 -432.953)" fill="none" stroke="#010f27" stroke-linecap="round" stroke-width="4"/>
        <path id="パス_46" data-name="パス 46" d="M1299.338,517.692V494.311h-51.782v23.383h51.782" transform="translate(-1111.33 -432.949)" fill="#fff" stroke="#010f27" stroke-linecap="round" stroke-linejoin="round" stroke-width="4"/>
        <path id="パス_47" data-name="パス 47" d="M1255.236,524.743V477.416h-26.08l.675,47.327h25.406" transform="translate(-1119.007 -439.998)" fill="#fff" stroke="#010f27" stroke-linecap="round" stroke-linejoin="round" stroke-width="4"/>
        <g id="長方形_6" data-name="長方形 6" transform="translate(116.848 0.38)" fill="#fff" stroke="#010f27" stroke-linecap="round" stroke-linejoin="round" stroke-width="3">
          <rect width="19" height="19" stroke="none"/>
          <rect x="1.5" y="1.5" width="16" height="16" fill="none"/>
        </g>
        <g id="長方形_7" data-name="長方形 7" transform="translate(143.848 14.38)" fill="#2cdcbf" stroke="#010f27" stroke-linecap="round" stroke-linejoin="round" stroke-width="3">
          <rect width="34" height="33" stroke="none"/>
          <rect x="1.5" y="1.5" width="31" height="30" fill="none"/>
        </g>
        <path id="パス_44-2" data-name="パス 44" d="M101.007,139.952h21.3s5.46,10.138,20.747,11.958v20.565H122.305s-1.456-14.378-21.3-32.523" fill="#010f27"/>
      </g>
      <g id="group-6" data-name="group" transform="translate(50.786 205.62)">
        <path id="パス_51" data-name="パス 51" d="M1002.409,610.485s-12.19,1.94-15.519-4.056-.948-14.02,4.7-15.251a27.11,27.11,0,0,1,10.823,0v19.31" transform="translate(-985.367 -540.522)" fill="#fff" stroke="#010f27" stroke-linecap="round" stroke-width="4"/>
        <path id="パス_52" data-name="パス 52" d="M1066.55,590.664s7.218-1.745,11.11,2.228,4.264,11.918,0,15.693-11.11,1.766-11.11,1.766V590.664" transform="translate(-976.301 -540.56)" fill="#fff" stroke="#010f27" stroke-linecap="round" stroke-linejoin="round" stroke-width="4"/>
        <g id="長方形_8" data-name="長方形 8" transform="translate(13.754 30.14)" fill="#fff" stroke-linecap="round">
          <path d="M 76 54 L 2 54 L 2 2 L 76 2 L 76 54 Z" stroke="none"/>
          <path d="M 4 4 L 4 52 L 74 52 L 74 4 L 4 4 M 0 0 L 78 0 L 78 56 L 0 56 L 0 0 Z" stroke="none" fill="#010f27"/>
        </g>
        <g id="楕円形_9" data-name="楕円形 9" transform="translate(59.754 45.14)" fill="#2cdcbf" stroke="#010f27" stroke-linecap="round" stroke-linejoin="round" stroke-width="3">
          <ellipse cx="8" cy="7.5" rx="8" ry="7.5" stroke="none"/>
          <ellipse cx="8" cy="7.5" rx="6.5" ry="6" fill="none"/>
        </g>
        <g id="楕円形_10" data-name="楕円形 10" transform="translate(28.754 45.14)" fill="#2cdcbf" stroke="#010f27" stroke-linecap="round" stroke-linejoin="round" stroke-width="3">
          <ellipse cx="8.5" cy="7.5" rx="8.5" ry="7.5" stroke="none"/>
          <ellipse cx="8.5" cy="7.5" rx="7" ry="6" fill="none"/>
        </g>
        <path id="パス_49" data-name="パス 49" d="M1012,558.042v19.185" transform="translate(-982.393 -544.16)" fill="none" stroke="#010f27" stroke-linecap="round" stroke-width="4"/>
        <path id="パス_50" data-name="パス 50" d="M1012,558.042v19.185" transform="translate(-939.038 -544.16)" fill="none" stroke="#010f27" stroke-linecap="round" stroke-width="4"/>
        <g id="楕円形_11" data-name="楕円形 11" transform="translate(21.754 0.14)" fill="#fff" stroke="#010f27" stroke-linecap="round" stroke-linejoin="round" stroke-width="3">
          <circle cx="8" cy="8" r="8" stroke="none"/>
          <circle cx="8" cy="8" r="6.5" fill="none"/>
        </g>
        <g id="楕円形_12" data-name="楕円形 12" transform="translate(65.754 0.14)" fill="#fff" stroke="#010f27" stroke-linecap="round" stroke-linejoin="round" stroke-width="3">
          <ellipse cx="7.5" cy="8" rx="7.5" ry="8" stroke="none"/>
          <ellipse cx="7.5" cy="8" rx="6" ry="6.5" fill="none"/>
        </g>
      </g>
      <g id="group-7" data-name="group" transform="translate(91.787 147.997)">
        <path id="パス_53" data-name="パス 53" d="M1034.32,546.634l-12.071-36.058,11.176,2.683s10.729-19.224,26.376-19.522,22.353,3.279,34.572,15.8l-12.965,12.221s-14.156-21.008-30.25-3.279l11.918,4.62-28.756,23.538" transform="matrix(0.883, -0.469, 0.469, 0.883, -1159.579, 63.014)" fill="#fff" stroke="#005465" stroke-linecap="round" stroke-linejoin="round" stroke-width="4"/>
      </g>
      <g id="group-8" data-name="group" transform="translate(151.512 171.007)">
        <g id="楕円形_13" data-name="楕円形 13" transform="translate(20.38 84.753)" fill="#010f27" stroke="#010f27" stroke-width="3">
          <circle cx="10.5" cy="10.5" r="10.5" stroke="none"/>
          <circle cx="10.5" cy="10.5" r="9" fill="none"/>
        </g>
        <path id="パス_55" data-name="パス 55" d="M1129.331,592.226v16.447h-29.8l-.894-16.447a59.985,59.985,0,0,0-6.407-22.447c-5.812-10.878-11.623-14.9-8.494-29.952s16.094-22.949,21.459-23.246,5.514-2.683,18.627,0,17.736,17.486,19.077,24.937-2.741,16.849-7.9,28.262a68.473,68.473,0,0,0-5.662,22.447" transform="translate(-1082.855 -515.319)" fill="#fff" stroke="#010f27" stroke-linecap="round" stroke-linejoin="round" stroke-width="4"/>
        <path id="パス_56" data-name="パス 56" d="M1097.03,585.957h30.415" transform="translate(-1081.272 -507.431)" fill="none" stroke="#010f27" stroke-linecap="round" stroke-width="3"/>
        <path id="パス_57" data-name="パス 57" d="M1094.41,533.258s1.818-7.575,9.3-9.686" transform="translate(-1082.428 -513.285)" fill="none" stroke="#010f27" stroke-linecap="round" stroke-width="3"/>
      </g>
      <g id="group-9" data-name="group" transform="translate(-19.892 -17.5)">
        <g id="group-10" data-name="group" transform="translate(208.54 263.76)">
          <path id="パス_58" data-name="パス 58" d="M1169.7,756.229l1.7-28.206-42.515-20.534-4.8-54.262,59.544-44.658h61.945l54.5,28.092V683.24l-62.713,28.636-35.006,10.741-11.767,41.059" transform="translate(-1113.099 -596.857)" fill="none" stroke="#010f27" stroke-linecap="round" stroke-linejoin="round" stroke-width="3"/>
          <path id="パス_60" data-name="パス 60" d="M1130.8,703.689l44.893-27.277,4.4-67.625" transform="translate(-1110.558 -596.774)" fill="none" stroke="#010f27" stroke-linecap="round" stroke-linejoin="round" stroke-width="2"/>
          <path id="パス_62" data-name="パス 62" d="M1206,683.458l1.167-25.049" transform="translate(-1082.149 -578.027)" fill="none" stroke="#010f27" stroke-width="2"/>
          <path id="パス_61" data-name="パス 61" d="M1174,662.538,1280.772,628.3" transform="translate(-1094.239 -589.403)" fill="none" stroke="#010f27" stroke-linecap="round" stroke-width="2"/>
          <g id="楕円形_14" data-name="楕円形 14" transform="translate(-0.108 45.5)" fill="#010f27" stroke="#2cdcbf" stroke-width="2">
            <ellipse cx="10.5" cy="11" rx="10.5" ry="11" stroke="none"/>
            <ellipse cx="10.5" cy="11" rx="9.5" ry="10" fill="none"/>
          </g>
          <g id="楕円形_15" data-name="楕円形 15" transform="translate(5.892 100.5)" fill="#fff" stroke="#010f27" stroke-width="3">
            <circle cx="10" cy="10" r="10" stroke="none"/>
            <circle cx="10" cy="10" r="8.5" fill="none"/>
          </g>
          <g id="楕円形_16" data-name="楕円形 16" transform="translate(46.892 120.5)" fill="#fff" stroke="#005465" stroke-width="3">
            <ellipse cx="11.5" cy="11" rx="11.5" ry="11" stroke="none"/>
            <ellipse cx="11.5" cy="11" rx="10" ry="9.5" fill="none"/>
          </g>
          <g id="パス_64" data-name="パス 64" transform="translate(79.761 115.64)">
            <path id="パス_39-2" data-name="パス 39" d="M10.645,19.789a9.145,9.145,0,1,1,9.145-9.145A9.155,9.155,0,0,1,10.645,19.789Z" transform="translate(0.378 0.378)" fill="#2cdcbf"/>
            <path id="パス_40-2" data-name="パス 40" d="M11.022,3.755a7.267,7.267,0,1,0,7.267,7.267,7.275,7.275,0,0,0-7.267-7.267m0-3.755A11.022,11.022,0,1,1,0,11.022,11.022,11.022,0,0,1,11.022,0Z" transform="translate(0 0)" fill="#005465"/>
          </g>
          <g id="楕円形_18" data-name="楕円形 18" transform="translate(112.892 103.5)" fill="#fff" stroke="#005465" stroke-width="3">
            <ellipse cx="11" cy="11.5" rx="11" ry="11.5" stroke="none"/>
            <ellipse cx="11" cy="11.5" rx="9.5" ry="10" fill="none"/>
          </g>
          <g id="楕円形_19" data-name="楕円形 19" transform="translate(176.892 75.5)" fill="#2cdcbf" stroke="#005465" stroke-width="3">
            <ellipse cx="10.5" cy="11" rx="10.5" ry="11" stroke="none"/>
            <ellipse cx="10.5" cy="11" rx="9" ry="9.5" fill="none"/>
          </g>
          <g id="楕円形_20" data-name="楕円形 20" transform="translate(176.892 31.5)" fill="#fff" stroke="#010f27" stroke-width="3">
            <circle cx="9" cy="9" r="9" stroke="none"/>
            <circle cx="9" cy="9" r="7.5" fill="none"/>
          </g>
          <g id="楕円形_21" data-name="楕円形 21" transform="translate(122.892 0.5)" fill="#010f27" stroke="#2cdcbf" stroke-width="2">
            <ellipse cx="10.5" cy="11" rx="10.5" ry="11" stroke="none"/>
            <ellipse cx="10.5" cy="11" rx="9.5" ry="10" fill="none"/>
          </g>
          <g id="楕円形_22" data-name="楕円形 22" transform="translate(58.892 0.5)" fill="#fff">
            <path d="M 11 20.5 C 5.761680126190186 20.5 1.5 16.23831939697266 1.5 11 C 1.5 5.761680126190186 5.761680126190186 1.5 11 1.5 C 16.23831939697266 1.5 20.5 5.761680126190186 20.5 11 C 20.5 16.23831939697266 16.23831939697266 20.5 11 20.5 Z" stroke="none"/>
            <path d="M 11 3 C 6.588789939880371 3 3 6.588789939880371 3 11 C 3 15.41121006011963 6.588789939880371 19 11 19 C 15.41121006011963 19 19 15.41121006011963 19 11 C 19 6.588789939880371 15.41121006011963 3 11 3 M 11 0 C 17.07513046264648 0 22 4.924869537353516 22 11 C 22 17.07513046264648 17.07513046264648 22 11 22 C 4.924869537353516 22 0 17.07513046264648 0 11 C 0 4.924869537353516 4.924869537353516 0 11 0 Z" stroke="none" fill="#2cdcbf"/>
          </g>
          <g id="楕円形_23" data-name="楕円形 23" transform="translate(45.892 151.5)" fill="#2cdcbf" stroke="#005465" stroke-width="2">
            <circle cx="9" cy="9" r="9" stroke="none"/>
            <circle cx="9" cy="9" r="8" fill="none"/>
          </g>
          <g id="楕円形_24" data-name="楕円形 24" transform="translate(69.892 156.5)" fill="#fff" stroke="#005465" stroke-width="2">
            <circle cx="8" cy="8" r="8" stroke="none"/>
            <circle cx="8" cy="8" r="7" fill="none"/>
          </g>
        </g>
        <g id="group-11" data-name="group" transform="translate(245.344 313.007)">
          <path id="パス_59" data-name="パス 59" d="M1156.264,681.112l-5.758,2.4-5.282-9.124,5.282-3.6v-6.009l-7.683-1.92,2.4-9.6h5.282l4.321-4.321-2.4-4.8,8.163-5.042,3.871,4.548,5.5-.841,2.457-6.984,10.8,3.277-1.552,5.777,4.786,4.067,4.786-4.067,5.82,10.282-4.526,2.328v5.868l7.695,2.128-4.075,9.639-6.79-1.358-2.91,5.432,3.881,6.079-10.346,4.655-1.878-4.655h-6.855l-1.034,6.725-11.058-3.1,2-5.383-4.895-2.4" transform="translate(-1142.822 -635.812)" fill="#010f27" stroke="#010f27" stroke-linecap="round" stroke-linejoin="round" stroke-width="2"/>
          <g id="楕円形_25" data-name="楕円形 25" transform="translate(18.088 17.253)" fill="none" stroke="#fff" stroke-width="2">
            <ellipse cx="11.5" cy="10.5" rx="11.5" ry="10.5" stroke="none"/>
            <ellipse cx="11.5" cy="10.5" rx="10.5" ry="9.5" fill="none"/>
          </g>
        </g>
        <g id="group-12" data-name="group" transform="translate(299.323 302.108) rotate(-15.009)">
          <path id="パス_59-2" data-name="パス 59" d="M13.446,45.294l-5.762,2.4L2.4,38.569l5.283-3.6V28.959L0,27.046l2.4-9.6H7.684L12,13.12l-2.4-4.8,8.163-5.042,3.871,4.548,5.5-.841L29.593,0l10.8,3.277L38.84,9.054l4.786,4.067,4.786-4.067,5.82,10.282L49.7,21.665v5.868L57.4,29.661,53.324,39.3l-6.79-1.358-2.91,5.432L47.5,49.452,37.158,54.108l-1.878-4.655H28.428l-1.034,6.725-11.058-3.1,2-5.383-4.895-2.4" fill="#fff" stroke="#010f27" stroke-linecap="round" stroke-linejoin="round" stroke-width="2"/>
          <g id="楕円形_25-2" data-name="楕円形 25" transform="translate(18.167 16.788)" fill="#fff" stroke="#010f27" stroke-width="2">
            <circle cx="11.022" cy="11.022" r="11.022" stroke="none"/>
            <circle cx="11.022" cy="11.022" r="10.022" fill="none"/>
          </g>
        </g>
      </g>
      <path id="パス_41-2" data-name="パス 41" d="M149.586,145.151,157.8,163.89" transform="translate(1.926 1.135)" fill="none" stroke="#010f27" stroke-linecap="round" stroke-width="4"/>
      <path id="パス_42-2" data-name="パス 42" d="M185.309,158.814v-30.7" transform="translate(-3.648 2.189)" fill="none" stroke="#010f27" stroke-linecap="round" stroke-width="4"/>
      <path id="パス_43-2" data-name="パス 43" d="M208.024,162.707l6.379-18.739" transform="translate(-4.426 2.318)" fill="none" stroke="#010f27" stroke-linecap="round" stroke-width="4"/>
    </g>
  </g>
</svg>
